<?xml version="1.0" standalone="no"?>
<!DOCTYPE svg PUBLIC "-//W3C//DTD SVG 1.1//EN" "http://www.w3.org/Graphics/SVG/1.1/DTD/svg11.dtd" >
<svg xmlns="http://www.w3.org/2000/svg">
<metadata>
This is a custom SVG webfont generated by Font Squirrel.
Copyright   : c 2000 Levi
</metadata>
<defs>
<font id="CelticGaramondthe2ndRegular" horiz-adv-x="1024" >
<font-face units-per-em="2048" ascent="1638" descent="-410" />
<missing-glyph horiz-adv-x="500" />
<glyph unicode=" " />
<glyph unicode="!" horiz-adv-x="655" d="M-25 1589v49q227 -8 363 -10q109 -2 364 10v-49q-141 -6 -184 -57q-35 -43 -51 -199l-109 -971h-88l-59 1061q-6 104 -74 138q-37 18 -162 28zM119 37q-14 14 0 31l168 176h28l168 -176q14 -16 0 -31l-168 -156q-18 -18 -18 0z" />
<glyph unicode="&#x22;" horiz-adv-x="1089" d="M74 1542q-14 14 0 41l166 166h20l176 -166q27 -33 27 -117q0 -184 -96 -346l-58 21q14 68 15 108q0 45 -23 76q-6 10 -61 61zM549 1542q-12 14 0 41l168 166h18l176 -166q27 -33 27 -117q0 -184 -94 -346l-60 21q16 68 17 108q0 45 -23 76q-8 10 -61 61z" />
<glyph unicode="#" horiz-adv-x="1452" d="M35 514v158h338l61 325h-313v158h336l84 483h168l-84 -483h376l84 483h168l-84 -483h285v-158h-305l-53 -325h284v-158h-315l-94 -514h-168l94 514h-389l-94 -514h-168l94 514h-305zM541 672h377l63 325h-389z" />
<glyph unicode="$" horiz-adv-x="886" d="M-8 453q39 31 71 30q43 0 93 -62l96 -122q61 -63 135 -63v569q-221 82 -325.5 243.5t-28.5 290.5q82 145 354 170q0 129 49 129t43 -120q102 -14 215 -52q176 -59 176 -133q0 -37 -49 -76q-37 -33 -69 -32q-43 0 -121 106.5t-152 110.5v-477q225 -90 293 -136 q150 -104 150 -268t-144 -274q-125 -98 -299 -119q0 -168 -49 -168q-20 0 -33.5 43t-9.5 117q-150 12 -311 86q-217 101 -84 207zM190 1235q0 -162 197 -238v437q-94 -18 -145.5 -73.5t-51.5 -125.5zM479 244q123 23 189 88q61 59 61 141q0 86 -65.5 167t-184.5 130v-526z " />
<glyph unicode="%" horiz-adv-x="1611" d="M27 1208q0 172 88 293q98 133 266 137q154 0 244 -125q80 -111 80 -276q0 -176 -89 -299q-96 -139 -256 -139q-158 0 -249 129q-84 114 -84 280zM209 0q0 92 1030 1638q16 33 53 33q53 0 54 -41q0 -10 -7 -22l-501 -828q-514 -819 -609 -819q-20 0 -20 39zM209 1206 q0 -135 39 -225q45 -102 123 -102q72 0 116 112q41 100 41 242q0 135 -39 227q-43 104 -118 109q-74 0 -119 -115q-43 -105 -43 -248zM879 375q0 170 88 291q100 135 266 139q156 0 244 -125q80 -113 79 -279q0 -174 -86 -299q-96 -137 -256 -137q-158 0 -251 127 q-84 115 -84 283zM1055 373q0 -137 41 -228q47 -100 129 -100q72 0 116 111q39 100 39 241q0 137 -37 230q-43 104 -118 106q-78 0 -125 -112q-45 -105 -45 -248z" />
<glyph unicode="&#x26;" horiz-adv-x="2035" d="M2 436q0 154 131 283q150 145 440 229q-182 197 -182 365q0 162 160 264q147 94 342 94q168 0 276 -74q123 -84 123 -233q0 -145 -143 -252q-88 -66 -275 -141l429 -406q63 63 151 189q115 166 115 241q0 47 -45 58q-137 29 -138 77q0 29 68 29q20 0 47 -2q-4 0 106.5 5 t192.5 5q266 0 266 -57q0 -47 -102 -47q-154 -20 -328 -236l-239 -342l268 -249q160 -129 322 -144q162 0 161 -59q0 -59 -393 -60q-186 0 -332 17q-154 16 -153 43q0 53 94 55h18q49 0 50 16q0 35 -187 195q-289 -332 -655 -332q-240 0 -414 141.5t-174 327.5zM279 508 q0 -150 130 -268.5t304 -118.5q256 0 452 260q-317 264 -532 498q-354 -119 -354 -371zM612 1389q0 -74 54 -166q39 -68 98 -133q53 -57 53 -50q248 123 248 303q0 141 -131 211q-135 70 -256 -28q-66 -55 -66 -137z" />
<glyph unicode="'" horiz-adv-x="614" d="M74 1542q-14 14 0 41l166 166h20l176 -166q27 -33 27 -117q0 -184 -96 -346l-58 21q14 68 15 108q0 45 -23 76q-6 10 -61 61z" />
<glyph unicode="(" horiz-adv-x="620" d="M45 799q0 242 114.5 455.5t313.5 349.5q51 35 82 34q18 0 18 -14q0 -23 -47 -65q-156 -139 -239.5 -337t-83.5 -415q0 -467 338 -774q37 -33 37 -51q0 -16 -29 -17q-27 0 -113 60q-184 129 -287.5 336t-103.5 438z" />
<glyph unicode=")" horiz-adv-x="708" d="M70 -18q0 18 34 51q340 307 340 774q0 217 -84 414.5t-239 337.5q-47 43 -47 65q0 14 18 14q31 0 80 -34q201 -135 315.5 -349.5t114.5 -455.5q0 -231 -103.5 -438t-287.5 -336q-86 -59 -113 -60q-28 1 -28 17z" />
<glyph unicode="*" horiz-adv-x="1032" d="M-37 913q0 78 84 78q74 0 236 -69q195 -86 200 -88q-2 25 -32 145q-27 113 -27 172q0 125 108 125q94 0 95 -117q0 -61 -31 -180q-33 -129 -35 -156l199 92q158 68 235 68q86 0 86 -80t-196 -110l-293 -37l184 -138q129 -102 129 -167q0 -35 -30.5 -62t-63.5 -27 q-74 0 -164 152l-125 211l-119 -211q-94 -147 -170 -147q-33 0 -62.5 23.5t-29.5 55.5q0 63 131 175l183 145l-287 33q-205 34 -205 114z" />
<glyph unicode="+" horiz-adv-x="749" d="M-29 633v94h369v369h94v-369h369v-94h-369v-369h-94v369h-369z" />
<glyph unicode="," horiz-adv-x="647" d="M80 37q-12 14 0 41l168 166h18l178 -166q25 -33 25 -117q0 -184 -94 -346l-60 20q16 68 17 109q0 45 -23 76q-8 10 -61 61z" />
<glyph unicode="-" horiz-adv-x="800" d="M-25 633v94h832v-94h-832z" />
<glyph unicode="." horiz-adv-x="634" d="M86 37q-14 14 0 31l166 176h31l166 -176q14 -16 0 -31l-166 -156q-20 -18 -21 0z" />
<glyph unicode="/" horiz-adv-x="1345" d="M111 0q0 92 1030 1638q16 33 55 33q51 0 51 -41q0 -10 -6 -22l-502 -828q-514 -819 -608 -819q-20 0 -20 39z" />
<glyph unicode="0" horiz-adv-x="1433" d="M57 731q0 344 154 572q176 262 504 262q313 0 471 -226q137 -195 137 -520q0 -338 -149 -575q-178 -279 -498 -279q-174 0 -334 98q-150 92 -223 295q-62 166 -62 373zM324 750q0 -502 215 -648q72 -49 147 -49q211 0 307 275q66 188 66 452q0 266 -60 437 q-90 260 -303 260q-166 0 -274 -179q-98 -157 -98 -548z" />
<glyph unicode="1" horiz-adv-x="823" d="M47 1325l531 274q37 18 57 19q33 0 33 -47q0 23 -13 -109q-33 -371 -32 -714q0 -375 43 -601q8 -23 51 -34q31 -10 88 -17q74 -8 76 -8l-29 -88q-176 23 -334 23q-156 0 -334 -23l-18 88l129 16q94 16 106 54q27 78 27 473q0 264 -12.5 502.5t-24.5 230.5q-6 -6 -235 -98 z" />
<glyph unicode="2" horiz-adv-x="1343" d="M51 78l363 309q236 207 358 371q162 217 162 399q0 117 -98 180q-82 55 -207 56q-164 0 -242 -60q-55 -43 -131 -186l-98 -19q0 193 186 324q168 117 365 117q188 0 319 -82q160 -98 160 -281q0 -244 -373 -598q-274 -262 -510 -432h707q88 0 125 105q23 59 22 131h60 q0 -346 -41 -412h-1098z" />
<glyph unicode="3" horiz-adv-x="1202" d="M-41 162q0 47 39 72.5t88 25.5q63 0 116 -52l101 -102q72 -53 176 -53q197 0 336 109q154 119 154 313q0 150 -107 234q-96 74 -248 73q-57 0 -116 -12l-49 -10l-29 69l59 39q117 53 205 140q109 106 109 213q0 88 -78 137q-68 39 -168 39q-123 0 -195 -54 q-59 -45 -98 -141l-98 -20q0 174 182 282q154 90 338 90q139 0 233 -53q119 -66 119 -192q0 -180 -274 -363q205 -16 327 -102q154 -104 154 -299q0 -285 -270 -445q-225 -135 -525 -135q-147 0 -282 35q-199 53 -199 162z" />
<glyph unicode="4" horiz-adv-x="1357" d="M37 520l883 1059l69 -29v-913h285v-166h-285v-324q0 -37 88 -47l127 -12l-20 -88q-176 14 -314 14q-137 0 -313 -14l-20 88l88 10q66 6 100 17q47 16 47 43v313h-706zM272 637h500v600z" />
<glyph unicode="5" horiz-adv-x="1130" d="M-25 131q0 49 39 73.5t88 24.5q86 0 132.5 -66.5t80.5 -88.5q49 -31 131 -31q199 0 336 119q145 125 146 323q0 172 -131 265q-113 80 -291 79q-172 0 -334 -90l-80 41l115 750h776q39 -39 39 -383h-49q0 63 -21 125q-37 100 -116 100h-510l-45 -426q162 49 282 49 q242 0 408 -100q201 -119 200 -342q0 -281 -239 -444q-211 -143 -506 -144q-145 0 -268 29q-183 45 -183 137z" />
<glyph unicode="6" horiz-adv-x="1198" d="M37 594q0 344 239 614q221 246 566 357l49 -70q-274 -106 -440 -373q-158 -256 -158 -559q0 -207 84 -348q102 -172 297 -172q168 0 256 119q78 106 78 274q0 180 -80 285q-88 117 -262 117q-109 0 -168 -58l-29 78q123 109 313 109q203 0 337 -125t134 -328 q0 -244 -172 -399q-164 -150 -407 -150q-285 0 -461 174t-176 455z" />
<glyph unicode="7" horiz-adv-x="995" d="M-31 1128q0 336 39 402h1059l-745 -1421q-78 -147 -140 -148q-41 0 -41 57q0 47 33 109l657 1227l-665 -11q-80 -2 -119 -98l-29 -117h-49z" />
<glyph unicode="8" horiz-adv-x="1226" d="M-4 377q0 289 383 422q-305 137 -305 354q0 203 190 315q158 96 379 97q188 0 318 -72q164 -88 163 -262q0 -242 -323 -363q391 -145 391 -432q0 -225 -195 -356q-170 -115 -403 -115q-231 0 -395 88q-203 111 -203 324zM203 387q0 -162 112 -252q104 -82 269 -82 q160 0 266 82q117 88 117 242q0 145 -174 246q-45 25 -306 127q-125 -39 -202 -129q-82 -101 -82 -234zM291 1231q0 -201 401 -324q236 100 236 314q0 125 -99 198q-88 68 -215 68q-123 0 -217 -66q-106 -73 -106 -190z" />
<glyph unicode="9" horiz-adv-x="1363" d="M53 1001q0 254 183 414q172 150 428 150q297 0 468 -169t171 -462q0 -391 -252 -664q-233 -252 -629 -344l-88 68q336 88 526.5 330.5t190.5 590.5q0 223 -80 377q-102 195 -307 195q-178 0 -283 -135q-96 -121 -96 -301q0 -168 92 -279q100 -119 268 -119q129 0 193 49 v-106q-109 -70 -291 -70q-215 0 -354.5 131t-139.5 344z" />
<glyph unicode=":" horiz-adv-x="544" d="M76 37q-14 14 0 31l166 176h30l166 -176q14 -16 0 -31l-166 -156q-20 -18 -20 0zM76 578q-14 12 0 28l166 176h30l166 -176q14 -16 0 -28l-166 -158q-20 -18 -20 0z" />
<glyph unicode=";" horiz-adv-x="528" d="M72 37q-14 14 0 41l166 166h20l176 -166q27 -33 27 -117q0 -184 -94 -346l-60 20q16 68 17 109q0 45 -25 76q-6 10 -61 61zM72 578q-14 12 0 28l166 176h30l166 -176q14 -16 0 -28l-166 -158q-20 -18 -20 0z" />
<glyph unicode="=" horiz-adv-x="770" d="M-29 444v95h832v-95h-832zM-29 633v94h832v-94h-832z" />
<glyph unicode="?" horiz-adv-x="815" d="M-2 1266q0 174 182 282q156 90 338 90q139 0 236 -53q117 -66 116 -192q0 -115 -136 -265.5t-304 -234.5l10 -531h-69l-109 551l60 39q117 53 204 140q109 106 109 213q0 88 -78 137q-68 39 -166 39q-125 0 -196 -54q-57 -45 -99 -141zM215 37q-16 14 0 31l166 176h31 l166 -176q14 -16 0 -31l-166 -156q-20 -18 -21 0z" />
<glyph unicode="@" horiz-adv-x="2031" d="M53 776q0 176 92 363q129 256 359 385q203 117 459 116q369 0 670.5 -213t301.5 -487q0 -248 -276 -453q-53 -39 -184 -92q-160 -66 -256 -65q-109 0 -109 88q0 129 31 225q25 72 37 72q0 -14 -60 -76q-84 -88 -231 -190q-162 -115 -262 -115q-127 0 -127 162 q0 137 92 309q98 184 250 301q176 135 374 135q59 0 119 -12q23 66 62 65q8 0 34.5 -2t49 -2t22.5 -41q0 -59 -99 -353t-99 -394q0 -90 61 -90q45 0 123 47q313 186 313 459q0 242 -231 432q-238 190 -549 190q-297 0 -549 -188q-291 -219 -291 -508q0 -297 275.5 -532.5 t621.5 -235.5q408 0 682 352h133q-143 -215 -376 -326q-213 -102 -469 -102q-393 0 -685 213q-309 227 -309 563zM655 545q0 -68 50 -68q141 0 350 232q209 225 209 366q0 80 -93 84q-174 0 -352 -244q-164 -220 -164 -370z" />
<glyph unicode="A" horiz-adv-x="1945" d="M31 0v59q123 0 192 74q51 55 105 193l434 1144q-33 94 -217 109v59q147 -20 403 -20q297 0 395 20v-59q-195 0 -227 -129l483 -1212q39 -96 103 -136q55 -35 164 -43v-59q-217 20 -344 20q-109 0 -346 -20v59q180 10 180 99q0 41 -33 108l-127 365h-623l-108 -285 q-37 -96 -37 -153q0 -133 244 -134v-59q-276 20 -344 20q-80 0 -297 -20zM604 731h543l-287 711z" />
<glyph unicode="B" horiz-adv-x="1398" d="M0 0v59q135 0 178 27q59 37 60 160v1165q0 111 -72 143q-31 14 -166 25v59q118 -16 248 -15q76 0 158 5q127 8 223 8q655 0 655 -372q0 -156 -143 -258q-115 -82 -293 -117q244 -18 401 -111q201 -119 201 -334q0 -444 -760 -444q-137 0 -235 10q-297 0 -455 -10z M504 365q0 -160 28 -209q43 -76 199 -76q193 0 305 78q137 98 138 276q0 406 -562 406h-108v-475zM504 907h78q426 0 426 346q0 305 -416 306h-88v-652z" />
<glyph unicode="C" horiz-adv-x="1699" d="M6 815q0 393 332 637q301 219 715 219q289 0 618 -119q16 -168 29 -340h-60q-102 379 -567 379q-326 0 -547 -194q-231 -203 -231 -523q0 -336 227 -577q231 -250 570 -250q207 0 352 98q160 106 196 301l70 -20l-70 -340q-285 -119 -618 -119q-412 0 -698 215 q-318 236 -318 633z" />
<glyph unicode="D" horiz-adv-x="1906" d="M-6 0v59q133 0 178 29q59 31 59 158v1165q0 106 -71 139q-37 18 -166 29v59q74 -10 424 -10q55 0 121.5 5t85.5 5q477 0 794 -163q410 -211 410 -646q0 -440 -377 -655q-303 -174 -776 -174q-51 0 -154.5 5t-152.5 5q-66 0 -192 -5t-183 -5zM487 385q0 -172 48 -235 q57 -70 219 -70q348 0 561 182q229 195 229 537q0 383 -282 583q-248 176 -646 177h-129v-1174z" />
<glyph unicode="E" horiz-adv-x="1439" d="M-68 10v60q129 0 174 26q63 39 64 160v1137q0 119 -68 157q-47 29 -170 29v59q206 -12 374 -12q63 0 120 2h305q72 0 266.5 5t317.5 5q14 -199 119 -346l-70 -18q-76 176 -221 239q-111 45 -332 46q-209 0 -266 -21q-119 -45 -119 -215v-416h336l69 70q6 8 9 8 q4 -2 10 -8l108 -109q8 -8 9 -10q-2 -2 -9 -10l-108 -109h-19l-69 70h-336v-494q0 -168 119 -209q49 -18 266 -18q227 0 332 43q145 61 221 244l70 -21q-104 -162 -119 -354q-123 0 -317.5 5t-266.5 5l-305 10q-58 2 -120 2q-168 0 -374 -12z" />
<glyph unicode="F" horiz-adv-x="1400" d="M-49 0v59q127 0 172 27q66 39 65 160v1136q0 119 -67 158q-47 29 -170 29v59q122 -14 305 -13q92 0 199 3h295l583 20q29 -201 119 -364l-70 -10q-76 176 -221 239q-111 47 -332 47q-195 0 -239 -12q-123 -35 -135 -176v-463h325l70 68q8 10 18 0l109 -109q8 -6 8 -10 l-8 -8l-109 -109q-10 -10 -18 0l-59 60h-336v-426q0 -174 28 -228q43 -78 199 -78v-59q-53 0 -164.5 10t-171.5 10q-63 0 -194 -10t-201 -10z" />
<glyph unicode="G" horiz-adv-x="1818" d="M16 815q0 393 326 637q295 219 700 219q274 0 678 -119l39 -329h-59q-41 199 -234 297q-158 82 -383 82q-338 0 -553 -213t-215 -555q0 -330 220.5 -558.5t547.5 -228.5q219 0 369 90v348q0 104 -72 136q-31 14 -168 24v60q174 -6 293 -15q81 -5 81 -6h-5q12 0 113 6 l256 15v-60q-145 0 -192.5 -52t-47.5 -198v-209l49 -39v-51q-387 -129 -737 -129q-426 0 -700 207q-306 229 -306 641z" />
<glyph unicode="H" horiz-adv-x="2166" d="M-14 0v59q123 0 168 29q61 41 61 160v1171q0 106 -68 142q-35 18 -161 28v49q164 -6 284 -14q85 -5 85 -6h-3q59 0 184.5 10t184.5 10v-49q-147 -8 -193.5 -58t-46.5 -200v-428h1094v516q0 113 -68 146q-31 14 -172 24v49q68 0 189 -10t180 -10t178 10t178 10v-49 q-137 -8 -182 -63.5t-45 -194.5v-1083q0 -117 61 -158q47 -31 166 -31v-59q-53 0 -162.5 10t-164.5 10q-63 0 -194.5 -10t-203.5 -10v59q125 0 172 29q68 41 68 160v547h-1094v-457q0 -160 33 -211q45 -68 197 -68l10 -59q-55 0 -169 10t-169 10q-66 0 -198.5 -10 t-198.5 -10z" />
<glyph unicode="I" horiz-adv-x="890" d="M51 0v59q123 0 172 29q66 41 66 160v1171q0 106 -70 142q-39 18 -168 28v49q231 -10 367 -10h36q118 0 332 10v-49q-143 -8 -191 -59t-48 -199v-993q0 -162 39 -213q45 -66 200 -66v-59q-53 0 -164.5 10t-172.5 10q-63 0 -194.5 -10t-203.5 -10z" />
<glyph unicode="J" horiz-adv-x="704" d="M-59 -238q154 0 235 170q61 131 62 297v1190q0 111 -80 146q-33 12 -178 24v49q76 0 219 -10t219 -10q53 0 167.5 10t170.5 10v-49q-160 -8 -209 -56t-49 -202v-923q0 -705 -557 -705v59z" />
<glyph unicode="K" horiz-adv-x="1787" d="M-20 0v59q123 0 172 29q66 41 65 160v1171q0 106 -70 142q-39 18 -167 28v49q76 0 217 -10t209 -10q57 0 158.5 10t150.5 10v-49q-147 -8 -193.5 -58t-46.5 -200v-1083q0 -119 68 -160q47 -29 172 -29v-59q-55 0 -169 10t-169 10q-63 0 -194 -10t-203 -10zM485 815 l645 594q86 78 87 115q0 49 -156 65v49q260 -20 309 -20t307 20v-49q-213 -16 -407 -188l-545 -488l684 -655q209 -199 369 -199v-59q-113 14 -224 14t-215 -14z" />
<glyph unicode="L" horiz-adv-x="1480" d="M-18 70q160 0 208 48t48 197v1106q0 104 -70 140q-39 18 -166 28v49q68 0 211 -10t213 -10q49 0 152.5 10t152.5 10v-49q-145 -8 -190 -57t-45 -199v-987q0 -156 92 -209q70 -39 241 -39q260 0 355 33q170 57 229 254l70 -20l-101 -365l-858 20q-59 0 -532 -20z" />
<glyph unicode="M" horiz-adv-x="2652" d="M-18 0v59q297 0 297 385v889q0 137 -35 187q-41 59 -174 59v59q203 -12 278 -12q28 0 39 2q98 0 137 10l742 -256l729 256q39 -10 157 -10q11 -2 39 -2q75 0 277 12v-59q-133 0 -172 -53q-35 -45 -35 -193v-889q0 -385 297 -385v-59q-70 0 -203 10t-203 10 q-76 0 -216 -10t-207 -10v59q174 0 225 58.5t51 247.5v1126l-623 -207v-948q0 -154 41 -209q49 -68 197 -68v-59q-53 0 -163.5 10t-172.5 10q-63 0 -193 -10t-202 -10v59q123 0 172 29q66 39 65 158v1046l-591 199v-1126q0 -182 51 -244t225 -62v-59q-68 0 -209 10t-215 10 q-63 0 -199 -10t-206 -10z" />
<glyph unicode="N" horiz-adv-x="2076" d="M-51 0v59q297 0 297 385v889q0 143 -35 189q-41 57 -174 57v59l455 -10v-325l927 335q25 0 79 -5t79 -5q10 -2 39 -2q77 0 287 12v-59q-135 0 -176 -50t-41 -196v-889q0 -385 296 -385v-59q-63 0 -198 10t-207 10q-70 0 -212 -10t-212 -10v59q184 0 233 64q43 53 44 242 v1126l-938 -326v-800q0 -186 55 -246t231 -60v-59q-68 0 -209 10t-215 10q-63 0 -199 -10t-206 -10z" />
<glyph unicode="O" horiz-adv-x="2021" d="M43 823q0 373 293 615q270 225 643 233h27q354 0 628 -209q303 -233 322 -598q1 -23 1 -45q0 -359 -278 -606q-276 -246 -659 -246h-26q-370 0 -646 223q-305 248 -305 633zM322 885q0 -328 206 -572q217 -256 541 -256q299 0 471 211q156 190 156 480q0 268 -140 495 q-86 152 -264 242q-168 86 -352 86q-274 0 -451 -209q-167 -198 -167 -477zM883 815q0 2 6 8l110 111q8 8 11 8q2 -2 10 -8l108 -111q8 -6 9 -8q-2 -4 -9 -10l-108 -111h-21l-110 111q-2 4 -6 10z" />
<glyph unicode="P" horiz-adv-x="1212" d="M-45 0v59q123 0 172 29q66 41 66 160v1171q0 106 -70 142q-39 18 -168 28v49q51 0 147.5 -5t141.5 -5q59 0 178 5t178 5q274 0 451 -86q236 -115 235 -360q0 -236 -201 -365q-170 -113 -415 -112h-219v-377q0 -160 43 -213q51 -66 206 -66l-10 -59q-53 0 -164.5 10 t-173.5 10q-63 0 -194 -10t-203 -10zM451 784h180q176 0 276.5 103.5t100.5 283.5q0 199 -138 304q-123 94 -329 94h-90v-785z" />
<glyph unicode="Q" horiz-adv-x="2015" d="M37 803q0 360 291 598q268 221 633 227h26q346 0 615 -203q297 -227 313 -583q1 -19 1 -38q0 -215 -108 -396q-109 -180 -303 -297l49 -58q139 -133 246 -133q94 0 232 105l39 -39l-351 -283l-39 29q2 8 2 16q0 81 -139 207l-117 108q-203 -94 -428 -98h-20 q-366 0 -639 219q-303 242 -303 619zM319 860q0 -319 199 -557q211 -250 520 -250q190 0 322 88l-107 107q-137 137 -245 137q-92 0 -232 -98l-39 39l350 282l39 -39q-1 -7 -1 -14q0 -73 128 -201l174 -174q227 184 228 547q0 264 -129 483q-92 150 -266 238 q-166 84 -347 84q-262 0 -432 -205q-162 -195 -162 -467z" />
<glyph unicode="R" horiz-adv-x="1818" d="M-35 0v59q123 0 170 29q68 39 68 158v1165q0 106 -72 139q-37 18 -166 29v59q65 -16 210 -15q84 0 196 5q198 9 198 10h-2q770 0 770 -413q0 -285 -374 -406l335 -444q272 -315 443 -316v-59q-190 18 -190 20h3q-8 0 -73 -6q-88 -8 -164 -14q-203 172 -612 770 q-45 0 -126 5t-120 5v-444q0 -156 37 -209q47 -68 200 -68v-59q-55 0 -168.5 10t-167.5 10q-66 0 -199 -10t-196 -10zM459 868q80 -20 137 -20q195 0 324 82q152 96 151 274q0 354 -483 355q-80 0 -129 -9v-682z" />
<glyph unicode="S" horiz-adv-x="1138" d="M-25 406h70q106 -348 418 -349q154 0 256 76q113 84 112 234q0 121 -151 237q-74 55 -256 149.5t-266 176.5q-123 123 -123 282q0 229 180 353q158 106 397 106q121 0 330 -31l39 -299h-59q-45 260 -338 261q-129 0 -226 -72q-104 -80 -104 -207q0 -150 141 -258 q66 -51 279 -152q190 -90 276 -170q131 -121 131 -288q0 -233 -211 -371q-180 -117 -426 -117q-229 0 -409 90z" />
<glyph unicode="T" horiz-adv-x="1804" d="M-2 1204l59 494h60q45 -59 276 -60h355v129q0 98 -70 131q-37 16 -166 27v60l365 -21q-14 0 364 21v-60q-139 0 -187 -52t-48 -196v-39h385q231 0 274 60h51l58 -494h-58q-31 201 -114.5 273.5t-290.5 72.5h-305v-1196q0 -176 38 -229q51 -66 228 -66l-10 -59l-406 20 q-11 0 -23 1q-61 0 -159 -9q-131 -12 -182 -12v59q137 0 184 23q72 39 72 164v1304h-277q-207 0 -291 -72.5t-112 -273.5h-70z" />
<glyph unicode="U" horiz-adv-x="1699" d="M-47 1587v49q59 0 174 -5t174 -5t174 5t174 5v-49q-141 0 -188 -86q-31 -59 -31 -213v-557q0 -676 449 -676q436 0 436 676v557q0 160 -25 213q-43 86 -184 86v49q55 0 172 -5t176 -5q61 0 175 5t173 5v-49q-145 0 -192 -67q-35 -51 -35 -201v-688q0 -666 -696 -666 q-707 0 -707 666v688q0 152 -31 201q-43 67 -188 67z" />
<glyph unicode="V" horiz-adv-x="2002" d="M20 1589v49q272 -11 387 -10h33q49 0 293 10v-49q-92 -6 -129 -20q-43 -20 -43 -64q0 -35 25 -92l479 -1091l399 907q78 176 78 231q0 117 -205 129v49q78 -10 353 -10q106 0 213 10v-49q-100 0 -185 -119q-41 -57 -108 -202l-576 -1268h-96l-604 1317q-121 258 -314 272 z" />
<glyph unicode="W" horiz-adv-x="2764" d="M20 1589v49q272 -11 387 -10h33q49 0 293 10v-49q-92 -6 -127 -20q-45 -20 -45 -64q0 -35 27 -92l477 -1091l254 585v127q0 98 -70 133q-47 23 -164 23v59l361 -20q-14 0 360 20v-59q-137 0 -185 -51.5t-48 -192.5v-39l252 -585l401 907q78 176 78 231q0 117 -205 129v49 q78 -10 350 -10q109 0 215 10v-49q-100 0 -182 -121q-27 -41 -100 -200l-586 -1268h-96l-332 731l-332 -731h-98l-604 1317q-119 258 -314 272z" />
<glyph unicode="X" horiz-adv-x="2072" d="M31 0v59q225 16 366 179l498 567l-557 645q-92 106 -287 139v49q317 -20 346 -20q-20 0 398 20v-49q-170 -8 -170 -69q0 -43 90 -150l338 -397l288 327q129 147 129 201q0 70 -159 88v49q166 -10 278 -20h-5q0 1 81 6q119 8 291 14v-49q-238 -16 -436 -239l-398 -447 l488 -575q113 -135 168 -181q109 -88 219 -88v-59l-289 10l-397 -10v59q137 0 137 56q0 37 -57 104l-437 496l-379 -447q-78 -94 -77 -139q0 -70 188 -70v-59q-170 10 -358 10q-248 0 -297 -10z" />
<glyph unicode="Y" horiz-adv-x="1720" d="M16 1589v49l318 -20q11 -1 26 -1q95 0 371 21v-49q-152 0 -151 -57q0 -37 61 -113l397 -485l387 436q74 84 74 135q0 84 -192 84v49q45 0 134 -5t134 -5t134 5t134 5v-49q-119 -14 -289 -219l-446 -536v-467q0 -186 33 -236q47 -72 225 -72v-59q-238 20 -367 20 q-70 0 -209 -10t-208 -10v59q162 0 210 39t48 191v516l-527 614q-143 170 -297 170z" />
<glyph unicode="Z" horiz-adv-x="1767" d="M25 0l1351 1552h-766q-190 0 -278 -45q-113 -57 -168 -223h-60l78 387h70q14 -25 86 -31h115h1312l-1333 -1550h647q246 0 361 51q154 68 235 267l60 -21l-119 -387h-1591z" />
<glyph unicode="\" horiz-adv-x="1359" d="M139 1630q0 41 51 41q37 0 54 -33q1032 -1546 1032 -1638q0 -39 -21 -39q-96 0 -610 819l-502 828q-4 12 -4 22z" />
<glyph unicode="a" horiz-adv-x="1462" d="M61 514q0 242 138.5 376t382.5 134q72 0 226.5 -19.5t233.5 -19.5q66 0 186 10.5t177 10.5v-50q-111 0 -156 -28q-61 -39 -59 -148l10 -540q2 -100 41 -142q47 -45 174 -45l-10 -59q-49 0 -146.5 10t-146.5 10q-82 0 -224.5 -24.5t-207.5 -24.5q-254 0 -430 146 q-189 155 -189 403zM276 524q0 -186 105 -323q111 -147 278 -148q143 0 226 84q80 78 80 201v412q0 96 -95 155q-84 51 -190 51q-182 0 -293 -123t-111 -309z" />
<glyph unicode="b" horiz-adv-x="1275" d="M-27 -6v49q111 0 154 25q61 35 61 141v1235q0 90 -63 121q-35 14 -152 24v49q209 -8 332 -10h32q103 0 300 10v-49q-131 -6 -173 -53t-42 -180v-455q162 117 391 117q217 0 361.5 -131t144.5 -346q0 -272 -169 -424t-445 -152q-70 0 -189 24.5t-182 24.5q-57 0 -176 -10 t-185 -10zM422 315q8 -137 70 -200q70 -72 223 -72q172 0 272 135q88 123 88 303q0 182 -94 310q-102 139 -276 139q-176 0 -283 -135v-480z" />
<glyph unicode="c" horiz-adv-x="1153" d="M33 504q0 244 203 391q182 133 444 139h6q129 0 387 -78q18 -176 19 -206h-29q-49 119 -141 165q-82 41 -232 41q-193 0 -312.5 -123.5t-119.5 -328.5q0 -211 120 -336t312 -125q150 0 232 41q92 47 141 166h29q0 -29 -19 -207q-258 -78 -387 -78h-6q-264 6 -444 139 q-203 150 -203 400z" />
<glyph unicode="d" horiz-adv-x="1251" d="M-25 541q0 215 144 348q137 129 354 129q229 0 389 -117v455q0 133 -42 180t-171 53v49q197 -11 299 -10h31q55 0 332 10v-49q-117 -10 -150 -24q-63 -31 -63 -121v-1235q0 -106 61 -141q43 -25 152 -25v-49q-63 0 -183 10t-178 10q-61 0 -181 -24.5t-189 -24.5 q-274 0 -437 150q-168 154 -168 426zM209 481q0 -180 90 -303q98 -135 270 -135q293 0 293 272v480q-106 135 -282 135q-172 0 -277 -139q-94 -128 -94 -310z" />
<glyph unicode="e" horiz-adv-x="1179" d="M45 504q0 244 203 391q182 133 444 139h7q129 0 386 -78q18 -176 19 -206h-29q-49 119 -141 165q-80 41 -221 41q-184 0 -306 -113.5t-137 -297.5h394l59 57h18l88 -98q10 0 0 -8l-88 -99h-18l-49 60h-393q8 -190 126.5 -302t305.5 -112q141 0 221 41q92 47 141 166h29 q0 -29 -19 -207q-258 -78 -386 -78h-7q-264 6 -444 139q-203 150 -203 400z" />
<glyph unicode="f" horiz-adv-x="821" d="M-25 0v49q135 8 181.5 52t46.5 175v740q0 623 483 622l-10 -59q-127 0 -193 -143q-53 -113 -53 -262v-375h227l58 59h20l88 -98q8 0 8 -4q-2 -6 -8 -6l-88 -99h-20l-49 60h-236v-514q0 -96 68 -125q25 -10 149 -23v-49q-66 0 -188.5 10t-186.5 10q-51 0 -149.5 -10 t-147.5 -10z" />
<glyph unicode="g" horiz-adv-x="1421" d="M45 520q0 238 142.5 376t379.5 138q80 0 238 -19.5t237 -19.5q57 0 178 9.5t187 9.5v-49q-115 0 -158 -27q-59 -39 -59 -150v-741q0 -651 -514 -651l10 59q133 0 207 154q59 121 59 270v158q-156 -68 -284 -68q-252 0 -430 146q-193 157 -193 405zM262 530 q0 -188 105 -325q113 -147 290 -148q137 0 216 79t79 208v414q0 96 -92 151q-80 45 -184 45q-188 0 -301 -118t-113 -306z" />
<glyph unicode="h" horiz-adv-x="1460" d="M-39 0v59q113 0 152 25q55 35 55 143v1215q0 96 -64 125q-25 12 -143 22v49q217 -10 336 -10q147 0 336 10v-49q-141 -8 -184 -51t-43 -176v-444q156 129 395 129q219 0 365.5 -133.5t146.5 -350.5v-248q0 -145 35 -194q43 -61 182 -62v-59q-55 0 -156.5 10t-148.5 10 q-66 0 -186.5 -10t-178.5 -10v59q111 0 152 25q55 35 55 143v277q0 182 -96 311q-104 141 -279 141q-150 0 -286 -137v-504q0 -145 34 -194q45 -61 193 -62l-10 -59q-49 0 -149.5 10t-158.5 10q-57 0 -176 -10t-178 -10z" />
<glyph unicode="i" horiz-adv-x="776" d="M47 0v59q115 0 158 25q59 35 59 143v602q0 100 -63 132q-39 18 -154 18v59q203 -10 336 -20q-10 0 336 20v-59q-131 0 -174 -46t-43 -181v-437q0 -150 35 -198q43 -57 182 -58v-59q-55 0 -156.5 10t-148.5 10q-66 0 -188 -10t-179 -10zM205 1434q-7 7 -7 14t7 14l168 168 q0 8 10 8t10 -8l168 -168q7 -7 7 -14t-7 -14l-168 -158h-20z" />
<glyph unicode="j" horiz-adv-x="696" d="M-23 -547q133 0 203 148q53 113 53 258v985q0 94 -67 121q-43 18 -160 18v49q66 0 194 -10t191 -10q51 0 147.5 10t139.5 10v-49q-133 0 -175 -42t-42 -175v-750q0 -623 -484 -622v59zM182 1434q-7 7 -7 14t7 14l168 168q0 8 10 8t11 -8l168 -168q8 -7 8 -14t-8 -14 l-168 -158h-21z" />
<glyph unicode="k" horiz-adv-x="1388" d="M-51 0v59q115 0 157 25q59 35 60 143v1215q0 96 -64 125q-27 12 -153 22v49q201 -8 336 -20q-10 2 336 20v-49q-135 -8 -176.5 -51t-41.5 -176v-1047q0 -145 35 -194q43 -61 183 -62v-59q-55 0 -157 10t-151 10q-66 0 -186.5 -10t-177.5 -10zM403 750l375 247 q82 53 82 95q0 55 -141 63v49q217 -20 266 -20t287 20v-49q-84 0 -179 -61l-188 -127l-256 -176l504 -553q162 -178 336 -179v-59q-104 14 -201 14q-98 0 -194 -14z" />
<glyph unicode="l" horiz-adv-x="632" d="M-23 1589v49q43 0 139.5 -10t147.5 -10q63 0 191.5 10t193.5 10v-49q-117 0 -157 -18q-70 -27 -70 -121v-985q0 -145 53 -258q72 -147 203 -148v-59q-483 0 -483 623v749q0 133 -42.5 175t-175.5 42z" />
<glyph unicode="m" horiz-adv-x="1994" d="M2 10v60q285 0 285 352v334q0 129 -33 172q-41 53 -174 53v49q92 0 192.5 -5t112.5 -5q49 10 127 10l461 -256l461 256q80 0 129 -10q12 0 109 5t183 5v-49q-125 0 -165 -57q-29 -43 -29 -168v-334q0 -352 285 -352v-60q-129 0 -383 29q-137 16 -138 313v551l-333 -186 v-383q0 -154 34 -203q45 -61 191 -61v-60q-53 0 -156.5 14.5t-156.5 14.5q-66 0 -188 -14.5t-185 -14.5v60q113 0 155 26q59 37 60 150v471l-324 186v-551q0 -297 -137 -313q-256 -29 -383 -29z" />
<glyph unicode="n" horiz-adv-x="1464" d="M2 10v60q119 0 160 24q55 33 55 142v598q0 98 -63 129q-39 18 -152 18v59q127 -20 285 -24q46 -1 80 -2q68 0 86 6v-236l452 246q78 0 127 -10q12 0 110.5 5t184.5 5v-49q-127 0 -166 -57q-31 -43 -31 -168v-334q0 -352 285 -352v-60q-127 0 -383 29q-137 16 -137 313 v551l-442 -246v-333q0 -150 34 -197q43 -57 183 -57v-60q-49 0 -152.5 9.5t-152.5 9.5q-57 0 -180.5 -9.5t-182.5 -9.5z" />
<glyph unicode="o" horiz-adv-x="1269" d="M-10 504q0 233 178 385q168 141 401 145h14q225 0 394 -131q190 -147 201 -379q1 -13 0 -25q0 -225 -170 -378q-170 -152 -410 -156h-13q-232 0 -405 144q-190 155 -190 395zM205 543q0 -199 114 -344q121 -156 299 -156q168 0 265 125q86 115 86 289q0 164 -76 303 q-51 88 -146.5 142t-197.5 54q-150 0 -247 -122.5t-97 -290.5z" />
<glyph unicode="p" horiz-adv-x="1341" d="M-23 -545q113 0 154 19q63 31 64 129v1185q0 111 -60 150q-43 27 -158 27v49q59 0 182.5 -9.5t182.5 -9.5q80 0 237.5 19.5t237.5 19.5q238 0 380 -138t142 -376q0 -248 -194 -405q-180 -145 -436 -146q-121 0 -277 68v-354q0 -135 42 -181.5t175 -46.5v-59 q-346 18 -336 20q-55 -6 -336 -20v59zM432 344q0 -129 79 -208t216 -79q178 0 291 148q104 137 104 325t-112.5 306t-300.5 118q-109 0 -187 -45q-90 -55 -90 -151v-414z" />
<glyph unicode="q" horiz-adv-x="1411" d="M45 520q0 238 139.5 376t382.5 138q74 0 229.5 -19.5t235.5 -19.5q66 0 186.5 9.5t178.5 9.5v-49q-111 0 -156 -29q-61 -39 -61 -148v-1185q0 -98 65 -129q39 -18 152 -19v-59q-201 8 -336 20q10 -2 -334 -20v59q137 0 181 46t44 182v354q-156 -68 -284 -68 q-256 0 -435 146q-188 157 -188 405zM262 530q0 -186 105 -325q111 -147 280 -148q145 0 225 79t80 208v414q0 96 -94 151q-82 45 -190 45q-190 0 -298 -117t-108 -307z" />
<glyph unicode="r" horiz-adv-x="743" d="M-14 10v49q135 6 180 50.5t45 175.5v559q0 98 -68 129q-43 18 -157 18v49q63 0 181 -10t181 -10v-117q111 137 344 137v-49q-131 0 -200 -145q-55 -115 -56 -258v-381q0 -98 68 -125q27 -12 149 -23v-49q-57 0 -183 9.5t-189 9.5q-49 0 -147.5 -9.5t-147.5 -9.5z" />
<glyph unicode="s" horiz-adv-x="851" d="M43 750q0 137 119 213q104 68 260 67q170 0 278 -74q20 -158 21 -206h-31q-43 96 -134 155.5t-179 59.5q-158 0 -158 -166q0 -133 148 -199l274 -106q147 -80 147 -244q0 -137 -129 -215q-113 -68 -280 -68q-182 0 -297 76q-4 63 -19 207h39q43 -96 146 -158 q94 -57 190 -57q174 0 174 166q0 100 -147 153q-248 88 -275 105q-147 92 -147 291z" />
<glyph unicode="t" horiz-adv-x="1234" d="M47 639l49 455h49q45 -59 248 -60h119v338q0 131 -46 174t-181 43v49q49 0 147 -10t148 -10q59 0 184 10t190 10v-49q-109 0 -149 -18q-68 -29 -68 -121v-416h101q201 0 245 60h50l49 -455h-49q-29 184 -109 249.5t-266 65.5h-21v-786q0 -143 54 -258q68 -147 194 -148 l10 -59q-483 0 -483 623v628h-41q-188 0 -266 -67.5t-109 -247.5h-49z" />
<glyph unicode="u" horiz-adv-x="1570" d="M-29 977v49q166 -23 332 -22q168 0 348 22v-49q-115 0 -159 -29q-59 -39 -60 -151v-281q0 -176 80 -309q92 -152 240 -152q147 0 233 152q78 131 78 309v281q0 111 -57 149q-43 31 -154 31v49q172 -23 340 -22q168 0 340 22v-49q-141 0 -184 -64q-35 -49 -35 -198v-260 q0 -489 -561 -490q-561 0 -562 490v260q0 150 -34 198q-44 64 -185 64z" />
<glyph unicode="v" horiz-adv-x="1345" d="M37 981v49q408 -18 393 -20q43 6 275 20v-49q-88 -6 -121 -20q-41 -16 -41 -58q0 -33 24 -88l215 -491l295 677q14 0 101 11q111 14 153 18v-49q-94 0 -174 -111q-35 -53 -100 -192l-303 -668h-88l-334 715q-113 242 -295 256z" />
<glyph unicode="w" horiz-adv-x="1896" d="M37 981v49l393 -20h-2q0 1 66 6q90 8 211 14v-49q-90 -6 -125 -20q-41 -18 -41 -64q0 -31 18 -82l225 -491l295 677q14 0 99 11q100 14 155 18v-49q-117 0 -215 -176l215 -481l295 677q23 0 107 11q109 14 149 18v-49q-96 0 -174 -111q-37 -53 -102 -192l-303 -668h-89 l-235 500l-225 -500h-99l-323 715q-109 240 -295 256z" />
<glyph unicode="x" horiz-adv-x="1609" d="M35 10v60q166 0 334 166l313 313l-246 256q-174 182 -362 196v50q236 -20 284 -21q39 0 275 21v-50q-133 -8 -133 -51q0 -33 73 -116l179 -197l204 207q76 74 76 106q0 43 -133 51v58q176 -29 373 -29q49 0 284 21v-50q-176 -14 -344 -196l-235 -256l303 -313 q162 -166 315 -166v-60q-104 14 -200 15q-96 0 -193 -15l-373 402l-393 -402q-94 14 -196 15q-103 -1 -205 -15z" />
<glyph unicode="y" horiz-adv-x="1564" d="M-31 985l11 49q162 -23 325 -22q166 0 336 22v-49q-111 0 -154 -31q-53 -37 -53 -147v-287q0 -164 78 -295q88 -147 227 -147q145 0 236 147q80 131 80 295v287q0 111 -56 147q-43 31 -151 31v49q162 -23 330 -22q168 0 331 22l11 -49q-147 0 -193 -61q-35 -47 -35 -180 v-15l11 -711v-19q0 -603 -494 -603l8 59q133 0 199 148q49 109 49 258v196q-125 -70 -315 -69q-553 0 -553 483v258q0 145 -37 195q-46 61 -191 61z" />
<glyph unicode="z" horiz-adv-x="1409" d="M27 715l71 346h62q12 -25 76 -31h106h991l-878 -948h307q217 0 321 47q137 61 209 238l62 -21l-113 -346h-1184l889 948h-461q-174 0 -252 -37q-102 -49 -145 -196h-61z" />
<glyph unicode="&#xa0;" />
<glyph unicode="&#xaa;" horiz-adv-x="1462" d="M61 514q0 242 138.5 376t382.5 134q72 0 226.5 -19.5t233.5 -19.5q66 0 186 10.5t177 10.5v-50q-111 0 -156 -28q-61 -39 -59 -148l10 -540q2 -100 41 -142q47 -45 174 -45l-10 -59q-49 0 -146.5 10t-146.5 10q-82 0 -224.5 -24.5t-207.5 -24.5q-254 0 -430 146 q-189 155 -189 403zM276 524q0 -186 105 -323q111 -147 278 -148q143 0 226 84q80 78 80 201v412q0 96 -95 155q-84 51 -190 51q-182 0 -293 -123t-111 -309z" />
<glyph unicode="&#xad;" horiz-adv-x="800" d="M-25 633v94h832v-94h-832z" />
<glyph unicode="&#xb2;" horiz-adv-x="1343" d="M51 78l363 309q236 207 358 371q162 217 162 399q0 117 -98 180q-82 55 -207 56q-164 0 -242 -60q-55 -43 -131 -186l-98 -19q0 193 186 324q168 117 365 117q188 0 319 -82q160 -98 160 -281q0 -244 -373 -598q-274 -262 -510 -432h707q88 0 125 105q23 59 22 131h60 q0 -346 -41 -412h-1098z" />
<glyph unicode="&#xb3;" horiz-adv-x="1202" d="M-41 162q0 47 39 72.5t88 25.5q63 0 116 -52l101 -102q72 -53 176 -53q197 0 336 109q154 119 154 313q0 150 -107 234q-96 74 -248 73q-57 0 -116 -12l-49 -10l-29 69l59 39q117 53 205 140q109 106 109 213q0 88 -78 137q-68 39 -168 39q-123 0 -195 -54 q-59 -45 -98 -141l-98 -20q0 174 182 282q154 90 338 90q139 0 233 -53q119 -66 119 -192q0 -180 -274 -363q205 -16 327 -102q154 -104 154 -299q0 -285 -270 -445q-225 -135 -525 -135q-147 0 -282 35q-199 53 -199 162z" />
<glyph unicode="&#xb9;" horiz-adv-x="823" d="M47 1325l531 274q37 18 57 19q33 0 33 -47q0 23 -13 -109q-33 -371 -32 -714q0 -375 43 -601q8 -23 51 -34q31 -10 88 -17q74 -8 76 -8l-29 -88q-176 23 -334 23q-156 0 -334 -23l-18 88l129 16q94 16 106 54q27 78 27 473q0 264 -12.5 502.5t-24.5 230.5q-6 -6 -235 -98 z" />
<glyph unicode="&#xba;" horiz-adv-x="1269" d="M-10 504q0 233 178 385q168 141 401 145h14q225 0 394 -131q190 -147 201 -379q1 -13 0 -25q0 -225 -170 -378q-170 -152 -410 -156h-13q-232 0 -405 144q-190 155 -190 395zM205 543q0 -199 114 -344q121 -156 299 -156q168 0 265 125q86 115 86 289q0 164 -76 303 q-51 88 -146.5 142t-197.5 54q-150 0 -247 -122.5t-97 -290.5z" />
<glyph unicode="&#x152;" horiz-adv-x="3461" d="M1953 10v60q129 0 174 26q63 39 64 160v1137q0 119 -68 157q-47 29 -170 29v59q206 -12 374 -12q63 0 120 2h305q72 0 266.5 5t317.5 5q14 -199 119 -346l-70 -18q-76 176 -221 239q-111 45 -332 46q-209 0 -266 -21q-119 -45 -119 -215v-416h336l69 70q6 8 9 8 q4 -2 10 -8l108 -109q8 -8 9 -10q-2 -2 -9 -10l-108 -109h-19l-69 70h-336v-494q0 -168 119 -209q49 -18 266 -18q227 0 332 43q145 61 221 244l70 -21q-104 -162 -119 -354q-123 0 -317.5 5t-266.5 5l-305 10q-58 2 -120 2q-168 0 -374 -12zM43 823q0 373 293 615 q270 225 643 233h27q354 0 628 -209q303 -233 322 -598q1 -23 1 -45q0 -359 -278 -606q-276 -246 -659 -246h-26q-370 0 -646 223q-305 248 -305 633zM322 885q0 -328 206 -572q217 -256 541 -256q299 0 471 211q156 190 156 480q0 268 -140 495q-86 152 -264 242 q-168 86 -352 86q-274 0 -451 -209q-167 -198 -167 -477zM883 815q0 2 6 8l110 111q8 8 11 8q2 -2 10 -8l108 -111q8 -6 9 -8q-2 -4 -9 -10l-108 -111h-21l-110 111q-2 4 -6 10z" />
<glyph unicode="&#x153;" horiz-adv-x="2449" d="M1315 504q0 244 203 391q182 133 444 139h7q129 0 386 -78q18 -176 19 -206h-29q-49 119 -141 165q-80 41 -221 41q-184 0 -306 -113.5t-137 -297.5h394l59 57h18l88 -98q10 0 0 -8l-88 -99h-18l-49 60h-393q8 -190 126.5 -302t305.5 -112q141 0 221 41q92 47 141 166h29 q0 -29 -19 -207q-258 -78 -386 -78h-7q-264 6 -444 139q-203 150 -203 400zM-10 504q0 233 178 385q168 141 401 145h14q225 0 394 -131q190 -147 201 -379q1 -13 0 -25q0 -225 -170 -378q-170 -152 -410 -156h-13q-232 0 -405 144q-190 155 -190 395zM205 543 q0 -199 114 -344q121 -156 299 -156q168 0 265 125q86 115 86 289q0 164 -76 303q-51 88 -146.5 142t-197.5 54q-150 0 -247 -122.5t-97 -290.5z" />
<glyph unicode="&#x2013;" d="M205 512v205h614v-205h-614z" />
<glyph unicode="&#x2014;" horiz-adv-x="2048" d="M205 512v205h1638v-205h-1638z" />
<glyph unicode="&#x2019;" horiz-adv-x="614" d="M74 1542q-14 14 0 41l166 166h20l176 -166q27 -33 27 -117q0 -184 -96 -346l-58 21q14 68 15 108q0 45 -23 76q-6 10 -61 61z" />
<glyph unicode="&#x201c;" horiz-adv-x="1089" d="M74 1542q-14 14 0 41l166 166h20l176 -166q27 -33 27 -117q0 -184 -96 -346l-58 21q14 68 15 108q0 45 -23 76q-6 10 -61 61zM549 1542q-12 14 0 41l168 166h18l176 -166q27 -33 27 -117q0 -184 -94 -346l-60 21q16 68 17 108q0 45 -23 76q-8 10 -61 61z" />
<glyph unicode="&#x201d;" horiz-adv-x="1089" d="M74 1542q-14 14 0 41l166 166h20l176 -166q27 -33 27 -117q0 -184 -96 -346l-58 21q14 68 15 108q0 45 -23 76q-6 10 -61 61zM549 1542q-12 14 0 41l168 166h18l176 -166q27 -33 27 -117q0 -184 -94 -346l-60 21q16 68 17 108q0 45 -23 76q-8 10 -61 61z" />
<glyph unicode="&#x2026;" horiz-adv-x="1904" d="M1356 37q-14 14 0 31l166 176h31l166 -176q14 -16 0 -31l-166 -156q-20 -18 -21 0zM721 37q-14 14 0 31l166 176h31l166 -176q14 -16 0 -31l-166 -156q-20 -18 -21 0zM86 37q-14 14 0 31l166 176h31l166 -176q14 -16 0 -31l-166 -156q-20 -18 -21 0z" />
<glyph unicode="&#x2122;" horiz-adv-x="4456" d="M1786 0v59q297 0 297 385v889q0 137 -35 187q-41 59 -174 59v59q203 -12 278 -12q28 0 39 2q98 0 137 10l742 -256l729 256q39 -10 157 -10q11 -2 39 -2q75 0 277 12v-59q-133 0 -172 -53q-35 -45 -35 -193v-889q0 -385 297 -385v-59q-70 0 -203 10t-203 10 q-76 0 -216 -10t-207 -10v59q174 0 225 58.5t51 247.5v1126l-623 -207v-948q0 -154 41 -209q49 -68 197 -68v-59q-53 0 -163.5 10t-172.5 10q-63 0 -193 -10t-202 -10v59q123 0 172 29q66 39 65 158v1046l-591 199v-1126q0 -182 51 -244t225 -62v-59q-68 0 -209 10t-215 10 q-63 0 -199 -10t-206 -10zM-2 1204l59 494h60q45 -59 276 -60h355v129q0 98 -70 131q-37 16 -166 27v60l365 -21q-14 0 364 21v-60q-139 0 -187 -52t-48 -196v-39h385q231 0 274 60h51l58 -494h-58q-31 201 -114.5 273.5t-290.5 72.5h-305v-1196q0 -176 38 -229 q51 -66 228 -66l-10 -59l-406 20q-11 0 -23 1q-61 0 -159 -9q-131 -12 -182 -12v59q137 0 184 23q72 39 72 164v1304h-277q-207 0 -291 -72.5t-112 -273.5h-70z" />
<glyph unicode="&#xe000;" horiz-adv-x="1060" d="M0 1060h1060v-1060h-1060v1060z" />
<glyph unicode="&#xfb01;" horiz-adv-x="1597" d="M868 0v59q115 0 158 25q59 35 59 143v602q0 100 -63 132q-39 18 -154 18v59q203 -10 336 -20q-10 0 336 20v-59q-131 0 -174 -46t-43 -181v-437q0 -150 35 -198q43 -57 182 -58v-59q-55 0 -156.5 10t-148.5 10q-66 0 -188 -10t-179 -10zM1026 1434q-7 7 -7 14t7 14 l168 168q0 8 10 8t10 -8l168 -168q7 -7 7 -14t-7 -14l-168 -158h-20zM-25 0v49q135 8 181.5 52t46.5 175v740q0 623 483 622l-10 -59q-127 0 -193 -143q-53 -113 -53 -262v-375h227l58 59h20l88 -98q8 0 8 -4q-2 -6 -8 -6l-88 -99h-20l-49 60h-236v-514q0 -96 68 -125 q25 -10 149 -23v-49q-66 0 -188.5 10t-186.5 10q-51 0 -149.5 -10t-147.5 -10z" />
<glyph unicode="&#xfb02;" horiz-adv-x="1454" d="M798 1589v49q43 0 139.5 -10t147.5 -10q63 0 191.5 10t193.5 10v-49q-117 0 -157 -18q-70 -27 -70 -121v-985q0 -145 53 -258q72 -147 203 -148v-59q-483 0 -483 623v749q0 133 -42.5 175t-175.5 42zM-25 0v49q135 8 181.5 52t46.5 175v740q0 623 483 622l-10 -59 q-127 0 -193 -143q-53 -113 -53 -262v-375h227l58 59h20l88 -98q8 0 8 -4q-2 -6 -8 -6l-88 -99h-20l-49 60h-236v-514q0 -96 68 -125q25 -10 149 -23v-49q-66 0 -188.5 10t-186.5 10q-51 0 -149.5 -10t-147.5 -10z" />
<glyph unicode="&#xfb03;" horiz-adv-x="2418" d="M1689 0v59q115 0 158 25q59 35 59 143v602q0 100 -63 132q-39 18 -154 18v59q203 -10 336 -20q-10 0 336 20v-59q-131 0 -174 -46t-43 -181v-437q0 -150 35 -198q43 -57 182 -58v-59q-55 0 -156.5 10t-148.5 10q-66 0 -188 -10t-179 -10zM1847 1434q-7 7 -7 14t7 14 l168 168q0 8 10 8t10 -8l168 -168q7 -7 7 -14t-7 -14l-168 -158h-20zM796 0v49q135 8 181.5 52t46.5 175v740q0 623 483 622l-10 -59q-127 0 -193 -143q-53 -113 -53 -262v-375h227l58 59h20l88 -98q8 0 8 -4q-2 -6 -8 -6l-88 -99h-20l-49 60h-236v-514q0 -96 68 -125 q25 -10 149 -23v-49q-66 0 -188.5 10t-186.5 10q-51 0 -149.5 -10t-147.5 -10zM-25 0v49q135 8 181.5 52t46.5 175v740q0 623 483 622l-10 -59q-127 0 -193 -143q-53 -113 -53 -262v-375h227l58 59h20l88 -98q8 0 8 -4q-2 -6 -8 -6l-88 -99h-20l-49 60h-236v-514 q0 -96 68 -125q25 -10 149 -23v-49q-66 0 -188.5 10t-186.5 10q-51 0 -149.5 -10t-147.5 -10z" />
<glyph unicode="&#xfb04;" horiz-adv-x="2275" d="M1619 1589v49q43 0 139.5 -10t147.5 -10q63 0 191.5 10t193.5 10v-49q-117 0 -157 -18q-70 -27 -70 -121v-985q0 -145 53 -258q72 -147 203 -148v-59q-483 0 -483 623v749q0 133 -42.5 175t-175.5 42zM796 0v49q135 8 181.5 52t46.5 175v740q0 623 483 622l-10 -59 q-127 0 -193 -143q-53 -113 -53 -262v-375h227l58 59h20l88 -98q8 0 8 -4q-2 -6 -8 -6l-88 -99h-20l-49 60h-236v-514q0 -96 68 -125q25 -10 149 -23v-49q-66 0 -188.5 10t-186.5 10q-51 0 -149.5 -10t-147.5 -10zM-25 0v49q135 8 181.5 52t46.5 175v740q0 623 483 622 l-10 -59q-127 0 -193 -143q-53 -113 -53 -262v-375h227l58 59h20l88 -98q8 0 8 -4q-2 -6 -8 -6l-88 -99h-20l-49 60h-236v-514q0 -96 68 -125q25 -10 149 -23v-49q-66 0 -188.5 10t-186.5 10q-51 0 -149.5 -10t-147.5 -10z" />
</font>
</defs>
</svg>
