<?xml version="1.0" standalone="no"?>
<!DOCTYPE svg PUBLIC "-//W3C//DTD SVG 1.1//EN" "http://www.w3.org/Graphics/SVG/1.1/DTD/svg11.dtd" >
<svg xmlns="http://www.w3.org/2000/svg">
<metadata>
This is a custom SVG webfont generated by Font Squirrel.
Copyright   : Generated by Metamorphosis Professional 201
</metadata>
<defs>
<font id="CelticHandRegular" horiz-adv-x="978" >
<font-face units-per-em="2048" ascent="1638" descent="-410" />
<missing-glyph horiz-adv-x="819" />
<glyph unicode=" "  horiz-adv-x="819" />
<glyph unicode="&#x09;" horiz-adv-x="819" />
<glyph unicode="&#xa0;" horiz-adv-x="819" />
<glyph unicode="0" horiz-adv-x="1433" d="M16 911q0 236 106.5 421.5t287.5 275.5q63 33 132.5 49t137.5 16q225 0 411.5 -163.5t244 -370.5t57.5 -359q0 -252 -114 -450.5t-263.5 -261t-253.5 -62.5q-197 0 -382 119t-254 295t-89.5 281.5t-20.5 209.5zM201 948q0 -86 12 -176q39 -252 202 -443.5t355 -191.5 q90 0 195.5 62.5t169 204t63.5 321.5q0 98 -30.5 271t-192.5 356.5t-346 183.5q-92 0 -198.5 -64.5t-168 -205t-61.5 -318.5z" />
<glyph unicode="1" horiz-adv-x="532" d="M12 1499q6 -16 10.5 -59t4.5 -82q0 -88 -13 -123q49 23 103.5 35t95.5 12q16 0 29 -4q6 -37 12 -164t6 -289q0 -262 -14.5 -472t-50.5 -353q49 8 81.5 10t77.5 2q68 0 148 -8q-27 285 -41.5 521.5t-14.5 475.5q0 178 10.5 339t35.5 298q-47 0 -96.5 -3t-106.5 -5h-64 q-35 6 -51 8q-10 -78 -59.5 -111.5t-102.5 -27.5z" />
<glyph unicode="2" horiz-adv-x="1294" d="M51 1178q37 233 207 341.5t414 108.5q246 0 414.5 -158.5t168.5 -396.5q0 -209 -188 -338l-410 -224q-215 -120 -290 -318q82 -8 146.5 -12.5t139.5 -4.5q150 0 296.5 25.5t330.5 85.5q-41 -76 -61.5 -132.5t-40.5 -144.5q-55 8 -177 14.5t-225 6.5q-190 0 -393 -12.5 t-311 -28.5q49 338 297 506l432 215q223 127 223 376q0 178 -95 290t-267 112q-158 0 -258.5 -105.5t-131.5 -240.5q-51 20 -99 27.5t-122 7.5z" />
<glyph unicode="3" horiz-adv-x="1259" d="M-10 1362q27 94 26 209q117 31 237 47t220 16q264 0 447.5 -101t201 -238.5t17.5 -157.5q0 -145 -136.5 -201.5t-275.5 -85.5q127 -39 255 -113.5t128 -259.5q0 -14 -2 -30.5t-18.5 -137.5t-171 -212t-383.5 -91q-113 0 -253 22l-282 44q14 37 25.5 85t11.5 91 q0 25 -6 49q129 -66 272 -115t262 -49q131 0 208 70.5t77 236.5q0 195 -139.5 266.5t-350.5 71.5q-53 0 -112.5 -4t-100.5 -8q12 33 20.5 74t8.5 67q0 18 -2 25q96 -14 213 -14q213 0 358.5 64.5t145.5 225.5q0 168 -88 241t-240 73q-133 0 -286.5 -47t-286.5 -113z" />
<glyph unicode="4" horiz-adv-x="1179" d="M6 279q20 59 21 155v33q-4 20 -4 31q53 53 200.5 276t297 474t204.5 372q8 -2 23 -2h28q76 0 154 8t135 19q-102 -150 -273 -377l-362 -473q-190 -246 -227 -297q102 0 307 7t268 7v84q0 113 -3 167t-15 105q31 -14 102 -14q68 0 109 14q-8 -45 -12.5 -167.5t-4.5 -188.5 q51 0 98 10l91 21q-4 -27 -11.5 -86.5t-7.5 -104.5q0 -25 4 -45q-29 6 -66.5 8t-66.5 2h-39q0 -121 3.5 -175t27.5 -136q-20 2 -35.5 3t-25.5 1q-51 0 -77 -3t-95 -15q20 70 29.5 155.5t9.5 163.5h-95q-45 0 -86 2q-211 0 -349 -9t-257 -25z" />
<glyph unicode="5" horiz-adv-x="1294" d="M-12 451q37 -233 207 -342t413 -109q246 0 415 158.5t169 396.5q0 281 -215 478.5t-477 197.5q-139 0 -258 -64q-12 35 -13 99q0 98 29 190q127 12 242 12q176 0 341 -28.5t376 -98.5q-41 76 -61.5 132.5t-41.5 144.5q-55 -8 -177 -14.5t-224 -6.5q-190 0 -393 12.5 t-312 28.5q31 -78 46.5 -175t15.5 -185q0 -123 -14.5 -207t-30.5 -145q61 78 167.5 121t225.5 43q221 0 382 -139.5t161 -409.5q0 -178 -95.5 -290t-267.5 -112q-158 0 -258 105.5t-131 240.5q-51 -20 -99 -27t-122 -7z" />
<glyph unicode="6" horiz-adv-x="1290" d="M33 932q0 -461 210 -703.5t490 -242.5q215 0 366.5 142t151.5 384q0 90 -31.5 230.5t-164.5 231.5t-303 91q-156 0 -285 -68.5t-170 -177.5q-4 8 -10 35t-6 102q0 82 2 114t16 138q23 168 115 241t237 73q127 0 270.5 -46t278.5 -114q-27 94 -26 209q-129 37 -242 54 t-219 17q-293 0 -486.5 -154.5t-193.5 -555.5zM328 547q0 158 114.5 255t266.5 97q127 0 223 -73.5t125 -221.5q12 -59 12 -110q0 -168 -104.5 -264.5t-251.5 -96.5q-119 0 -219.5 70.5t-127 152.5t-32.5 121t-6 70z" />
<glyph unicode="7" horiz-adv-x="1198" d="M-6 1327q162 47 339 67.5t322 20.5q68 0 123.5 -4t75.5 -8q10 -53 -103.5 -319.5t-281.5 -596t-274 -487.5q49 8 81.5 10t77.5 2q68 0 148 -8q66 244 196.5 576.5t269 629.5t220.5 428q-82 -20 -352.5 -43.5t-481.5 -23.5q-219 0 -325 22q6 -25 6 -59q0 -49 -12.5 -108.5 t-28.5 -98.5z" />
<glyph unicode="8" horiz-adv-x="1167" d="M14 1204q0 174 132.5 299t396.5 125q217 0 340 -136t123 -312q0 -106 -47.5 -187.5t-139.5 -111.5q147 -41 230.5 -162t83.5 -268q0 -188 -131.5 -324.5t-376.5 -136.5q-276 0 -442.5 159.5t-166.5 360.5q0 117 60.5 207t179.5 133q-109 29 -175.5 129t-66.5 225z M215 1147q0 -143 93 -223t220 -80q121 0 209 75.5t88 210.5q0 31 -6 68q-27 158 -114 243t-195 85q-119 0 -207 -101.5t-88 -277.5zM236 461q16 -164 109 -249t220 -85q139 0 248 96t109 248q0 135 -100.5 209t-239.5 74q-141 0 -243.5 -72t-102.5 -197v-24z" />
<glyph unicode="9" horiz-adv-x="1290" d="M35 1118q0 -90 31.5 -230t165 -231.5t303.5 -91.5q156 0 284.5 68.5t169.5 177.5q8 -14 16.5 -43t8.5 -100q0 -61 -5 -107.5t-22 -138.5q-29 -162 -117 -230.5t-219 -68.5q-92 0 -219 39t-285 127q4 -20 5 -31q0 -33 -12.5 -65.5t-63.5 -133.5q125 -35 244.5 -53 t228.5 -18q303 0 503.5 154.5t200.5 555.5q0 461 -209.5 704t-490.5 243q-215 0 -366.5 -142.5t-151.5 -384.5zM217 1137q0 168 104.5 264t251.5 96q119 0 219.5 -70.5t127 -152.5t32.5 -121t6 -70q0 -158 -114.5 -255t-265.5 -97q-127 0 -223.5 74t-125.5 221 q-12 60 -12 111z" />
<glyph unicode="A" horiz-adv-x="1222" d="M82 -12q78 215 169 498.5t155.5 540.5t93.5 460q-8 2 -35 2q-57 0 -167 -20.5t-216 -55.5q0 27 6 94.5t6 114.5q45 0 336 -5t391 -5h56q193 0 299 10q-14 -43 -21.5 -83t-7.5 -77q-43 12 -125 22.5t-168 10.5q-55 0 -109 -6q0 -76 66 -345.5t171 -583.5t226 -535 q-100 0 -145 -6.5t-150 -30.5q0 164 -36.5 323.5t-73.5 286.5l-316 4q-29 -94 -55 -270l-47 -324q-59 8 -115 8q-47 0 -87 -7t-101 -21zM512 737q55 -6 72.5 -7t62.5 -1q33 0 58.5 2t56.5 10q0 66 -42 243l-85 343l-78 -352q-39 -183 -45 -238z" />
<glyph unicode="B" horiz-adv-x="1228" d="M86 1636q2 0 104.5 6.5t190.5 6.5q381 0 554 -92.5t198 -245.5q6 -31 6 -58q0 -188 -151.5 -258.5t-305.5 -105.5q147 -27 302 -82t182.5 -172t27.5 -184q0 -256 -244.5 -356.5t-580.5 -100.5q-147 0 -273 14q47 31 84 323t37 611q0 293 -31.5 483.5t-99.5 210.5z M379 1192q0 -174 12 -301q123 0 316.5 104.5t193.5 266.5q0 143 -140 229t-300 86q-35 0 -66 -6q-8 -55 -12 -151.5t-4 -227.5zM389 608q0 -162 6 -301t21 -215q227 37 391 115t164 280q0 197 -180.5 257.5t-395.5 60.5q-6 -68 -6 -197z" />
<glyph unicode="C" horiz-adv-x="1361" d="M-4 844q0 -334 304 -584t632 -250q80 2 172 8.5t186 32.5l10 277q-80 -96 -190.5 -144.5t-232.5 -48.5q-211 0 -356.5 109.5t-208 259t-62.5 327.5q0 55 6 111q25 225 97.5 366.5t206.5 194.5t245 53q139 0 259 -66.5t196 -189.5l51 246q-135 53 -229.5 72.5t-395.5 19.5 q-328 0 -490.5 -200.5t-180 -371.5t-18.5 -186.5t-1 -35.5z" />
<glyph unicode="D" horiz-adv-x="1361" d="M86 1636q86 12 184.5 23.5t175.5 11.5q209 0 385.5 -57.5t314.5 -222t171 -461.5q12 -104 12 -197q0 -303 -124 -471t-308 -226.5t-414 -58.5q-113 0 -227.5 13.5t-159.5 17.5q47 31 84 323t37 611q0 293 -31.5 483.5t-99.5 210.5zM420 1307q0 -309 10 -689t23 -505 q8 0 55 -4.5t72 -4.5q199 0 344 119t145 473q0 125 -37 373t-222 359.5t-384 111.5q-6 -47 -6 -233z" />
<glyph unicode="E" horiz-adv-x="1361" d="M-4 844q0 -334 304 -584t632 -250q80 2 172 8.5t186 32.5l10 277q-90 -94 -203.5 -144.5t-240.5 -50.5q-201 0 -346 110.5t-199.5 266.5t-54.5 340l809 -92l164 297q-88 -41 -170 -67.5t-214 -53.5t-278 -27q-127 0 -311 35q0 182 85 347t220 217.5t242 52.5 q139 0 259 -66t198 -193l51 246q-135 53 -229.5 72.5t-395.5 19.5q-328 0 -490.5 -200.5t-180 -371.5t-18.5 -186.5t-1 -35.5z" />
<glyph unicode="F" horiz-adv-x="1089" d="M10 0q23 12 78 20.5t107 8.5q63 0 100 -13q-27 150 -48.5 352.5t-21.5 333.5q0 59 6 97q53 14 115 20t137 6q68 0 137.5 -6t141.5 -20q-2 8 -2 26q0 37 17.5 75t51.5 93q-111 -23 -228.5 -35t-223.5 -12q-92 0 -146 12v70q0 123 32 211t153 168t225 80q80 0 143.5 -48 t126.5 -139q18 53 77 95.5t110 42.5q-94 135 -160 172t-172 37h-57q-31 -6 -127.5 -19.5t-196.5 -94.5t-166 -159l-24 223q-6 -2 -19.5 -4t-23.5 -2q-31 0 -66 10.5t-76 36.5q27 -82 39 -269t12 -415q0 -287 -15.5 -575.5t-35.5 -378.5z" />
<glyph unicode="G" horiz-adv-x="1361" d="M-4 844q0 -334 304 -584t632 -250q92 6 194.5 15.5t163.5 25.5q-18 170 -18 348q0 150 12 297.5t29 239.5q-96 -10 -221 -10q-178 0 -328 10t-236 29q6 -31 8.5 -58.5t2.5 -56.5q0 -35 -2 -63l-5 -54q0 -20 3 -33q20 0 160.5 11.5t185.5 11.5q70 0 97.5 -3t65.5 -13 q12 -49 17.5 -131t5.5 -193q0 -72 -1 -125t-3 -92q-74 -23 -130 -35t-104 -12q-76 0 -151.5 31.5t-189 117.5t-176 235.5t-62.5 327.5q0 55 6 111q25 225 97.5 366.5t206.5 194.5t245 53q139 0 259 -66.5t196 -189.5l51 246q-135 53 -229.5 72.5t-395.5 19.5 q-328 0 -490.5 -200.5t-180 -371.5t-18.5 -186.5t-1 -35.5z" />
<glyph unicode="H" horiz-adv-x="1249" d="M51 1638q43 -113 64.5 -342t21.5 -505q0 -244 -16.5 -456t-48.5 -335q49 8 81.5 10t77.5 2q68 0 148 -8l-72 784l666 41v-41q0 -25 2 -61q0 -170 -15.5 -358.5t-58.5 -358.5q49 8 82 10.5t78 2.5q68 0 147 -9q-27 285 -41 521.5t-14 476.5q0 178 10.5 338.5t34.5 298.5 q-47 0 -96 -3.5t-107 -5.5h-63q-35 6 -51 9q55 -143 74.5 -307t19.5 -291v-40q0 -15 -2 -28l-666 -20q0 12 -1 27.5t-1 37.5q0 102 12.5 245.5t51.5 364.5q-47 0 -96.5 -3t-106.5 -5h-64q-35 6 -51 8z" />
<glyph unicode="I" horiz-adv-x="454" d="M51 1638q43 -113 64.5 -342t21.5 -505q0 -244 -16.5 -456t-48.5 -335q49 8 81.5 10t77.5 2q68 0 148 -8q-27 285 -41 521.5t-14 475.5q0 178 10 339t35 298q-47 0 -96.5 -3t-106.5 -5h-64q-35 6 -51 8z" />
<glyph unicode="J" horiz-adv-x="753" d="M41 1597q14 -49 19.5 -75.5t5.5 -55.5q0 -10 -2.5 -38.5t-2.5 -55.5q49 18 167 37l223 35q0 -102 11 -341l20.5 -453t9.5 -314q0 -141 -9.5 -224t-37 -112t-73.5 -46t-96 -17q-94 0 -194 47l-33 -246q250 0 353.5 34.5t171 119.5t75.5 262.5t14.5 730.5t53.5 743 q-59 0 -283.5 -17.5t-308.5 -17.5q-23 0 -48.5 2t-35.5 2z" />
<glyph unicode="K" horiz-adv-x="1105" d="M61 0q47 8 127 8h67q30 0 71 -8q-23 94 -31 313t-8 383l213 -269q90 -118 149.5 -210t128.5 -225q49 6 99.5 10t103.5 4h49q23 -4 31 -4q-74 66 -209 239t-275.5 375.5t-168.5 255.5q31 63 137 205t245.5 291.5t303.5 278.5q-72 -6 -97.5 -7.5t-76.5 -1.5q-61 0 -103 7 q-125 -231 -264 -429t-266 -346q0 35 -1 83t-1 110q0 176 10 319.5t41 262.5q-57 -14 -168 -15q-68 0 -107 8q18 -96 28.5 -362t10.5 -576q0 -281 -9.5 -464t-29.5 -236z" />
<glyph unicode="L" horiz-adv-x="1036" d="M51 1638q43 -113 64.5 -342t21.5 -505q0 -244 -16.5 -456t-48.5 -335q43 6 149.5 10t245.5 4q162 0 307.5 -7t239.5 -23q0 23 -2 54.5t-2 47.5q0 39 10 88q-125 -31 -320.5 -38t-367.5 -11q-4 109 -8.5 258t-4.5 362q0 367 12.5 557.5t37.5 335.5q-47 0 -96.5 -3 t-106.5 -5h-64q-35 6 -51 8z" />
<glyph unicode="M" horiz-adv-x="1832" d="M2 0q53 141 142 452.5t150.5 603.5t61.5 470q0 80 -14 123q49 -8 75.5 -10.5t57.5 -2.5h68l57 9q-2 -12 -2 -43q0 -129 72.5 -394.5t153.5 -493t114 -288.5q43 86 106.5 433t63.5 585q0 137 -23 211q49 -8 76 -10.5t58 -2.5h67l57 9q-2 -12 -2 -43q0 -227 166 -766 t318 -828q-47 0 -96.5 2t-106.5 7h-40q-13 0 -75 -9q0 135 -62.5 404.5t-145 559.5t-85.5 290q-2 0 -40.5 -243t-74.5 -543t-36 -476q-45 0 -91 2t-98 6q-45 0 -108 -8q4 37 4 66q0 156 -61.5 425t-133 508.5t-75.5 239.5q-2 0 -53.5 -263t-89.5 -527.5t-38 -454.5 q-47 0 -96 2t-106 6h-40q-14 0 -75 -8z" />
<glyph unicode="N" horiz-adv-x="1249" d="M51 1638q43 -113 64.5 -342t21.5 -505q0 -244 -16.5 -456t-48.5 -335q49 8 81.5 10t73.5 2h82q41 -6 62 -8q-23 236 -38.5 441.5t-29.5 447.5l-20 344q6 0 197.5 -259t347 -532.5t155.5 -435.5q51 8 71.5 10.5t43.5 2.5h41q41 -6 69 -9q-27 285 -41 521.5t-14 476.5 q0 178 10.5 338.5t34.5 298.5q-47 0 -94 -3.5t-103 -5.5h-63l-49 9q49 -133 75.5 -403.5t31.5 -479.5l8 -332q-6 0 -168 223.5t-315.5 491.5t-201.5 481q-43 0 -77.5 -1t-61.5 -1q-20 0 -49 2t-80 8z" />
<glyph unicode="O" horiz-adv-x="1658" d="M18 911q0 238 125 421.5t338 275.5q76 33 158 49t162 16q262 0 481 -163.5t286.5 -370.5t67.5 -359q0 -252 -133 -450.5t-309 -261t-297 -62.5q-233 0 -449.5 119t-323 349t-106.5 437zM233 942q0 -78 17 -170q43 -250 237.5 -442.5t417.5 -192.5q106 0 230.5 61.5 t200 204t75.5 322.5q0 94 -37 269t-226.5 358.5t-408.5 183.5q-106 0 -233 -65.5t-200 -207t-73 -321.5z" />
<glyph unicode="P" horiz-adv-x="1204" d="M86 1636q20 0 101 3t108 3q188 0 366.5 -26.5t316.5 -107.5t152.5 -172t14.5 -103q0 -213 -288 -353.5t-470 -140.5q-2 -18 -2 -40v-31q0 -141 24.5 -354.5t55.5 -303.5q-80 14 -176 15q-104 0 -193 -17q47 31 84 323t37 611q0 293 -31.5 483.5t-99.5 210.5zM375 955 q0 -52 8 -130q121 0 323.5 118t202.5 286q0 152 -149.5 249t-308.5 97q-14 0 -31 -2t-25 -2q-8 -68 -14 -205t-6 -291v-120z" />
<glyph unicode="Q" horiz-adv-x="1658" d="M18 911q0 238 125 421.5t338 275.5q76 33 158 49t162 16q262 0 481 -163.5t286.5 -370.5t67.5 -359q0 -252 -133 -450.5t-309 -261t-297 -62.5q-233 0 -449.5 119t-323 349t-106.5 437zM233 942q0 -78 17 -170q43 -250 237.5 -442.5t417.5 -192.5q106 0 230.5 61.5 t200 204t75.5 322.5q0 94 -37 269t-226.5 358.5t-408.5 183.5q-106 0 -233 -65.5t-200 -207t-73 -321.5zM469 420q98 66 175 98.5t161 32.5q82 0 192.5 -39t297 -281.5t209 -256t60.5 -22.5t72 -9q57 0 99.5 13t72.5 28q-37 -86 -84 -123t-131 -37q-51 0 -136 17.5 t-174 128.5l-171 223q-111 131 -220.5 168.5t-197.5 48t-225 10.5z" />
<glyph unicode="R" horiz-adv-x="1228" d="M86 1636q2 0 104.5 6.5t190.5 6.5q381 0 554 -92.5t187.5 -187.5t14.5 -114q0 -190 -158 -265t-317 -113l144 -236l211 -334q120 -186 189 -276q-82 0 -157.5 -25.5t-130.5 -46.5q0 178 -146.5 479t-236.5 396l-140 -29q-2 -35 -3 -72t-1 -74q0 -176 5 -347t14 -322 q-4 -2 -29 -2q-33 0 -101.5 5t-183.5 15q47 31 84 323t37 611q0 293 -31.5 483.5t-99.5 210.5zM379 1192q0 -174 12 -301q123 0 316.5 104.5t193.5 266.5q0 143 -140 229t-300 86q-35 0 -66 -6q-8 -55 -12 -151.5t-4 -227.5z" />
<glyph unicode="S" horiz-adv-x="1105" d="M41 0q74 -12 138.5 -18.5t154.5 -6.5q301 0 521 109t220 369v49q0 150 -198 282l-369 217q-201 133 -201 279q0 137 87 202.5t224 65.5q117 0 241 -40t220 -105l17 235q-70 10 -160 18.5t-180 8.5q-283 0 -468.5 -87t-185.5 -308q0 -188 197 -309l365 -187 q197 -119 196 -303q0 -174 -95 -249t-255 -75q-104 0 -221 31t-217 78z" />
<glyph unicode="T" horiz-adv-x="1331" d="M6 1376q88 31 242.5 47.5t298.5 26.5v-20v-27q0 -195 -5 -455t-23.5 -532.5t-55.5 -415.5q49 8 82 10t78 2q68 0 147 -8q-20 205 -33.5 554t-16.5 555l-5 337q176 -12 358 -29.5t227 -50.5q-23 80 -22 180q0 51 6 101q-102 -10 -267 -14.5t-386 -4.5q-207 0 -356.5 4 t-241.5 15v-41q0 -59 -3.5 -111.5t-23.5 -122.5z" />
<glyph unicode="U" horiz-adv-x="1474" d="M0 1638q61 -20 135 -20q53 0 93 7t75 22q0 -207 38 -515.5t120 -567.5t209 -324.5t223 -65.5q104 0 184 74t135 233q0 66 2.5 253.5t2.5 291.5q0 272 -8.5 415.5t-34.5 198.5q63 -33 137 -32q41 0 77.5 8t75.5 22q-18 -45 -34.5 -338.5t-16.5 -613.5q0 -291 13.5 -470 t48.5 -216q-47 18 -152 18q-90 0 -125 -18q0 164 4 211t10 70q-53 -106 -140 -213t-263 -107q-88 0 -258 69.5t-265.5 360.5t-156.5 729t-129 518z" />
<glyph unicode="V" horiz-adv-x="1097" d="M2 1638q53 -141 142 -452.5t150.5 -603t61.5 -469.5q0 -80 -14 -123q49 8 76.5 10t56.5 2h68q37 -6 57 -8q-2 12 -2 43q0 227 166 765.5t317 827.5q-47 0 -96 -3t-106 -5h-64q-35 6 -51 8q0 -141 -58.5 -413.5t-131 -548t-74.5 -275.5t-53.5 263.5t-89.5 527.5t-38 454 q-47 0 -96 -3t-106 -5h-64q-35 6 -51 8z" />
<glyph unicode="W" horiz-adv-x="1832" d="M2 1638q53 -141 142 -452.5t150.5 -603t61.5 -469.5q0 -80 -14 -123q49 8 76.5 10t56.5 2h68q37 -6 57 -8q-2 10 -2 25v24q0 135 60.5 386t137 492.5t105.5 290.5q29 -57 78 -245.5t88 -419t39 -387.5q0 -113 -21 -176q49 8 77 10t57 2h67q37 -6 57 -8q-2 12 -2 43 q0 227 166 765.5t318 827.5q-47 0 -96.5 -3t-106.5 -5h-63q-35 6 -52 8q0 -139 -59 -412.5t-134 -557t-79 -283.5l-60 321q-38 207 -75 478.5t-37 461.5q-47 0 -96 -3t-107 -5h-63q-35 6 -52 8q4 -41 5 -69q0 -160 -53.5 -411t-123 -505t-73.5 -254q-2 0 -53.5 263.5 t-89.5 527.5t-38 454q-47 0 -96 -3t-106 -5h-64q-35 6 -51 8z" />
<glyph unicode="X" horiz-adv-x="1196" d="M72 0q49 8 81.5 10t77.5 2q68 0 148 -8q25 115 85 270.5t115.5 274.5t57.5 119q6 0 62.5 -105.5t108.5 -261.5t52 -301q49 8 82 10t78 2q68 0 147 -8q-70 109 -154 264l-167 313l-123 236l81 167q50 103 153.5 292.5t209.5 351.5q-47 0 -96 -3t-106 -5h-64q-35 6 -51 8 q0 -174 -70.5 -344t-142.5 -307q-4 0 -51 91t-101.5 238.5t-85.5 321.5q-47 0 -96 -3t-106 -5h-64q-35 6 -51 8q80 -106 189.5 -293.5t172.5 -308.5l103 -195l-114 -230q-73 -146 -174 -324.5t-187 -276.5z" />
<glyph unicode="Y" horiz-adv-x="1146" d="M33 1628q37 -29 144 -197l221 -361l177 -296l-81 -188q-51 -117 -143.5 -298.5t-172.5 -295.5q49 8 82 10t78 2q68 0 147 -8q35 227 149 537.5t260 609.5t269 487q-47 0 -96 -3t-106 -5h-64q-35 6 -51 8q0 -164 -66.5 -352t-136.5 -346l-90 198q-53 119 -125 295.5 t-80 221.5q-43 -8 -116.5 -16.5t-137.5 -8.5q-43 0 -61 6z" />
<glyph unicode="Z" horiz-adv-x="1126" d="M33 1419q82 16 236.5 30.5t281.5 14.5q143 0 235 -14q-53 -211 -286.5 -679t-427.5 -771q74 10 340 19.5t501 9.5q98 0 152 -4q0 86 10 139t47 172q-68 -41 -270.5 -73t-335.5 -32h-39q-20 4 -26 5q20 131 120.5 347t230.5 453l335 602q-51 0 -311 -3l-425 -5h-49h-43 h-37h-30h-25q-84 0 -115 8q0 -72 -13 -115t-56 -104z" />
<glyph unicode="a" d="M66 -10q111 303 206 630.5t127 569.5q-6 2 -26 2q-119 0 -307 -62q4 37 7 86.5t3 81.5q23 -2 228.5 -7t283.5 -5q248 0 352 12q-12 -37 -17 -65.5t-5 -63.5q-39 10 -104.5 18.5t-137.5 8.5h-51q-20 -4 -29 -4q0 -61 51 -274t138 -468t182 -430q-74 0 -115 -5t-121 -25 q0 133 -28.5 260t-59.5 229l-254 2q-23 -74 -44 -215l-38 -260q-55 6 -94 6q-35 0 -70.5 -6t-76.5 -16zM410 590q16 0 55 -2t63 -2q43 0 82 8q0 51 -33 192l-69 275l-63 -287q-31 -149 -35 -184z" />
<glyph unicode="b" horiz-adv-x="983" d="M70 1309q14 0 102 5t133 5q305 0 443.5 -74t156.5 -196q4 -33 4 -48q0 -150 -120.5 -206t-243.5 -84q119 -20 241.5 -63.5t145 -135.5t22.5 -152q0 -205 -195.5 -284.5t-469.5 -79.5q-119 0 -211 10q39 25 67.5 258.5t28.5 489.5q0 233 -24.5 386t-79.5 169zM305 845 q0 -48 8 -132q98 0 253 83t155 214q0 113 -113.5 182.5t-238.5 69.5h-27q-18 -4 -27 -5q-10 -102 -10 -299v-113zM311 494q0 -143 4 -247t17 -173q178 29 311 92t133 223t-142 207t-319 47q-2 -39 -3 -76.5t-1 -72.5z" />
<glyph unicode="c" horiz-adv-x="1089" d="M-2 674q0 -268 241.5 -467t505.5 -199q66 2 139.5 7t147.5 26l8 221q-63 -76 -152 -114.5t-186 -38.5q-170 0 -287.5 88t-166.5 205.5t-49 265.5q0 43 6 86q20 180 77.5 292.5t165 155.5t197.5 43q113 0 207 -52t156 -153l41 197q-115 45 -185.5 59.5t-314.5 14.5 q-260 0 -392 -162t-144.5 -298t-13.5 -153.5t-1 -23.5z" />
<glyph unicode="d" horiz-adv-x="1089" d="M70 1309q70 10 153.5 18t136.5 8q262 0 458 -125t235 -467q8 -76 8 -159q0 -348 -192.5 -474t-481.5 -126q-82 0 -162 8t-147 14q39 25 67.5 258.5t28.5 489.5q0 233 -24.5 386t-79.5 169zM336 1063q0 -262 8 -558t18 -415q12 0 52.5 -3t50.5 -3q158 0 273.5 95 t115.5 380q0 100 -29.5 298t-177 287t-307.5 89q-2 -45 -3 -97.5t-1 -72.5z" />
<glyph unicode="e" horiz-adv-x="1089" d="M-2 674q0 -268 241.5 -467t505.5 -199q66 2 139.5 7t147.5 26l8 221q-72 -78 -163 -117t-191 -39q-162 0 -278.5 88.5t-159.5 213t-43 272.5l647 -74l131 238q-139 -63 -278.5 -90t-251.5 -27q-113 0 -248 27q0 147 66.5 278t177 173t192.5 42q111 0 207 -53t160 -154 l41 197q-115 45 -185.5 59.5t-314.5 14.5q-260 0 -392 -162t-144.5 -298t-13.5 -153.5t-1 -23.5z" />
<glyph unicode="f" horiz-adv-x="872" d="M8 0q16 8 61.5 14t82.5 6q57 0 84 -8q-18 106 -37 279.5t-19 271.5v51q4 18 4 25q82 20 201 20q121 0 225 -20q-2 6 -2 23q0 49 56 133q-82 -16 -185.5 -26.5t-185.5 -10.5h-62l-47 8v53q0 96 27 170t123 137.5t176 63.5q66 0 117 -39t102 -111q14 43 60.5 77t89.5 34 q-63 90 -110.5 128t-156.5 38q-37 0 -132 -13.5t-174 -77t-130 -126.5l-20 178q-23 -6 -37 -6q-27 0 -49.5 7t-61.5 32q20 -61 30.5 -217t10.5 -330q0 -252 -12.5 -468t-28.5 -296z" />
<glyph unicode="g" horiz-adv-x="1089" d="M-2 674q0 -268 241.5 -467t505.5 -199l153 12.5t134 20.5q-14 127 -14 281q0 254 33 428q-63 -8 -183 -9q-135 0 -257 8.5t-189 22.5q10 -49 10 -96q0 -27 -2 -48l-4 -42q0 -16 2 -25q31 0 132.5 9.5t144.5 9.5q76 0 131 -15q8 -31 12 -111.5t4 -146.5v-35v-28v-25v-56 q0 -19 -2 -30q-57 -18 -96 -28.5t-88 -10.5q-63 0 -123 24.5t-153 95.5t-142 188.5t-49 265.5q0 43 6 86q20 180 77.5 292.5t165 155.5t197.5 43q113 0 207 -52t156 -153l41 197q-115 45 -185.5 59.5t-314.5 14.5q-260 0 -392 -162t-144.5 -298t-13.5 -153.5t-1 -23.5z" />
<glyph unicode="h" horiz-adv-x="999" d="M41 1311q33 -86 51.5 -277.5t18.5 -398.5q0 -209 -13.5 -370t-40.5 -265q57 8 109 8q23 0 76 -2t61 -2l-57 627l532 33v-31q0 -18 2 -45q0 -131 -12 -287t-47 -293q57 8 108 8q23 0 76 -2t62 -2q-20 213 -32.5 413t-12.5 382q0 145 8 271t28 241q-51 0 -88 -2l-71 -4 q-35 0 -94 6q31 -84 52 -215t21 -268v-35v-15l-532 -16q0 8 -1 20.5t-1 32.5q0 84 10 198t41 290q-51 0 -88 -2l-72 -4q-35 0 -94 6z" />
<glyph unicode="i" horiz-adv-x="364" d="M41 1311q33 -86 51.5 -277.5t18.5 -398.5q0 -209 -13.5 -370t-40.5 -265q57 8 109 8q23 0 76 -2t61 -2q-20 213 -32.5 412.5t-12.5 382.5q0 145 8 271t29 241q-51 0 -88 -2l-72 -4q-35 0 -94 6z" />
<glyph unicode="j" horiz-adv-x="602" d="M33 1278q12 -41 16 -63.5t4 -40.5q0 -16 -2 -41t-2 -35q43 16 134 30l177 27q0 -90 16.5 -415.5t16.5 -473.5q0 -113 -7 -178t-43 -103t-120 -38q-39 0 -76.5 10t-80.5 31l-27 -197q203 0 285 27.5t134 94.5t60 228.5t13.5 585.5t41.5 576q-41 0 -224 -13.5t-249 -13.5 q-33 2 -45 2h-22z" />
<glyph unicode="k" horiz-adv-x="884" d="M49 0q43 6 101 6q68 0 110 -6q-16 70 -23.5 262.5t-7.5 294.5q174 -215 246 -315.5t148 -247.5q37 4 81 8t80 4h33q20 -4 31 -4q-90 78 -283.5 343t-238.5 353q47 92 205.5 281.5t342.5 337.5q-29 0 -89 -2t-87 -2q-33 0 -45 2q-98 -182 -209.5 -342t-214.5 -277 q0 37 -1 74t-1 76q0 150 8.5 261.5t32.5 207.5q-45 -10 -135 -10q-49 0 -84 6q14 -78 23.5 -282t9.5 -460q0 -242 -7.5 -383t-25.5 -186z" />
<glyph unicode="l" horiz-adv-x="829" d="M41 1311q33 -86 51.5 -277.5t18.5 -398.5q0 -209 -13.5 -370t-40.5 -265q94 12 324 12q150 0 247 -5t183 -19q0 20 -2 46.5t-2 39.5q0 27 8 65q-100 -25 -257 -31t-292 -8q-2 51 -6 194.5t-4 309.5q0 246 7 406.5t32 300.5q-51 0 -88 -2l-72 -4q-35 0 -94 6z" />
<glyph unicode="m" horiz-adv-x="1466" d="M2 0q43 117 111.5 355.5t121 483t52.5 382.5q0 61 -13 98q57 -8 93 -8q16 0 57 2t55 2q-2 -10 -2 -33q0 -106 55.5 -306t124 -394.5t93.5 -241.5q35 72 85 346.5t50 470.5q0 111 -17 166q23 -4 58 -6t47 -2q29 0 102 6q-2 -10 -2 -37q0 -174 134 -610t253 -662 q-51 0 -88 2l-72 4q-35 0 -94 -6q0 115 -47 315.5t-116.5 443.5t-71.5 243t-37 -223.5t-59.5 -426t-24.5 -360.5q-39 0 -84 4t-64 4q-39 0 -90 -8q2 14 2 30v21q0 125 -50 343t-105.5 407.5t-59.5 189.5q-2 0 -43 -208.5t-70.5 -418.5t-29.5 -368q-51 0 -88 2l-72 4 q-35 0 -94 -6z" />
<glyph unicode="n" horiz-adv-x="999" d="M41 1311q33 -86 51.5 -277.5t18.5 -398.5q0 -209 -13.5 -370t-40.5 -265q25 4 54.5 6t52.5 2q16 0 59 -2t74 -2q-12 131 -32 403l-27 385q-8 114 -13 197q6 0 151.5 -197.5t277.5 -428t132 -355.5q57 8 82 8q12 0 44 -2t55 -2q-20 213 -32.5 413t-12.5 382q0 145 8 271 t28 241q-49 0 -85 -2l-70 -4q-33 0 -92 6q39 -106 60.5 -323.5t25.5 -382t6 -265.5q-6 0 -133 176t-252 393.5t-162 387.5q-35 0 -63.5 -1t-51.5 -1h-39q-36 6 -61 8z" />
<glyph unicode="o" horiz-adv-x="1327" d="M16 729q0 188 99.5 335.5t269.5 221.5q125 53 256 53q211 0 385 -131t228.5 -294.5t54.5 -288.5q0 -201 -106.5 -361t-245 -209t-238.5 -49q-188 0 -361.5 95.5t-237 231.5t-84 228t-20.5 168zM188 756q0 -66 13 -138q35 -201 189.5 -355t334.5 -154q82 0 181.5 50 t160.5 165.5t61 255.5q0 78 -29.5 217t-182 285.5t-326.5 146.5q-88 0 -186.5 -52.5t-157 -164t-58.5 -256.5z" />
<glyph unicode="p" horiz-adv-x="962" d="M70 1309q18 0 77.5 2t90.5 2q254 0 450.5 -59.5t211.5 -151.5t15 -117q0 -168 -229 -280.5t-377 -112.5q-2 -14 -2 -55q0 -127 19.5 -290t46.5 -239q-68 12 -137 12q-39 0 -79 -4t-79 -10q39 25 67.5 258.5t28.5 489.5q0 233 -24.5 386t-79.5 169zM299 767q0 -42 8 -108 q109 10 264.5 99.5t155.5 224.5q0 121 -120 200t-247 79q-16 0 -45 -5q-16 -139 -16 -391v-99z" />
<glyph unicode="q" horiz-adv-x="1327" d="M16 729q0 188 99.5 335.5t269.5 221.5q125 53 256 53q211 0 385 -131t228.5 -294.5t54.5 -288.5q0 -201 -106.5 -361t-245 -209t-238.5 -49q-188 0 -361.5 95.5t-237 231.5t-84 228t-20.5 168zM188 756q0 -66 13 -138q35 -201 189.5 -355t334.5 -154q82 0 181.5 50 t160.5 165.5t61 255.5q0 78 -29.5 217t-182 285.5t-326.5 146.5q-88 0 -186.5 -52.5t-157 -164t-58.5 -256.5zM375 336q78 53 139 78.5t129 25.5q66 0 155 -30.5t240.5 -227t181 -213t89.5 -16.5q47 0 79.5 10t57.5 25q-29 -68 -68 -97.5t-104 -29.5q-43 0 -112.5 14 t-210 197.5t-234.5 216.5t-160.5 40t-181.5 7z" />
<glyph unicode="r" horiz-adv-x="983" d="M70 1309q14 0 102 5t133 5q305 0 443.5 -74t149.5 -151.5t11 -89.5q0 -154 -127 -213.5t-254 -90.5l106 -174l169 -266q104 -162 162 -235q-61 0 -117 -17q-72 -27 -115 -41q0 143 -116.5 384t-188.5 317l-113 -25q-2 -16 -2 -51v-57q0 -143 4.5 -280.5t10.5 -262.5 q-4 -2 -23 -2q-45 0 -111.5 6t-115.5 10q39 25 67.5 258.5t28.5 489.5q0 233 -24.5 386t-79.5 169zM305 845q0 -48 8 -132q98 0 253 83t155 214q0 113 -113.5 182.5t-238.5 69.5h-27q-18 -4 -27 -5q-10 -102 -10 -299v-113z" />
<glyph unicode="s" horiz-adv-x="884" d="M33 0q41 -6 110.5 -12t122.5 -6q246 0 420 94t174 330q0 117 -158 221l-296 172q-160 106 -160 225q0 111 68.5 163t179.5 52q94 0 193 -31.5t177 -85.5l13 189q-66 8 -130.5 14t-142.5 6q-223 0 -372.5 -70.5t-149.5 -244.5q0 -152 156 -248l292 -150q158 -96 158 -241 q0 -139 -76.5 -198.5t-203.5 -59.5q-88 0 -176.5 22.5t-174.5 63.5z" />
<glyph unicode="t" horiz-adv-x="1064" d="M4 1102q68 23 194 36t240 21v-39q0 -322 -12 -639t-55 -481q57 8 108 8q23 0 76 -2t61 -2q-16 172 -25 402.5t-13 439.5l-7 313q141 -10 287 -23.5t182 -39.5q-8 27 -12 66.5t-4 74.5v53q4 23 4 31q-63 -6 -224 -10t-302 -4q-106 0 -237.5 1t-237.5 13v-31 q0 -78 -3.5 -108.5t-19.5 -79.5z" />
<glyph unicode="u" horiz-adv-x="1179" d="M0 1311q47 -16 109 -17q43 0 71.5 5.5t61.5 17.5q0 -162 30.5 -410t96 -455.5t167 -260t179.5 -52.5q109 0 166 75t90 171v196q0 101 2 212q0 291 -8.5 386t-26.5 134q51 -27 113 -27q35 0 54 3t66 22q-16 -37 -28.5 -265.5t-12.5 -494.5q0 -225 11.5 -373.5t38.5 -177.5 q-39 14 -125 14q-74 0 -97 -14l13 225q-41 -86 -112 -171t-214 -85q-70 0 -205 55.5t-211.5 290t-126 584t-102.5 412.5z" />
<glyph unicode="v" horiz-adv-x="878" d="M2 1311q43 -117 111.5 -355.5t121 -483.5t52.5 -382q0 -61 -13 -98q57 8 93 8q16 0 56 -2t56 -2q-2 10 -2 33q0 174 133 610t254 666q-51 0 -88 -2l-71 -5q-35 0 -95 7q0 -115 -44 -321t-104.5 -437.5t-62.5 -231.5t-43 209t-70.5 419t-29.5 368q-51 0 -88 -2l-72 -4 q-35 0 -94 6z" />
<glyph unicode="w" horiz-adv-x="1466" d="M2 1311q43 -117 111.5 -355.5t121 -483.5t52.5 -382q0 -61 -13 -98q57 8 93 8q16 0 56 -2t56 -2q-2 10 -2 37q0 158 99.5 506t144.5 432q39 -78 100.5 -366t61.5 -478q0 -88 -15 -139q23 4 58 6t47 2q29 0 102 -6q-2 10 -2 37q0 174 134 610t253 661q-51 0 -88 -2l-72 -4 q-35 0 -94 6q0 -115 -44 -315.5t-108.5 -443t-66.5 -242.5t-38 199.5t-67.5 433t-31.5 377.5q-35 0 -75 -3.5t-85 -5.5h-41l-53 9q2 -16 2 -56q0 -125 -43 -328.5t-98.5 -405.5t-57.5 -202t-43 209t-70.5 419t-29.5 368q-51 0 -88 -2l-72 -4q-35 0 -94 6z" />
<glyph unicode="x" horiz-adv-x="956" d="M57 0q57 8 109 8q23 0 76 -2t61 -2q29 135 89.5 273.5l117.5 257.5q59 -100 118.5 -234.5t59.5 -300.5q57 8 109 8q23 0 76 -2t61 -2q-49 76 -137 237l-138 255l-81 157l67 139q43 87 125 236.5t164 274.5q-51 0 -88 -3l-72 -4q-35 0 -94 7q0 -141 -55.5 -276.5 t-114.5 -244.5q-47 80 -101.5 200t-89.5 321q-51 0 -88 -3l-71 -4q-35 0 -94 7q68 -88 147.5 -225.5t135.5 -244.5l89 -167l-92 -188q-59 -120 -140 -260t-149 -218z" />
<glyph unicode="y" horiz-adv-x="917" d="M27 1303q27 -20 145 -208l179 -290l110 -187l-68 -155q-43 -98 -112.5 -236.5t-137.5 -232.5q25 4 66 6t57 2q49 0 123 -6q39 268 212 668.5t329 640.5q-51 0 -88 -2l-72 -5q-35 0 -94 7q0 -131 -53.5 -282t-108.5 -278l-152 340q-76 174 -83 232q-31 -6 -92.5 -12.5 t-112.5 -6.5q-27 1 -47 5z" />
<glyph unicode="z" horiz-adv-x="901" d="M27 1135q74 16 185.5 26t227.5 10q109 0 189 -12q-43 -172 -227.5 -540.5t-344.5 -618.5q51 8 380 14t415 6q0 86 8 120t37 128q-53 -33 -215 -58.5t-270 -25.5q-27 0 -52 4q16 104 102.5 287.5t167.5 332.5l279 503q-145 0 -296.5 -2t-280.5 -4h-43h-35h-31h-24 q-82 0 -117 6q0 -59 -10 -92t-45 -84z" />
<glyph unicode="&#xaa;" d="M66 -10q111 303 206 630.5t127 569.5q-6 2 -26 2q-119 0 -307 -62q4 37 7 86.5t3 81.5q23 -2 228.5 -7t283.5 -5q248 0 352 12q-12 -37 -17 -65.5t-5 -63.5q-39 10 -104.5 18.5t-137.5 8.5h-51q-20 -4 -29 -4q0 -61 51 -274t138 -468t182 -430q-74 0 -115 -5t-121 -25 q0 133 -28.5 260t-59.5 229l-254 2q-23 -74 -44 -215l-38 -260q-55 6 -94 6q-35 0 -70.5 -6t-76.5 -16zM410 590q16 0 55 -2t63 -2q43 0 82 8q0 51 -33 192l-69 275l-63 -287q-31 -149 -35 -184z" />
<glyph unicode="&#xb2;" horiz-adv-x="1294" d="M51 1178q37 233 207 341.5t414 108.5q246 0 414.5 -158.5t168.5 -396.5q0 -209 -188 -338l-410 -224q-215 -120 -290 -318q82 -8 146.5 -12.5t139.5 -4.5q150 0 296.5 25.5t330.5 85.5q-41 -76 -61.5 -132.5t-40.5 -144.5q-55 8 -177 14.5t-225 6.5q-190 0 -393 -12.5 t-311 -28.5q49 338 297 506l432 215q223 127 223 376q0 178 -95 290t-267 112q-158 0 -258.5 -105.5t-131.5 -240.5q-51 20 -99 27.5t-122 7.5z" />
<glyph unicode="&#xb3;" horiz-adv-x="1259" d="M-10 1362q27 94 26 209q117 31 237 47t220 16q264 0 447.5 -101t201 -238.5t17.5 -157.5q0 -145 -136.5 -201.5t-275.5 -85.5q127 -39 255 -113.5t128 -259.5q0 -14 -2 -30.5t-18.5 -137.5t-171 -212t-383.5 -91q-113 0 -253 22l-282 44q14 37 25.5 85t11.5 91 q0 25 -6 49q129 -66 272 -115t262 -49q131 0 208 70.5t77 236.5q0 195 -139.5 266.5t-350.5 71.5q-53 0 -112.5 -4t-100.5 -8q12 33 20.5 74t8.5 67q0 18 -2 25q96 -14 213 -14q213 0 358.5 64.5t145.5 225.5q0 168 -88 241t-240 73q-133 0 -286.5 -47t-286.5 -113z" />
<glyph unicode="&#xb9;" horiz-adv-x="532" d="M12 1499q6 -16 10.5 -59t4.5 -82q0 -88 -13 -123q49 23 103.5 35t95.5 12q16 0 29 -4q6 -37 12 -164t6 -289q0 -262 -14.5 -472t-50.5 -353q49 8 81.5 10t77.5 2q68 0 148 -8q-27 285 -41.5 521.5t-14.5 475.5q0 178 10.5 339t35.5 298q-47 0 -96.5 -3t-106.5 -5h-64 q-35 6 -51 8q-10 -78 -59.5 -111.5t-102.5 -27.5z" />
<glyph unicode="&#xba;" horiz-adv-x="1327" d="M16 729q0 188 99.5 335.5t269.5 221.5q125 53 256 53q211 0 385 -131t228.5 -294.5t54.5 -288.5q0 -201 -106.5 -361t-245 -209t-238.5 -49q-188 0 -361.5 95.5t-237 231.5t-84 228t-20.5 168zM188 756q0 -66 13 -138q35 -201 189.5 -355t334.5 -154q82 0 181.5 50 t160.5 165.5t61 255.5q0 78 -29.5 217t-182 285.5t-326.5 146.5q-88 0 -186.5 -52.5t-157 -164t-58.5 -256.5z" />
<glyph unicode="&#xe0;" d="M66 -10q111 303 206 630.5t127 569.5q-6 2 -26 2q-119 0 -307 -62q4 37 7 86.5t3 81.5q23 -2 228.5 -7t283.5 -5q248 0 352 12q-12 -37 -17 -65.5t-5 -63.5q-39 10 -104.5 18.5t-137.5 8.5h-51q-20 -4 -29 -4q0 -61 51 -274t138 -468t182 -430q-74 0 -115 -5t-121 -25 q0 133 -28.5 260t-59.5 229l-254 2q-23 -74 -44 -215l-38 -260q-55 6 -94 6q-35 0 -70.5 -6t-76.5 -16zM410 590q16 0 55 -2t63 -2q43 0 82 8q0 51 -33 192l-69 275l-63 -287q-31 -149 -35 -184z" />
<glyph unicode="&#xe1;" d="M66 -10q111 303 206 630.5t127 569.5q-6 2 -26 2q-119 0 -307 -62q4 37 7 86.5t3 81.5q23 -2 228.5 -7t283.5 -5q248 0 352 12q-12 -37 -17 -65.5t-5 -63.5q-39 10 -104.5 18.5t-137.5 8.5h-51q-20 -4 -29 -4q0 -61 51 -274t138 -468t182 -430q-74 0 -115 -5t-121 -25 q0 133 -28.5 260t-59.5 229l-254 2q-23 -74 -44 -215l-38 -260q-55 6 -94 6q-35 0 -70.5 -6t-76.5 -16zM410 590q16 0 55 -2t63 -2q43 0 82 8q0 51 -33 192l-69 275l-63 -287q-31 -149 -35 -184z" />
<glyph unicode="&#xe2;" d="M66 -10q111 303 206 630.5t127 569.5q-6 2 -26 2q-119 0 -307 -62q4 37 7 86.5t3 81.5q23 -2 228.5 -7t283.5 -5q248 0 352 12q-12 -37 -17 -65.5t-5 -63.5q-39 10 -104.5 18.5t-137.5 8.5h-51q-20 -4 -29 -4q0 -61 51 -274t138 -468t182 -430q-74 0 -115 -5t-121 -25 q0 133 -28.5 260t-59.5 229l-254 2q-23 -74 -44 -215l-38 -260q-55 6 -94 6q-35 0 -70.5 -6t-76.5 -16zM410 590q16 0 55 -2t63 -2q43 0 82 8q0 51 -33 192l-69 275l-63 -287q-31 -149 -35 -184z" />
<glyph unicode="&#xe3;" d="M66 -10q111 303 206 630.5t127 569.5q-6 2 -26 2q-119 0 -307 -62q4 37 7 86.5t3 81.5q23 -2 228.5 -7t283.5 -5q248 0 352 12q-12 -37 -17 -65.5t-5 -63.5q-39 10 -104.5 18.5t-137.5 8.5h-51q-20 -4 -29 -4q0 -61 51 -274t138 -468t182 -430q-74 0 -115 -5t-121 -25 q0 133 -28.5 260t-59.5 229l-254 2q-23 -74 -44 -215l-38 -260q-55 6 -94 6q-35 0 -70.5 -6t-76.5 -16zM410 590q16 0 55 -2t63 -2q43 0 82 8q0 51 -33 192l-69 275l-63 -287q-31 -149 -35 -184z" />
<glyph unicode="&#xe4;" d="M66 -10q111 303 206 630.5t127 569.5q-6 2 -26 2q-119 0 -307 -62q4 37 7 86.5t3 81.5q23 -2 228.5 -7t283.5 -5q248 0 352 12q-12 -37 -17 -65.5t-5 -63.5q-39 10 -104.5 18.5t-137.5 8.5h-51q-20 -4 -29 -4q0 -61 51 -274t138 -468t182 -430q-74 0 -115 -5t-121 -25 q0 133 -28.5 260t-59.5 229l-254 2q-23 -74 -44 -215l-38 -260q-55 6 -94 6q-35 0 -70.5 -6t-76.5 -16zM410 590q16 0 55 -2t63 -2q43 0 82 8q0 51 -33 192l-69 275l-63 -287q-31 -149 -35 -184z" />
<glyph unicode="&#xe5;" d="M66 -10q111 303 206 630.5t127 569.5q-6 2 -26 2q-119 0 -307 -62q4 37 7 86.5t3 81.5q23 -2 228.5 -7t283.5 -5q248 0 352 12q-12 -37 -17 -65.5t-5 -63.5q-39 10 -104.5 18.5t-137.5 8.5h-51q-20 -4 -29 -4q0 -61 51 -274t138 -468t182 -430q-74 0 -115 -5t-121 -25 q0 133 -28.5 260t-59.5 229l-254 2q-23 -74 -44 -215l-38 -260q-55 6 -94 6q-35 0 -70.5 -6t-76.5 -16zM410 590q16 0 55 -2t63 -2q43 0 82 8q0 51 -33 192l-69 275l-63 -287q-31 -149 -35 -184z" />
<glyph unicode="&#x152;" horiz-adv-x="3020" d="M1655 844q0 -334 304 -584t632 -250q80 2 172 8.5t186 32.5l10 277q-90 -94 -203.5 -144.5t-240.5 -50.5q-201 0 -346 110.5t-199.5 266.5t-54.5 340l809 -92l164 297q-88 -41 -170 -67.5t-214 -53.5t-278 -27q-127 0 -311 35q0 182 85 347t220 217.5t242 52.5 q139 0 259 -66t198 -193l51 246q-135 53 -229.5 72.5t-395.5 19.5q-328 0 -490.5 -200.5t-180 -371.5t-18.5 -186.5t-1 -35.5zM18 911q0 238 125 421.5t338 275.5q76 33 158 49t162 16q262 0 481 -163.5t286.5 -370.5t67.5 -359q0 -252 -133 -450.5t-309 -261t-297 -62.5 q-233 0 -449.5 119t-323 349t-106.5 437zM233 942q0 -78 17 -170q43 -250 237.5 -442.5t417.5 -192.5q106 0 230.5 61.5t200 204t75.5 322.5q0 94 -37 269t-226.5 358.5t-408.5 183.5q-106 0 -233 -65.5t-200 -207t-73 -321.5z" />
<glyph unicode="&#x153;" horiz-adv-x="2416" d="M1325 674q0 -268 241.5 -467t505.5 -199q66 2 139.5 7t147.5 26l8 221q-72 -78 -163 -117t-191 -39q-162 0 -278.5 88.5t-159.5 213t-43 272.5l647 -74l131 238q-139 -63 -278.5 -90t-251.5 -27q-113 0 -248 27q0 147 66.5 278t177 173t192.5 42q111 0 207 -53t160 -154 l41 197q-115 45 -185.5 59.5t-314.5 14.5q-260 0 -392 -162t-144.5 -298t-13.5 -153.5t-1 -23.5zM16 729q0 188 99.5 335.5t269.5 221.5q125 53 256 53q211 0 385 -131t228.5 -294.5t54.5 -288.5q0 -201 -106.5 -361t-245 -209t-238.5 -49q-188 0 -361.5 95.5t-237 231.5 t-84 228t-20.5 168zM188 756q0 -66 13 -138q35 -201 189.5 -355t334.5 -154q82 0 181.5 50t160.5 165.5t61 255.5q0 78 -29.5 217t-182 285.5t-326.5 146.5q-88 0 -186.5 -52.5t-157 -164t-58.5 -256.5z" />
<glyph unicode="&#x2013;" horiz-adv-x="1024" d="M205 512v205h614v-205h-614z" />
<glyph unicode="&#x2014;" horiz-adv-x="2048" d="M205 512v205h1638v-205h-1638z" />
<glyph unicode="&#x2122;" horiz-adv-x="3164" d="M1333 0q53 141 142 452.5t150.5 603.5t61.5 470q0 80 -14 123q49 -8 75.5 -10.5t57.5 -2.5h68l57 9q-2 -12 -2 -43q0 -129 72.5 -394.5t153.5 -493t114 -288.5q43 86 106.5 433t63.5 585q0 137 -23 211q49 -8 76 -10.5t58 -2.5h67l57 9q-2 -12 -2 -43q0 -227 166 -766 t318 -828q-47 0 -96.5 2t-106.5 7h-40q-13 0 -75 -9q0 135 -62.5 404.5t-145 559.5t-85.5 290q-2 0 -40.5 -243t-74.5 -543t-36 -476q-45 0 -91 2t-98 6q-45 0 -108 -8q4 37 4 66q0 156 -61.5 425t-133 508.5t-75.5 239.5q-2 0 -53.5 -263t-89.5 -527.5t-38 -454.5 q-47 0 -96 2t-106 6h-40q-14 0 -75 -8zM6 1376q88 31 242.5 47.5t298.5 26.5v-20v-27q0 -195 -5 -455t-23.5 -532.5t-55.5 -415.5q49 8 82 10t78 2q68 0 147 -8q-20 205 -33.5 554t-16.5 555l-5 337q176 -12 358 -29.5t227 -50.5q-23 80 -22 180q0 51 6 101 q-102 -10 -267 -14.5t-386 -4.5q-207 0 -356.5 4t-241.5 15v-41q0 -59 -3.5 -111.5t-23.5 -122.5z" />
<glyph unicode="&#xe000;" horiz-adv-x="1305" d="M0 1305h1305v-1305h-1305v1305z" />
<glyph unicode="&#xfb01;" horiz-adv-x="1236" d="M913 1311q33 -86 51.5 -277.5t18.5 -398.5q0 -209 -13.5 -370t-40.5 -265q57 8 109 8q23 0 76 -2t61 -2q-20 213 -32.5 412.5t-12.5 382.5q0 145 8 271t29 241q-51 0 -88 -2l-72 -4q-35 0 -94 6zM8 0q16 8 61.5 14t82.5 6q57 0 84 -8q-18 106 -37 279.5t-19 271.5v51 q4 18 4 25q82 20 201 20q121 0 225 -20q-2 6 -2 23q0 49 56 133q-82 -16 -185.5 -26.5t-185.5 -10.5h-62l-47 8v53q0 96 27 170t123 137.5t176 63.5q66 0 117 -39t102 -111q14 43 60.5 77t89.5 34q-63 90 -110.5 128t-156.5 38q-37 0 -132 -13.5t-174 -77t-130 -126.5 l-20 178q-23 -6 -37 -6q-27 0 -49.5 7t-61.5 32q20 -61 30.5 -217t10.5 -330q0 -252 -12.5 -468t-28.5 -296z" />
<glyph unicode="&#xfb02;" horiz-adv-x="1701" d="M913 1311q33 -86 51.5 -277.5t18.5 -398.5q0 -209 -13.5 -370t-40.5 -265q94 12 324 12q150 0 247 -5t183 -19q0 20 -2 46.5t-2 39.5q0 27 8 65q-100 -25 -257 -31t-292 -8q-2 51 -6 194.5t-4 309.5q0 246 7 406.5t32 300.5q-51 0 -88 -2l-72 -4q-35 0 -94 6zM8 0 q16 8 61.5 14t82.5 6q57 0 84 -8q-18 106 -37 279.5t-19 271.5v51q4 18 4 25q82 20 201 20q121 0 225 -20q-2 6 -2 23q0 49 56 133q-82 -16 -185.5 -26.5t-185.5 -10.5h-62l-47 8v53q0 96 27 170t123 137.5t176 63.5q66 0 117 -39t102 -111q14 43 60.5 77t89.5 34 q-63 90 -110.5 128t-156.5 38q-37 0 -132 -13.5t-174 -77t-130 -126.5l-20 178q-23 -6 -37 -6q-27 0 -49.5 7t-61.5 32q20 -61 30.5 -217t10.5 -330q0 -252 -12.5 -468t-28.5 -296z" />
<glyph unicode="&#xfb03;" horiz-adv-x="2109" d="M1786 1311q33 -86 51.5 -277.5t18.5 -398.5q0 -209 -13.5 -370t-40.5 -265q57 8 109 8q23 0 76 -2t61 -2q-20 213 -32.5 412.5t-12.5 382.5q0 145 8 271t29 241q-51 0 -88 -2l-72 -4q-35 0 -94 6zM880 0q16 8 61.5 14t82.5 6q57 0 84 -8q-18 106 -37 279.5t-19 271.5v51 q4 18 4 25q82 20 201 20q121 0 225 -20q-2 6 -2 23q0 49 56 133q-82 -16 -185.5 -26.5t-185.5 -10.5h-62l-47 8v53q0 96 27 170t123 137.5t176 63.5q66 0 117 -39t102 -111q14 43 60.5 77t89.5 34q-63 90 -110.5 128t-156.5 38q-37 0 -132 -13.5t-174 -77t-130 -126.5 l-20 178q-23 -6 -37 -6q-27 0 -49.5 7t-61.5 32q20 -61 30.5 -217t10.5 -330q0 -252 -12.5 -468t-28.5 -296zM8 0q16 8 61.5 14t82.5 6q57 0 84 -8q-18 106 -37 279.5t-19 271.5v51q4 18 4 25q82 20 201 20q121 0 225 -20q-2 6 -2 23q0 49 56 133q-82 -16 -185.5 -26.5 t-185.5 -10.5h-62l-47 8v53q0 96 27 170t123 137.5t176 63.5q66 0 117 -39t102 -111q14 43 60.5 77t89.5 34q-63 90 -110.5 128t-156.5 38q-37 0 -132 -13.5t-174 -77t-130 -126.5l-20 178q-23 -6 -37 -6q-27 0 -49.5 7t-61.5 32q20 -61 30.5 -217t10.5 -330 q0 -252 -12.5 -468t-28.5 -296z" />
<glyph unicode="&#xfb04;" horiz-adv-x="2574" d="M1786 1311q33 -86 51.5 -277.5t18.5 -398.5q0 -209 -13.5 -370t-40.5 -265q94 12 324 12q150 0 247 -5t183 -19q0 20 -2 46.5t-2 39.5q0 27 8 65q-100 -25 -257 -31t-292 -8q-2 51 -6 194.5t-4 309.5q0 246 7 406.5t32 300.5q-51 0 -88 -2l-72 -4q-35 0 -94 6zM880 0 q16 8 61.5 14t82.5 6q57 0 84 -8q-18 106 -37 279.5t-19 271.5v51q4 18 4 25q82 20 201 20q121 0 225 -20q-2 6 -2 23q0 49 56 133q-82 -16 -185.5 -26.5t-185.5 -10.5h-62l-47 8v53q0 96 27 170t123 137.5t176 63.5q66 0 117 -39t102 -111q14 43 60.5 77t89.5 34 q-63 90 -110.5 128t-156.5 38q-37 0 -132 -13.5t-174 -77t-130 -126.5l-20 178q-23 -6 -37 -6q-27 0 -49.5 7t-61.5 32q20 -61 30.5 -217t10.5 -330q0 -252 -12.5 -468t-28.5 -296zM8 0q16 8 61.5 14t82.5 6q57 0 84 -8q-18 106 -37 279.5t-19 271.5v51q4 18 4 25 q82 20 201 20q121 0 225 -20q-2 6 -2 23q0 49 56 133q-82 -16 -185.5 -26.5t-185.5 -10.5h-62l-47 8v53q0 96 27 170t123 137.5t176 63.5q66 0 117 -39t102 -111q14 43 60.5 77t89.5 34q-63 90 -110.5 128t-156.5 38q-37 0 -132 -13.5t-174 -77t-130 -126.5l-20 178 q-23 -6 -37 -6q-27 0 -49.5 7t-61.5 32q20 -61 30.5 -217t10.5 -330q0 -252 -12.5 -468t-28.5 -296z" />
</font>
</defs>
</svg>
