<?xml version="1.0" standalone="no"?>
<!DOCTYPE svg PUBLIC "-//W3C//DTD SVG 1.1//EN" "http://www.w3.org/Graphics/SVG/1.1/DTD/svg11.dtd" >
<svg xmlns="http://www.w3.org/2000/svg">
<metadata>
This is a custom SVG webfont generated by Font Squirrel.
Copyright   : Generated by Fontographer 35
</metadata>
<defs>
<font id="StonehengeRegular" horiz-adv-x="0" >
<font-face units-per-em="2048" ascent="1638" descent="-410" />
<missing-glyph horiz-adv-x="1024" />
<glyph unicode=" "  horiz-adv-x="1024" />
<glyph unicode="&#x09;" horiz-adv-x="1024" />
<glyph unicode="&#xa0;" horiz-adv-x="1024" />
<glyph unicode="!" horiz-adv-x="405" d="M0 1315q72 8 115 27.5t147 84.5l66 41l-6 -20l-7 -18l-8 -29q-12 -49 -18 -98.5t-6 -71.5v-789l6 -47l24 -45h-92h-94q12 14 23.5 41t7.5 51l-37 711q0 94 -101 152zM111 90q0 45 34.5 78t75.5 33q43 0 78 -33t35 -78q0 -47 -33 -78q-35 -35 -80 -35q-43 0 -76.5 34 t-33.5 79z" />
<glyph unicode="&#x22;" horiz-adv-x="485" d="M70 1434h133l-19 -62q-16 -59 -22 -118.5t-6 -123.5h-39q0 80 -4 125t-23 117zM299 1434h133l-20 -62q-16 -59 -22.5 -118.5t-6.5 -123.5h-37q0 63 -3 111.5t-28 130.5z" />
<glyph unicode="#" horiz-adv-x="1050" d="M-16 451l30 90h226l94 286h-230l29 91h229l170 516h93l-170 -516h299l170 516h92l-170 -516h205l-29 -91h-205l-94 -286h209l-31 -90h-207l-147 -451h-92l147 451h-301l-147 -451h-91l148 451h-227zM330 541h301l94 286h-299z" />
<glyph unicode="$" horiz-adv-x="1163" d="M70 1044q0 90 49 175.5t143 140.5q49 29 109.5 47t146.5 29l53 2q-12 41 -31.5 74.5t-68.5 97.5l-20 28h196v-200l33 -2l35 -2q94 -8 190 -33t187 -64l-9 -18l-4 -8l-24 -58l-13 -22q-8 -20 -15 -50t-7 -71l-27 29l-4 6l-28 47q-16 29 -39 52.5t-66 60.5q-88 70 -176 84 l-14 4l-19 2v-615l23 -4l22 -4q76 -16 130.5 -37.5t113.5 -54.5q158 -94 158 -264q0 -72 -36 -143.5t-110 -133.5q-29 -27 -30 -26q-16 -8 -23 -11q-143 -94 -248 -94v-106q0 -80 21 -138h-60h-57q20 63 20 138v96h-28h-27q-63 0 -122.5 10t-133.5 31l-100 37l12 28l4 5 l39 88v82l10 45q12 -14 24.5 -40t29 -69t77 -87t142.5 -65l39 -6l14 -2h20v602l-26 5l-27 6q-104 20 -188 57q-55 25 -90 46.5t-66 47.5q-104 86 -104 225zM180 1128q0 -104 84 -186q43 -43 110.5 -78t155.5 -55l21 -6l20 -4v598l-34 -4q-94 -10 -149.5 -27.5t-104.5 -50.5 q-103 -68 -103 -187zM647 55l84 13q39 8 84 32q76 39 116 102.5t40 139.5q0 106 -86 184q-41 35 -88 58.5t-117 42.5l-33 8v-580z" />
<glyph unicode="%" horiz-adv-x="1460" d="M72 1126q0 121 62.5 206t172.5 118q51 14 107 14q141 0 235 -96t94 -242q0 -121 -62.5 -206.5t-172.5 -114.5q-51 -14 -109 -14q-141 0 -234 95t-93 240zM176 0l29 35l26 33l70 90l27 37l10 16l629 893l18 29q61 98 76.5 134t15.5 91l-2 76h199l-858 -1223l-31 -51 l-21 -34q-11 -17 -38 -52l-37 -74h-58h-55zM186 1118q0 -37 11 -82q23 -106 78 -160.5t133 -54.5q92 0 156.5 80t64.5 225t-63.5 225.5t-157.5 80.5q-92 0 -154 -78q-68 -86 -68 -236zM717 301q0 121 63.5 207t171.5 115q51 14 109 14q141 0 234.5 -95.5t93.5 -240.5 q0 -121 -62.5 -206t-173.5 -118q-51 -14 -106 -14q-141 0 -235.5 96.5t-94.5 241.5zM829 315q0 -49 13 -104q23 -106 79 -160.5t132 -54.5q94 0 156.5 80t62.5 225t-63.5 226t-155.5 81q-88 0 -156 -81t-68 -212z" />
<glyph unicode="&#x26;" horiz-adv-x="2240" d="M72 713q0 215 131 397q121 170 278.5 257t319.5 87q182 0 325 -106q0 -25 -11 -34t-60 -30l-62 -98l-43 -51l13 65q6 35 6 64q0 129 -172 129q-35 0 -82 -7q-123 -14 -229.5 -110t-170.5 -264q-12 -31 -19 -56.5t-15 -66.5q76 125 201.5 193.5t269.5 68.5q102 0 194 -34 t173 -105.5t134.5 -158.5t108.5 -245l16 -45l33 -100q39 -117 80 -183.5t104 -119.5q125 -106 260 -107q39 0 75 8.5t62.5 18.5t47.5 22l8 4l53 39l19 15q-27 -51 -75 -84t-142 -60q-20 -6 -46 -12t-61 -6q-188 0 -287 59q-113 68 -235 281l-14 29l-7 14l-8 20l-33 -73 q-90 -176 -204.5 -257t-286.5 -81q-205 0 -363 116q-168 125 -245 357q-41 123 -41 250zM231 582q0 -195 89.5 -325t250.5 -181q27 -10 69 -16.5t77 -6.5q43 0 72.5 4t70.5 19q158 47 249 181t91 325q0 190 -90 322t-250 183q-68 20 -143 21q-78 0 -146 -21 q-158 -49 -249 -182t-91 -323zM1128 1053l13 16l6 8q12 14 27.5 29.5t44.5 40.5q12 10 21 32.5t13 65.5q37 0 62.5 -8t101.5 -49q12 -6 31 -6q37 0 141 37l150 53l16 6l64 27l92 32q119 47 211 47q49 0 104 -12q-45 -8 -80 -35l-51 -45l-37 -26q-66 20 -106 20 q-66 0 -189 -41l-196 -71q-158 -57 -241 -81t-198 -40z" />
<glyph unicode="'" horiz-adv-x="262" d="M86 1434h133l-20 -62q-16 -59 -22.5 -118.5t-6.5 -123.5h-37q0 63 -3 111.5t-28 130.5z" />
<glyph unicode="(" horiz-adv-x="397" d="M74 694q0 358 76 563q68 182 235 345q-53 -102 -95 -232.5t-67 -279.5q-16 -88 -24.5 -203t-8.5 -213q0 -195 44.5 -391.5t125.5 -386.5l-34 -27l-31 -29l-35 -24l-31 -29q-88 176 -121.5 379.5t-33.5 527.5z" />
<glyph unicode=")" horiz-adv-x="397" d="M14 -213q109 209 164 510q14 92 21.5 197.5t7.5 218.5q0 195 -44 391t-126 385l35 29l34 26l31 29l33 26q90 -176 122 -375.5t32 -533.5q0 -354 -76 -561q-68 -184 -234 -342z" />
<glyph unicode="*" horiz-adv-x="722" d="M57 1157q80 63 80 166q0 12 -4 41l189 -131l-60 223q27 -16 48.5 -23.5t47.5 -7.5q68 0 113 31l-63 -227l196 133q-10 -29 -10 -33v-24q0 -88 72 -144l-220 -26l166 -142q-6 2 -12 2h-10q-47 0 -92 -28q-23 -16 -37.5 -39t-22.5 -54l-80 199l-90 -199q-10 59 -55 94.5 t-107 35.5l166 135z" />
<glyph unicode="+" horiz-adv-x="1136" d="M180 627v112q98 -25 240 -32q45 -2 121 -5q0 74 -2 119q-8 129 -35 240h112q-25 -96 -29.5 -189.5t-6.5 -169.5q74 0 118 3q129 8 240 34v-114q-96 25 -238 34q-45 2 -120 5q0 -74 5 -161t31 -198h-112q25 96 33 238q2 45 4 121q-74 0 -161 -5t-200 -32z" />
<glyph unicode="," horiz-adv-x="321" d="M51 106q-6 41 20.5 74t69.5 33q45 0 82 -35t37 -90q0 -53 -16.5 -100t-65.5 -113q-45 -66 -121 -106q63 51 64 127q0 25 -9.5 56.5t-17.5 43.5q-31 53 -43 110z" />
<glyph unicode="-" horiz-adv-x="677" d="M43 393l80 139h510l-80 -139h-510z" />
<glyph unicode="." horiz-adv-x="409" d="M102 90q0 45 35 78t76 33q43 0 78 -33t35 -78q0 -47 -33 -78q-35 -35 -80 -35q-43 0 -77 34t-34 79z" />
<glyph unicode="/" horiz-adv-x="1087" d="M0 -143l23 32l24 37l33 47l26 41l13 23l16 29l688 1187l13 27q41 84 54 130t13 95l-14 76h198l-874 -1515l-27 -50l-41 -85q-18 -40 -30 -74h-58h-57z" />
<glyph unicode="0" horiz-adv-x="1089" d="M57 666q0 123 27 236.5t76 209.5q61 123 162.5 188.5t220.5 65.5q158 0 283.5 -115.5t179.5 -341.5q27 -121 26 -245q0 -186 -56 -341t-149 -239q-127 -117 -286 -117q-115 0 -217.5 64.5t-163.5 185.5q-51 98 -77 210t-26 239zM221 666q0 -94 21.5 -215t49 -198 t70.5 -132q78 -96 183 -96q104 0 180 94q43 55 73.5 134t53.5 216q8 39 12 93t4 104q0 35 -1 77.5t-15 116.5q-25 143 -52.5 218t-74.5 132q-78 96 -180 97q-102 0 -183 -97q-43 -55 -70.5 -132t-53.5 -224q-17 -102 -17 -188z" />
<glyph unicode="1" horiz-adv-x="581" d="M80 1208l125 97l86 57q8 4 27.5 1t29.5 -19.5t14.5 -36t4.5 -37.5v-1092q0 -70 6 -101.5t30 -76.5h-227q23 39 31 76t8 102v998q0 14 -25.5 25t-80.5 11z" />
<glyph unicode="2" horiz-adv-x="1021" d="M37 0l78 61l82 70q313 272 462 496q135 203 136 364q0 86 -41 163t-114 122t-157 45q-68 0 -135 -31l39 -229l-20 4l-33 8q-66 12 -105 12h-39q-2 0 -45 -8l-34 -4l-15 -2q53 143 190.5 223t336.5 80q143 0 230 -85t87 -224q0 -84 -33 -170q-43 -115 -100 -209t-164 -217 q-63 -72 -131 -137.5t-170 -151.5l-47 -37l-35 -28h477q63 0 108.5 12t104.5 49l39 21l17 10l-29 -51q-45 -80 -63.5 -128t-30.5 -114l-25 14q-78 39 -144.5 55.5t-156.5 16.5h-520z" />
<glyph unicode="3" horiz-adv-x="1093" d="M55 135l58 15q102 27 159 55l19 10l20 12q-2 -8 -2 -26q0 -78 51.5 -131.5t131.5 -53.5q82 0 153.5 36t125.5 114t54 196q0 47 -3 68t-13 57q-35 139 -156 226q-51 33 -103 52t-106 19l25 4l20 5q18 4 42 13l63 25q16 6 35 17l28 16q72 43 107 100.5t35 118.5 q0 96 -78 156q-70 51 -142.5 76.5t-138.5 25.5q-57 0 -94 -43t-29 -100q10 -74 70 -113l-20 9l-37 14q-66 20 -108 28.5t-103 8.5l-47 2h-9q76 111 197 169t287 58q74 0 142.5 -11t119.5 -30q82 -33 126 -93t44 -130q0 -80 -57 -143q-37 -39 -88.5 -71t-128.5 -65l-60 -18 l19 -6l16 -6q63 -25 139 -78l51 -41q82 -70 121 -148.5t39 -164.5q0 -96 -52 -180.5t-151 -137.5q-135 -74 -299 -74q-25 0 -54.5 3.5l-45.5 5.5q-180 29 -255 60.5t-118 88.5z" />
<glyph unicode="4" horiz-adv-x="1067" d="M57 477l15 21l12 16q20 31 48 81t46 93q12 29 27.5 74t21.5 65q41 160 41 246q0 88 -37.5 137.5t-117.5 83.5l-50 23l105 18l10 2l62 9q31 4 55 9t70 21l24 10q14 2 19 3q20 -4 29 -16.5t9 -45.5q0 -63 -69 -403l-35 -117q-29 -84 -50.5 -135t-35.5 -78l-8 -16l-12 -25 h380v547q0 35 -20.5 69.5t-73.5 79.5l-18 13q41 8 77.5 21t71.5 32l105 71l18 11l47 33l-6 -21l-8 -20l-14 -39q-25 -86 -25 -168v-629h264l-174 -76h-90v-299q0 -57 2 -78.5t14 -56.5l21 -43h-227l20 43q12 41 14 68.5t2 66.5v299h-559z" />
<glyph unicode="5" horiz-adv-x="1089" d="M33 147q115 0 196 82l13 15l10 8q10 -43 12 -47q6 -14 15 -27q70 -137 202 -158q37 -4 56 -4q113 0 188.5 74t105.5 225q8 35 10.5 66t2.5 72q0 190 -94.5 290.5t-272.5 100.5q-51 0 -108.5 -8.5t-126 -29t-133.5 -52.5v489q0 10 14 31.5t51 52.5q47 39 88 39h719 l-16 -10q-49 -33 -77 -75t-46 -114l-4 -22l-39 45q-63 63 -112.5 83.5t-133.5 20.5h-274v-420l34 7l41 4l88 6q281 0 423.5 -110.5t142.5 -317.5q0 -41 -7 -88q-33 -238 -225 -344q-102 -59 -262 -60q-72 0 -135.5 11.5t-136.5 37.5q-57 18 -95 40t-79 55l-19 16z" />
<glyph unicode="6" horiz-adv-x="1056" d="M70 588q0 340 206.5 559t511.5 219h248l-12 -8l-23 -17q-76 -53 -112 -151l-8 -27l-7 -18q-29 45 -71 82q-90 68 -180 67q-96 0 -176 -68.5t-134 -209.5q-31 -78 -42 -228.5t-11 -367.5q0 -39 2 -55q12 -53 14 -74q55 -272 246 -273q43 0 99 17q147 45 196 239 q16 61 17 123q0 29 -3 43q-12 143 -79.5 221t-167.5 78q-63 0 -140 -34l-53 -25q35 57 91.5 87t138.5 30q39 0 100 -11q129 -25 206 -113.5t77 -213.5q0 -92 -46 -189q-29 -59 -77 -118q-72 -84 -159 -126t-185 -42q-190 0 -310 122q-125 129 -151 369z" />
<glyph unicode="7" horiz-adv-x="925" d="M14 1186l35 55q51 82 71.5 128t33.5 112l10 -11l14 -10q109 -94 305 -94h510l-14 -16l-12 -15l-33 -37l-35 -45l-45 -53l-43 -57q-100 -131 -148.5 -230.5t-89.5 -261.5l-34 -176q-14 -88 -22.5 -193.5t-8.5 -281.5l-31 -10l-24 -6l-29 -9l-78 -20l-14 -4l-45 -12 q0 104 20.5 216.5t61.5 272.5l61 211q61 184 112.5 280.5t176.5 256.5l51 59l25 29l28 30h-465q-96 0 -152 -14t-132 -57l-41 -25z" />
<glyph unicode="8" horiz-adv-x="1089" d="M53 371q0 240 264 350l43 16l17 4l16 4l-31 9q-102 41 -158.5 120.5t-56.5 184.5q0 139 107.5 231t292.5 92q186 0 292.5 -90t106.5 -233q0 -104 -57.5 -184t-163.5 -121l-33 -9l19 -4l16 -4l41 -16q127 -53 197.5 -146.5t70.5 -203.5q0 -70 -30 -148 q-45 -119 -165 -188.5t-298 -69.5q-174 0 -294 69.5t-165 188.5q-31 78 -31 148zM221 365q0 -37 2 -53.5t13 -51.5q23 -92 70.5 -148.5t118.5 -81t126 -24.5q133 0 222 99.5t89 261.5q0 164 -89 263t-224 99q-57 0 -121 -22q-90 -33 -148.5 -125t-58.5 -217zM281 1055 q0 -37 10 -84q25 -94 93.5 -150.5t156.5 -56.5q16 0 37.5 1t58.5 15q78 31 125 103.5t47 175.5q0 100 -47 174t-127 102q-49 18 -96 19q-109 0 -183.5 -83t-74.5 -216z" />
<glyph unicode="9" horiz-adv-x="1040" d="M18 -16l17 8l20 16q80 53 113 152l10 26l6 19q29 -49 72 -82q90 -68 182 -68q96 0 176 69t134 210q33 82 43 219t10 377q0 43 -3 64.5t-14 64.5q-57 272 -247 272q-41 0 -97 -16q-147 -45 -202 -240q-8 -35 -10.5 -66.5t-2.5 -78.5v-21q14 -143 83 -221t169 -78 q63 0 139 35l52 25q-33 -57 -91.5 -87t-142.5 -30q-25 0 -41 2t-55 8q-129 25 -206 114t-77 214q0 94 45 190q12 25 33 56.5t43 60.5q74 86 160 127t186 41q190 0 313 -127t152 -367q6 -59 6 -114q0 -334 -207.5 -554t-515.5 -220h-252z" />
<glyph unicode=":" horiz-adv-x="393" d="M86 90q0 43 31 78q37 33 80 33q45 0 78.5 -34t33.5 -77q0 -47 -35 -78q-31 -35 -77 -35q-45 0 -78 35t-33 78zM86 711q0 43 31 80q35 31 80 30q47 0 79.5 -32.5t32.5 -75.5q0 -45 -35 -80q-31 -33 -77 -33q-47 0 -79 34t-32 77z" />
<glyph unicode=";" horiz-adv-x="395" d="M86 711q0 43 31 80q35 31 80 30q47 0 79.5 -32.5t32.5 -75.5q0 -45 -35 -80q-31 -33 -77 -33q-47 0 -79 34t-32 77zM104 106q-8 41 17.5 74t68.5 33q47 0 84 -35t37 -90q4 -47 -13 -96t-66.5 -117t-122.5 -106q66 53 65 127q0 25 -10 59q-2 8 -8 20q-4 6 -14.5 24.5 t-23 49t-14.5 57.5z" />
<glyph unicode="&#x3c;" horiz-adv-x="1228" d="M170 367v155l889 383v-117l-797 -344l797 -335v-125z" />
<glyph unicode="=" horiz-adv-x="819" d="M92 410v116h660v-116h-660zM92 686v117h660v-117h-660z" />
<glyph unicode="&#x3e;" horiz-adv-x="1228" d="M219 -16v125l797 335l-797 344v117l889 -383v-155z" />
<glyph unicode="?" horiz-adv-x="860" d="M25 1167q0 123 143 224q94 61 213 61q74 0 154 -25q166 -51 237 -196q45 -82 45 -178q0 -133 -59.5 -223.5t-186.5 -162t-127 -151.5q0 -57 60 -123l33 -35l4 -6l-52 2l-24 2l-88 9l-10 2l-66 -9l-39 4q10 84 52 143.5t196 203t154 360.5q0 150 -54.5 232.5t-148.5 103.5 q-29 6 -55 6q-106 0 -183.5 -79t-77.5 -208q0 -63 13.5 -109t48.5 -93q-61 23 -105 67q-77 90 -77 178zM293 90q0 45 34.5 78t78.5 33q45 0 77.5 -33t32.5 -78q0 -47 -33 -78q-31 -35 -77 -35q-45 0 -79 34t-34 79z" />
<glyph unicode="@" horiz-adv-x="1673" d="M57 717q0 334 220.5 563t570.5 229q360 0 563 -206q197 -201 197 -537q0 -133 -84 -230.5t-217 -97.5q-96 0 -151.5 22.5t-113.5 92.5q-33 39 -55 70q-6 10 -16 24q-8 -12 -15 -18q-57 -68 -106 -99.5t-100 -37.5q-68 -8 -117 37.5t-49 115.5t48 125t144 90q37 16 86 23 l-35 73q-27 51 -77 52q-20 0 -37 -9q12 12 24.5 22.5t36.5 25.5l12 8q20 10 27 57l10 -10l8 -10q12 -12 27.5 -36t34.5 -59l14 -26q29 -76 47 -119q55 -127 115 -215q45 -68 76 -90q59 -43 162 -43q106 0 176 100q55 80 55 154q0 242 -70 379q-57 115 -180 184 q-70 39 -241 96q-80 27 -205 27q-61 0 -120.5 -8.5t-107.5 -22.5q-203 -68 -338 -248q-150 -199 -149 -448q0 -291 143 -455q123 -139 385 -225q78 -25 193 -25q133 0 235 33q127 41 166 61q104 53 215 228q16 -6 35 -10l35 -21q-102 -168 -250 -254q-174 -100 -436 -100 q-371 0 -586 221q-205 211 -205 547zM659 682q0 -59 33 -94t88 -35q39 0 65.5 13.5t65.5 45.5q12 10 24.5 22.5t27.5 31.5l-93 198q-33 0 -67 -12q-144 -59 -144 -170z" />
<glyph unicode="A" horiz-adv-x="1370" d="M55 195q0 180 75 359t218 333q129 133 295 223l-10 25q-61 141 -127 207.5t-166 95.5l66 -2l26 -2l152 -4h24q53 4 68 4q31 0 59 -56l127 -282l154 -359l26 -63l123 -277q66 -154 119 -237q47 -74 127 -160h-252q-31 90 -61.5 164t-96.5 217l-63 137l-43 88 q-23 53 -43.5 91t-40.5 81l-16 33l-21 37l-41 -53l-31 -39l-170 -215l-208 -258l-170 -215l-72 -93q-27 105 -27 220zM223 303q0 -49 19 -67l516 645l-90 182q-70 -10 -129.5 -58.5t-163.5 -181.5q-45 -59 -79 -132t-49.5 -140.5t-18.5 -84.5t-3 -50q0 -35 -1 -62.5 t-1 -50.5z" />
<glyph unicode="B" horiz-adv-x="1140" d="M-49 1425l39 15q47 10 82 10q150 0 202 -113q39 33 85.5 56.5t107.5 41t123 17.5q35 0 76 -6q72 -14 113.5 -57t41.5 -99q0 -35 -15 -69.5t-41 -65.5t-85 -80q-18 -18 -64 -47l-49 -31l-32 -20l26 -2l31 -2l67 -10q201 -39 313.5 -158t112.5 -283q0 -82 -30 -168 q-57 -162 -215 -252q-182 -104 -490 -104h-64q-32 0 -63 -2h-47q-23 4 -31 4v1190q0 195 -176 231zM287 1311q18 -43 18 -90v-220l47 -6q113 0 193 45t108 119q14 37 15 76q0 68 -42 116t-104 48h-40q-19 0 -42 -4q-94 -21 -153 -84zM305 70q0 -14 31 -21.5t113 -7.5l69 12 q190 47 287.5 165t97.5 286q0 133 -75.5 236.5t-215.5 160.5q-70 29 -125 42t-94 13q-43 0 -65.5 -13t-22.5 -28v-845z" />
<glyph unicode="C" horiz-adv-x="1529" d="M57 739q0 309 220.5 501t586.5 192l76 2h561l-10 -9l-14 -14q-39 -37 -56.5 -76t-17.5 -102v-23q-76 80 -176.5 121t-243.5 41q-319 0 -516 -159.5t-227 -452.5q-4 -23 -4 -49v-41q0 -274 176 -454.5t434 -180.5h33q25 4 36 4q242 25 412 205q14 14 40 46t36 46l-2 -35 l-2 -39v-37v-39q-109 -98 -242 -150t-297 -52q-285 0 -469 103t-280 321q-31 74 -42.5 150.5t-11.5 180.5z" />
<glyph unicode="D" horiz-adv-x="1673" d="M59 637q0 78 13 151q39 217 185 370t368 200q35 8 94 12t102 4q-29 -4 -61.5 -14t-71.5 -25q-225 -86 -348 -258t-123 -395q0 -51 7 -104.5t19.5 -100.5t32.5 -92q70 -152 188 -244t273 -114q20 -4 47 -6.5t50 -2.5q260 0 428 209t168 549q0 309 -220 479 q-225 176 -649 177l-96 2h-369l62 32q86 47 119.5 86t41.5 109l9 -14l18 -23q53 -61 105.5 -88t169.5 -47q23 -4 96 -11l160 -16q63 0 241 -63q233 -80 360.5 -249t127.5 -398q0 -49 -2 -75t-13 -77q-27 -145 -111.5 -274t-217 -221.5t-304.5 -127.5q-39 -6 -77.5 -10 t-75.5 -4q-82 0 -162 19q-276 59 -430 233t-154 422z" />
<glyph unicode="E" horiz-adv-x="1558" d="M55 684q0 82 19 160q55 264 237 420q195 166 494 166l76 4h94h526l-12 -11l-10 -10q-37 -35 -58.5 -80t-21.5 -98v-25q-78 80 -175.5 121t-238.5 41q-43 0 -82 -1t-88 -9q-211 -35 -328.5 -125t-169.5 -217h781l51 4q156 20 250 96v-61v-115v-61l-43 28 q-63 39 -119.5 54.5t-138.5 15.5h-797l-10 -25l-8 -22l-17 -53q-14 -59 -21 -112.5t-7 -115.5q0 -186 86 -326.5t219 -216t293 -75.5q29 0 61.5 3t73.5 11q154 33 259 105.5t169 187.5v-76v-73q-150 -143 -377 -191q-123 -23 -221 -22q-309 0 -511 176t-231 460q-2 16 -3 32 t-1 36z" />
<glyph unicode="F" horiz-adv-x="962" d="M29 1434h895q2 -12 2 -39q0 -72 -27 -133l-51 32q-102 59 -196.5 79t-243.5 20l-54 -4l-26 -3l-25 -2v-1198h645l-12 -24q-55 -109 -139 -166q-47 53 -113 85t-145.5 43t-83.5 11q-18 2 -47 2q-68 0 -105 -41v-450q-96 -39 -158 -111v1731q0 84 -88 147z" />
<glyph unicode="G" horiz-adv-x="1542" d="M57 739q0 309 220.5 501t586.5 192l76 2h559l-12 -11l-12 -12q-37 -37 -54.5 -77t-17.5 -99v-25q-76 80 -175.5 121t-242.5 41q-322 0 -518.5 -159.5t-226.5 -454.5q-2 -27 -3 -46.5t-1 -35.5v-27q0 -266 174 -438q168 -166 411 -166q51 0 96.5 6t99.5 23.5t105.5 42 t104.5 59.5l178 150v-359q0 -96 -41 -179t-115 -142q-51 -39 -95 -60.5t-83 -29.5l21 20q158 158 157 369v137q-35 -16 -63.5 -26.5t-65.5 -20.5q-188 -49 -346 -49q-240 0 -406.5 107.5t-256.5 314.5q-31 72 -42.5 150.5t-11.5 180.5z" />
<glyph unicode="H" horiz-adv-x="1480" d="M-100 1913h403v-633l16 12l19 13q86 55 166 84q158 59 307 59q276 0 444 -198.5t168 -528.5q0 -127 -33.5 -254t-95.5 -236q-74 -139 -154.5 -219t-191.5 -127l47 49q106 117 167 268.5t85 381.5q8 82 8 174q0 287 -114.5 434t-343.5 172q-55 6 -105 6q-160 0 -255 -58.5 t-134 -168.5v-965q0 -63 6 -99t25 -79h-228q20 39 28.5 76t8.5 102v1460q0 115 -59 170l-66 41l-55 37q-2 2 -22.5 11.5t-40.5 15.5z" />
<glyph unicode="I" horiz-adv-x="450" d="M-100 1434h403v-1256q0 -61 6 -100t25 -78h-228q20 39 28.5 76t8.5 102v981q0 88 -33.5 136t-138.5 110q-24 17 -71 29z" />
<glyph unicode="J" horiz-adv-x="446" d="M-100 1434h403v-1256q0 -166 -72 -330q-86 -186 -233 -290l-16 -13l-19 -10l35 68q16 31 35.5 78t34.5 88q43 137 59 226t16 183v981q0 92 -30.5 135t-147.5 113q-18 13 -65 27z" />
<glyph unicode="K" horiz-adv-x="1402" d="M-100 1905h403v-883q12 -2 25 -2h26q37 0 54 4q227 25 348 190q72 96 84 220h211q-90 -238 -349 -365q-18 -10 -33.5 -17.5t-43.5 -15.5l-29 -10l-45 -14l-47 -17l-27 -8q170 -63 281.5 -176t316.5 -436q74 -117 157 -171t187 -54q29 0 43 2l-260 -185q-92 66 -171 164 t-171 272l-35 70l-24 55l-39 86q-25 55 -49 95q-80 133 -186.5 198.5t-223.5 65.5v-795q0 -61 6 -100t25 -78h-228q20 39 28.5 76t8.5 102v1452q0 82 -26.5 128t-98.5 89l-41 25l-10 4z" />
<glyph unicode="L" horiz-adv-x="985" d="M-100 1921h403v-1812q25 -31 53.5 -43.5t83.5 -12.5t169 13.5t203 44t173 90.5l-20 -66l-21 -55l-20 -66l-23 -63q-80 23 -147.5 35t-167.5 12l-156 6l-68 2l-114 4l-70 2h-28h-44q20 37 28.5 74t8.5 102v1459q0 82 -26.5 127t-98.5 90l-47 26l-12 8z" />
<glyph unicode="M" horiz-adv-x="2611" d="M55 739q0 274 187.5 466t505.5 227q55 6 110 6q170 0 301 -60.5t191 -158.5l8 -13l6 -14q70 74 155 127t183 80.5t192 27.5q268 0 463 -198.5t195 -501.5q0 -274 -178 -481q-102 -121 -242 -189q-170 -84 -301 -84q-84 0 -151.5 35t-116.5 98l51 -28q57 -29 117.5 -43.5 t117.5 -14.5q152 0 276 98.5t204 295.5q61 145 61 291q0 27 -3 58.5t-5 49.5q-39 260 -199 418q-152 147 -346 147q-184 0 -309 -116.5t-125 -268.5v-993h-158v932q0 219 -106.5 340t-294.5 121h-62q-29 -6 -41 -9q-211 -37 -348 -198q-147 -174 -147 -426q0 -236 93 -409 t279 -259q113 -53 216 -53q111 0 202 67q-41 -61 -100 -92.5t-143 -31.5q-119 0 -286 70.5t-274.5 193.5t-148.5 282q-29 111 -29 211z" />
<glyph unicode="N" horiz-adv-x="1425" d="M-49 1434h299l979 -1190v907q0 76 -33 133t-111 117l-34 24l-13 9h244v-1485q-27 18 -33 24q-12 10 -28 29l-37 45l-991 1206v-909q0 -70 33.5 -154t90.5 -151l39 -39h-71h-129h-84q20 29 30.5 57.5t22.5 83.5l16 78v1096l-41 37q-51 45 -78.5 60.5t-70.5 21.5z" />
<glyph unicode="O" horiz-adv-x="1695" d="M57 717q0 328 218.5 539.5t572.5 211.5q350 0 572 -212t222 -527q0 -74 -10 -139.5t-37 -143.5q-76 -215 -276.5 -348t-470.5 -133q-352 0 -571.5 211t-219.5 541zM250 717q0 -256 113.5 -432t308.5 -240q90 -29 176 -29q88 0 178 29q195 63 308.5 239.5t113.5 432.5 t-113.5 431t-308.5 241q-82 27 -178 26q-94 0 -176 -26q-195 -63 -305 -236q-117 -180 -117 -436z" />
<glyph unicode="P" horiz-adv-x="1482" d="M-100 1415l34 8q33 6 64 10.5t55 4.5q129 0 205 -125l14 -27q96 82 199 125q115 49 229 49q315 0 520 -184t205 -477q0 -84 -22 -187q-35 -164 -146 -301q-119 -150 -274.5 -227.5t-320.5 -77.5q-201 0 -363 113v-19v-43q0 -139 -12 -217q-27 -170 -66 -243.5 t-125 -112.5l6 22l4 23q20 74 30.5 158t10.5 192v1208q0 207 -225 318zM305 207q0 -37 45 -68q59 -41 180 -65q53 -12 105 -13q233 0 383.5 122t200.5 354q29 129 28 258q0 279 -147.5 434t-397.5 155h-34q-25 -4 -37 -4q-23 0 -45.5 -5t-57.5 -15q-119 -37 -171 -83 t-52 -97v-973z" />
<glyph unicode="Q" horiz-adv-x="1699" d="M55 713q0 133 47 274q74 215 273.5 348t472.5 133q352 0 571 -210.5t219 -540.5t-219 -541t-575 -211q-184 0 -355 74q-12 -8 -22 -18.5l-27 -28.5q-76 -76 -116.5 -159t-53.5 -177q51 43 79 63.5t79 51.5q102 61 198.5 90.5t198.5 29.5q156 0 420 -69q37 -10 82 -10 q98 0 203 92q68 59 112 145l-20 -47q-39 -102 -56.5 -161.5t-17.5 -86.5q0 -18 6 -47l-16 -6l-33 -10l-49 -13q-16 -4 -37 -4q-18 0 -55 6.5t-55 8.5l-103 20l-14 2l-162 43q-49 10 -89 16.5t-91 11.5t-105 5q-150 0 -311 -72q-96 -43 -148.5 -86t-84.5 -104l8 45 q27 143 61.5 235.5t91.5 174.5l33 45q8 10 39 41q-174 90 -276.5 264t-102.5 383zM250 717q0 -193 63.5 -337t184.5 -239l30 29l33 29q115 102 242 180q135 84 321 160l133 51l-28 -29q-70 -74 -97.5 -128t-27.5 -114l-88 -16q-193 -41 -283 -84t-176 -125l55 -26 q121 -49 240 -50q195 0 349.5 120t211.5 327q35 117 35 252q0 256 -113.5 431t-308.5 241q-82 27 -178 26q-94 0 -176 -26q-195 -63 -305 -236q-117 -180 -117 -436z" />
<glyph unicode="R" horiz-adv-x="1210" d="M-23 1430h35q121 0 180.5 -30t79.5 -97l42.5 37t41.5 30q92 57 185 78q66 12 118 12h33q20 -4 31 -4q115 -20 182.5 -91t67.5 -171q0 -86 -53.5 -177t-132 -156.5t-216.5 -133.5l-59 -31l-27 -10l-26 -8q88 -45 148.5 -95.5t154.5 -160.5l47 -53q166 -184 262 -257 t225 -112h-372l-62 90l-6 8l-102 105l-105 121l-57 71l-29 35l-47 64l-24 24q-66 59 -93.5 78.5t-60.5 32.5q-14 6 -27 0q-10 -4 -10 -13v-438q0 -31 1 -57.5t15 -77.5q6 -23 15 -43h-226q20 39 28.5 76t8.5 102v985q0 154 -131 244l-22 14zM301 705l27 6l28 6l64 18 q170 55 265 142.5t120 195.5q8 39 8 78q0 96 -52 155.5t-140 69.5q-18 2 -52 2q-121 0 -198 -55q-70 -49 -70 -117v-501z" />
<glyph unicode="S" horiz-adv-x="1120" d="M57 78l29 53q23 57 33 95t10 87l16 -22l9 -15q2 -4 19 -31.5t26 -43.5q4 -8 18 -21l51 -47q70 -59 143.5 -89t155.5 -30q94 0 215 43l52 23q66 35 102.5 96.5t36.5 130.5q0 57 -23.5 107.5t-76 94.5t-144.5 77q-111 41 -350 96q-41 8 -68.5 17.5t-68.5 29.5 q-184 86 -185 281q0 139 109 262q76 86 194.5 136t262.5 50q109 0 225 -31l76 -23q23 -7 65 -28l-12 -28l-2 -9l-39 -86q-14 -27 -14 -77q0 -35 4 -58l-13 31q-59 133 -146 191.5t-228 58.5q-166 0 -262.5 -92.5t-96.5 -231.5q12 -119 98.5 -178t356.5 -135l127 -33 q74 -18 133 -49q88 -43 136 -125t48 -176q0 -61 -15 -108.5t-52 -98.5q-66 -94 -185.5 -147.5t-281.5 -53.5q-166 0 -359 60q-29 8 -47 14q-43 15 -82 33z" />
<glyph unicode="T" horiz-adv-x="1624" d="M-43 1253l33 54q49 78 70.5 126t35.5 115l10 -10l13 -10q55 -47 129 -70.5t176 -23.5h1214l-16 -11q-98 -72 -119 -186l-4 -27q-10 16 -20 27l-23 23q-63 57 -122.5 79.5t-149.5 22.5h-215q-106 0 -224 -92q-133 -104 -231 -299q-33 -59 -55 -133q-47 -135 -47 -269 q0 -227 139 -372.5t352 -145.5h76q33 6 47 8q158 20 277.5 91t195.5 184v-76v-78q-123 -102 -285.5 -148t-377.5 -46q-25 0 -54.5 3t-64.5 11q-227 43 -358.5 188.5t-131.5 354.5q0 90 22.5 177t76.5 185q63 119 161.5 225.5t245.5 208.5l19 15l12 8h-463 q-98 0 -153.5 -14.5t-131.5 -57.5l-43 -24z" />
<glyph unicode="U" horiz-adv-x="1476" d="M57 607v36q0 217 152 447q45 70 65 92q45 55 45 78q0 31 -86 110q-23 18 -40 27q-10 8 -15 24l12 13h302q23 0 12 -25q-2 -8 -21 -33q-33 -45 -34 -47q-78 -84 -142 -258q-45 -111 -57 -242q-6 -43 -8 -107.5t-2 -68.5q0 -295 133 -454q127 -154 350 -154 q57 0 116.5 10.5t118.5 36.5q115 49 167.5 103.5t52.5 113.5v881q0 66 -22.5 105.5t-90.5 101.5l-41 37h309v-1434h-155v166l-50 -31l-22 -16l-76 -49l-20 -15q-45 -31 -140.5 -56.5t-193.5 -25.5q-250 0 -416 156t-199 434q-4 20 -4 44z" />
<glyph unicode="V" horiz-adv-x="1449" d="M-43 1434h381q-6 -23 -10 -44.5t-4 -48.5q0 -80 36.5 -192.5t137.5 -331.5l60.5 -128t109.5 -210l67 -127l23 -45l16 -28l25 -39l22 39l25 45l59 112l56 101l65 122l76 144l28 59l101 197q74 147 74 223q0 82 -93 141l-22 11h303l-25 -37l-10 -21l-92 -172l-27 -49 l-129 -237q-92 -170 -209 -408l-88 -180l-165 -353l-29 -59l-37 78l-23 51l-182 442l-53 125q-104 236 -197 408q-80 147 -151 252l-23 31l-51 69z" />
<glyph unicode="W" horiz-adv-x="2164" d="M57 676q0 94 22.5 172t48.5 128t81 126l65 84q45 51 45 74q0 31 -86 108l-40 29q-4 8 -7 10q-2 2 -2 6q-2 20 31 21h246l31 -2q23 -12 10 -29l-53 -62q-74 -70 -144 -245q-45 -111 -54 -194t-11 -124t-2 -90q0 -305 141 -470t381 -165h49q23 4 31 4q135 14 247 101 l-10 12l-8 10q-86 111 -125 260.5t-39 335.5q12 147 58 262q18 51 38.5 94.5t26.5 53.5l27 51l4 4q14 18 1 41t-36 37l-49 35q-47 45 -47 63q-2 6 4 13q2 0 4 2l27 2h170h18q43 0 43 -23q0 -16 -16 -59q-31 -68 -66 -250l-13 -107q-7 -59 -7 -96q0 -436 101 -640t306 -204 h53l44 11q17 4 38 10t52 20q90 43 134 98.5t44 114.5v881q0 76 -27 117t-106 92q-2 4 -5 6q-12 18 -16 27l25 2h286v-1434h-157v166q-37 -51 -93.5 -91t-134.5 -67q-98 -35 -182 -35q-170 0 -313 131l-21 17q-100 -80 -233 -119q-111 -31 -213 -31q-197 0 -343.5 108.5 t-219.5 311.5q-27 74 -40.5 142.5t-13.5 142.5z" />
<glyph unicode="X" horiz-adv-x="1427" d="M0 0l55 102l51 97l144 256l264 442l45 78l-31 41l-36 43l-35 43l-39 41q-35 41 -61.5 66.5t-51.5 43.5q-55 43 -99 62.5t-91 19.5q-31 0 -88 -10l-25 -6q86 86 203 86q96 0 195.5 -61.5t199.5 -192.5l18 -27l17 -20l43 57q123 168 215 232.5t197 64.5q88 0 163 -35 l-43 -39q-68 -84 -84 -192q-33 119 -143 119q-33 0 -55 -11q-51 -20 -101 -57q-55 -47 -93 -97t-54 -95l47 -62l35 -47l196 -262l234 -309l63 -84l134 -178l14 -21l67 -88h-241l-35 49l-20 37l-134 207l-41 65l-239 359l-152 203l-16 -23l-10 -14q-25 -37 -51.5 -87.5 t-65.5 -133.5q-49 -98 -98.5 -227.5t-90.5 -274.5q-4 -10 -15 -53.5t-25 -106.5h-236z" />
<glyph unicode="Y" horiz-adv-x="1476" d="M57 607v36q0 217 152 447q45 70 65 92q45 55 45 78q0 31 -86 108q-18 20 -40 29l-5 6q0 18 7 27q2 2 6 4h272q14 -4 19 -9q14 -10 14 -18t-57 -78q-76 -78 -144 -260q-43 -111 -55 -240q-6 -41 -8 -81.5t-2 -92.5q0 -297 135 -458q129 -156 352 -156q29 0 58.5 2t62.5 9 t50 12.5t60 21.5q115 51 167.5 107.5t52.5 115.5v881q0 72 -29 115t-109 94l-16 26l23 9h286v-1198q0 -332 -174 -510.5t-512 -178.5q-51 0 -118.5 6.5t-135.5 16.5q-117 23 -219 70q59 23 100 45t95 65l18 12l14 13q43 -76 127 -120t201 -44h33q25 4 37 4 q160 16 239.5 120.5t126.5 362.5l9 58q-74 -76 -172.5 -120t-229.5 -59q-16 0 -39.5 -2t-50.5 -2q-256 0 -422 155t-199 435q-4 20 -4 44z" />
<glyph unicode="Z" horiz-adv-x="1576" d="M14 0l1274 1274h-745q-102 0 -185.5 -15.5t-226.5 -62.5l-6 -2l-35 -4l35 37q80 88 121 148.5t71 129.5l54 -37q84 -53 193.5 -67.5t422.5 -14.5l100 3l234 12q57 8 98 8q55 0 66 -25q4 -12 -4 -20l-1057 -1055l25 10l45 17q166 66 284 65q154 0 312 -102l16 -10l65 -47 l35 -25q78 -45 152 -45q51 0 125 23l41 14l10 4l-14 -31q-68 -133 -118 -196.5t-124 -106.5q-74 20 -125 52t-131 112l-92 92l-10 10q-33 37 -125 78q-70 27 -144 27q-184 0 -422 -152l-75 -55l-70 -57l-16 -15l-17 -14z" />
<glyph unicode="[" horiz-adv-x="454" d="M141 57v1246l287 165v-69l-174 -99v-1228l174 -105v-69z" />
<glyph unicode="\" horiz-adv-x="1087" d="M-12 1581h198l-14 -76q0 -53 11.5 -93t56.5 -132l12 -27l688 -1187l16 -29l13 -23l26 -41l33 -47l25 -37l22 -32h-57h-57q-14 41 -25.5 68.5t-46.5 90.5l-27 50z" />
<glyph unicode="]" horiz-adv-x="454" d="M29 -29l172 99v1235l-172 90v73l284 -165v-1246l-284 -159v73z" />
<glyph unicode="^" horiz-adv-x="684" d="M102 1028q86 35 130 68.5t104 107.5q45 -61 100.5 -101t136.5 -71l-28 -37l-209 82q-37 -18 -129 -53q-31 -10 -88 -33z" />
<glyph unicode="_" horiz-adv-x="1146" d="M0 0v72h1147v-72h-1147z" />
<glyph unicode="`" d="M236 1069q55 16 89.5 47t65.5 86q37 -55 103.5 -97t183.5 -75l-16 -35z" />
<glyph unicode="a" horiz-adv-x="915" d="M43 227q0 106 80 192.5t239 139.5q27 10 67 20.5t77 14.5l-57 113q-43 80 -130 79q-33 0 -61 -14q27 25 45.5 38t54.5 34l23 12q35 16 43 90l18 -16l13 -15q47 -51 102 -145l25 -43l362 -727h-143l-115 229l-22 -26q-96 -104 -176 -153.5t-169 -59.5q-10 -2 -32 -2 q-102 0 -173 70.5t-71 168.5zM168 283q0 -86 50 -142.5t134 -56.5q18 2 27 2q55 6 103 26.5t106 63.5q27 20 41 33.5t45 48.5l-154 305q-66 0 -114 -18q-238 -94 -238 -262z" />
<glyph unicode="b" horiz-adv-x="921" d="M45 397q0 104 43 204.5t135 194t92 160.5q0 66 -94 136q-23 14 -43 24t-51 14q63 20 94 26.5t92 6.5l62 2q12 0 22 4q8 2 52 27q8 5 15 5l25 -13q14 -10 15 -31q0 -25 -23.5 -83t-77.5 -163l-26 -46l-76 -122q-59 -94 -82.5 -170.5t-23.5 -164.5q0 -47 8 -86 q23 -111 63 -179q35 -57 89.5 -88.5t111.5 -31.5q55 0 104.5 25.5t90.5 80.5q20 31 37.5 71t30.5 92t13 122q0 45 -2 67.5t-14 67.5q-25 111 -81 167t-138 56q-66 0 -133 -37l-53 -26q63 123 217 122q37 0 88 -10q115 -25 183.5 -118t68.5 -228q0 -35 -7 -72 q-4 -29 -12 -59.5t-20 -60.5q-23 -66 -66 -123q-127 -178 -315 -178q-94 0 -196.5 50t-160 148t-57.5 217z" />
<glyph unicode="c" horiz-adv-x="837" d="M43 430q0 115 64.5 210t181.5 146q55 25 100 32t82 7q113 0 197 -55q53 -33 84 -82q-49 -47 -113 -67l-41 -11q6 18 6 39q0 47 -31.5 83t-83.5 36q-18 2 -26 2q-111 0 -196 -97.5t-85 -232.5q0 -45 13 -92q43 -166 149 -246l47 -28q76 -41 146 -41q98 0 198 82l60 61 l16 21l-4 -19q-16 -68 -69.5 -110.5t-168.5 -75.5q-55 -14 -114 -15q-205 0 -324 177q-88 139 -88 276z" />
<glyph unicode="d" horiz-adv-x="974" d="M47 422q0 178 118 293.5t298 115.5h31q20 -4 30 -4q117 -12 211 -73v188q0 45 -36.5 89t-102.5 71l-21 6q84 12 166 55l7 4l98 72l69 43q-16 -37 -29.5 -87t-19.5 -114l-4 -55v-889q0 -51 2 -65.5t15 -44.5l12 -27h-156v80l-65 -45q-109 -61 -217 -62q-141 0 -252 94.5 t-144 254.5q-6 23 -8 47t-2 53zM190 401q0 -33 2.5 -53t8.5 -59q25 -129 93 -199t159 -70q57 0 122 33l50 33q59 43 84.5 77t25.5 64v381q0 59 -104 125l-51 25q-61 25 -119 24q-117 0 -191 -96q-80 -105 -80 -285z" />
<glyph unicode="e" horiz-adv-x="823" d="M43 422q0 12 2 28.5t2 24.5q20 145 105 236q92 98 213 114q41 6 79 6q135 0 220.5 -67.5t85.5 -161.5h-549l-6 -33q-12 -92 -13 -151q0 -57 8 -99q27 -117 117 -187.5t209 -70.5q88 0 164 41l14 7l56 34q8 8 45 23l-23 -29q-68 -84 -144.5 -118.5t-178.5 -34.5 q-150 0 -277 129q-63 63 -96 143t-33 166zM215 641h393q-8 66 -65.5 111t-126.5 45q-35 0 -72 -13.5t-67.5 -44t-53.5 -80.5z" />
<glyph unicode="f" horiz-adv-x="653" d="M-25 748l111 -13q31 -6 41 -6q14 -2 31 -2q33 0 80 31q150 92 217 92q45 0 105.5 -33t101.5 -100l-33 -4q-121 0 -160 -105l4 43l6 62q0 37 -22.5 59.5t-57.5 22.5q-47 0 -85 -41t-62 -127q-14 -51 -14 -95v-540q8 -2 14 -2h8q18 0 96 30q18 6 43 7q43 0 144 -15l55 -10 l10 -2l15 -6q-10 -12 -26.5 -23.5t-43.5 -25t-72 -13.5q-31 0 -65.5 9.5t-73.5 16.5t-51 7q-18 0 -53 -10v-397l-127 -101v1071q0 49 -22.5 91.5t-78.5 93.5z" />
<glyph unicode="g" horiz-adv-x="993" d="M57 752q10 61 52.5 101t101.5 40q66 -90 188 -90h494l-27 -51h-209q-152 0 -270 -90q-88 -68 -135 -159t-47 -188v-24q4 -16 4 -25q14 -113 82.5 -178t159.5 -65q35 0 69 12q129 45 214 189.5t112 400.5l4 51q35 -35 40 -70t5 -200l-12 -281v-14q0 -33 -4.5 -63 t-16.5 -83q-47 -231 -176 -362q-121 -123 -276 -123q-78 0 -149 31.5t-113 67.5t-66 81q47 27 75.5 59.5t67.5 108.5q6 12 25.5 28.5t38.5 28.5l-13 -47q-23 -96 -22 -135q0 -33 9 -54.5t30.5 -48t52.5 -45t52.5 -23.5t50.5 -5q113 0 194 111q92 125 113 362q2 18 2 38v32 v26q0 12 -4 45l-23 -26q-59 -55 -131 -92t-141 -50q-41 -6 -74 -6q-145 0 -229 92.5t-84 247.5q0 268 334 424q12 6 26 12q10 4 29 9h-404z" />
<glyph unicode="h" horiz-adv-x="919" d="M-47 1081q47 8 92 22.5t68 29.5l100 65l78 43q-33 -59 -49 -197l-4 -51v-274l16 10l16 12q98 59 193 72q18 4 40 4h32q164 0 245.5 -111.5t81.5 -361.5q0 -113 -18 -264l-10 -80h-144q43 98 53 203q0 291 -70.5 422t-211.5 131q-82 0 -141.5 -41t-81.5 -115v-504 q0 -23 8 -49l18 -47h-186q33 41 33 96v815q0 39 -25 70t-94 74z" />
<glyph unicode="i" horiz-adv-x="350" d="M-23 803h263v-707l6 -49q2 -8 6 -16q6 -16 16 -31h-184l18 45q8 25 9 51v537q0 55 -12.5 78.5t-53.5 52.5zM57 1124q0 43 31 73t72 30t69.5 -30t28.5 -73t-29 -71q-33 -29 -71 -29q-37 0 -70 29q-31 34 -31 71z" />
<glyph unicode="j" horiz-adv-x="350" d="M-25 -489l11 16l10 14q53 86 86 215q16 57 22.5 112.5t6.5 131.5v633q0 55 -12.5 79.5t-53.5 51.5l-70 39h265v-803v-25q0 -12 -4 -41q-14 -131 -78 -241q-47 -76 -86.5 -114.5t-96.5 -67.5zM53 1124q0 43 31 73t72 30t69.5 -30t28.5 -73t-29 -71q-29 -29 -69 -29 q-39 0 -72 29q-31 34 -31 71z" />
<glyph unicode="k" horiz-adv-x="903" d="M-43 1079q76 14 118 32.5t142 86.5q8 6 25 14q33 16 51 27q-18 -37 -29.5 -81t-19.5 -114l-2 -51v-422l39 2q94 8 147 25q109 27 159 62.5t50 80.5q0 29 -23 62h195q0 -59 -53.5 -109.5t-188.5 -111.5q-20 -8 -46.5 -17.5t-47.5 -13.5q39 0 67.5 -8t69.5 -27 q100 -47 165 -146.5t65 -240.5q2 -12 2 -25v-24q0 -43 -6 -80h-33h-35h-31l-32 2q4 20 6 47t2 51q0 29 -2 43q-20 182 -117.5 277.5t-251.5 95.5q-33 0 -49 -2l-31 -4l-20 -4v-410q0 -37 14 -73l10 -23h-92h-94l14 23q16 27 17 73v815q0 43 -25 75t-92 69z" />
<glyph unicode="l" horiz-adv-x="518" d="M53 473q0 66 16.5 140.5t55.5 183.5l25 53l43 100q4 20 4 31q0 55 -56 113l-35 30l-2 11q4 23 47.5 28.5l98.5 12.5l123 41l10 2l41 10q-84 -125 -143 -271q-51 -129 -75 -246.5t-24 -224.5q0 -78 13 -139q41 -190 115.5 -263t226.5 -73h20q-23 -20 -51.5 -30.5 t-77.5 -10.5h-25q-18 4 -28 4q-135 14 -225 144q-97 137 -97 354z" />
<glyph unicode="m" horiz-adv-x="1419" d="M-31 799l60 2q41 0 76.5 5t84.5 17l23 2l23 6v-112l38 20q160 74 275 74q61 0 106 -21.5t70 -60.5l43 21q127 63 205 63q186 0 278 -100q102 -111 103 -348q0 -115 -25 -273l-20 -94h-131q49 127 49 299v68l-10 83q-4 34 -9.5 56l-21.5 82q-27 78 -89.5 124t-140.5 46 q-76 0 -151 -45q-16 -8 -45 -33l8 -10l4 -11q25 -43 41 -137q6 -29 8 -67.5t2 -96.5q0 -100 -12 -233l-18 -125h-131q18 53 29 101.5t11 97.5q0 299 -66.5 428t-197.5 129q-35 0 -69 -13q-63 -23 -98 -63.5t-35 -79.5v-504q0 -23 8 -49l18 -47h-186q33 43 33 96v486 q0 61 -25 103t-92 93z" />
<glyph unicode="n" horiz-adv-x="925" d="M-43 799l68 2q49 0 90 5t86 17l18 2l21 6v-112l14 8l22 14l56 29q111 51 209 51q125 0 209 -84t108 -235q10 -66 10 -146q0 -74 -4 -128t-20 -136l-21 -92h-131q45 98 53 201q0 291 -71.5 423t-210.5 132q-37 0 -74 -11q-74 -27 -111.5 -66.5t-37.5 -78.5v-504 q0 -23 8 -49q2 -14 18 -47h-186q31 39 31 96v486q0 66 -36 122t-100 87z" />
<glyph unicode="o" horiz-adv-x="937" d="M43 401q0 152 79 259.5t220 150.5q70 16 127 16q61 0 127 -16q141 -43 220 -150.5t79 -259.5q0 -154 -80 -262t-219 -147q-72 -18 -137 -19q-176 0 -296 122t-120 306zM190 393q0 -49 11 -106q31 -135 99.5 -204t168.5 -69q119 0 195 97q84 106 84 290q0 182 -81 284.5 t-198 102.5q-119 0 -195 -98q-84 -109 -84 -297z" />
<glyph unicode="p" horiz-adv-x="991" d="M-8 803q25 12 57 12q53 0 125 -45l45 -37l19 15l18 8q106 70 246 69q43 0 84 -4t76 -16q123 -37 197.5 -142.5t74.5 -234.5q0 -139 -84 -262q-59 -86 -147.5 -132t-198.5 -46q-143 0 -240 71l-14 13l-14 12v-272q0 -109 77 -170q-76 -33 -102 -56l-74 -57q-8 -3 -14 -3 q-15 0 -14 19v1012q0 109 -50 180q-28 39 -67 66zM236 238q0 -27 23.5 -60t78.5 -74l53 -34q57 -33 121 -33q88 0 157.5 68.5t94.5 191.5q10 57 10 109q0 176 -75.5 273t-192.5 97q-55 0 -115 -24l-53 -25q-53 -33 -77.5 -63.5t-24.5 -57.5v-368z" />
<glyph unicode="q" horiz-adv-x="991" d="M47 399q0 133 78 250q61 90 151.5 132t227.5 42q51 0 112 -6l103 -10l39 -6q37 -4 67 -4q41 0 109 6q-55 -66 -55 -156v-860q0 -33 18 -86l8 -14l4 -9q-98 -47 -159 -133v539l-13 -12l-16 -13q-47 -35 -105.5 -53t-136.5 -18q-80 0 -157 24q-125 39 -200 146.5t-75 240.5 zM207 406q0 -25 2 -54.5t8 -54.5q23 -125 91.5 -191.5t158.5 -66.5q63 0 125 31l47 28q63 45 87 76t24 64v368q0 31 -22.5 58.5t-82.5 62.5q-14 10 -24 14q-12 6 -27 11q-59 25 -117 24q-119 0 -194.5 -97t-75.5 -273z" />
<glyph unicode="r" horiz-adv-x="823" d="M10 803q25 8 60 8q51 0 104 -27l43 -32q109 88 244 88q61 0 133 -23q135 -45 135 -166q0 -55 -41 -109.5t-101.5 -88t-172.5 -62.5l-43 -10l-19 -4l-20 -4q78 -10 138 -42t130 -100l4 -4l78 -84q53 -57 90 -79.5t88 -26.5l-26 -14q-55 -25 -95 -25q-66 0 -159 88l-15 12 l-92 92l-18 19q-90 80 -117 99.5t-53 25.5l-47 2v-230q0 -47 8 -77l8 -29h-168q23 43 23 106v539q0 88 -76 143zM238 391l41 2q117 12 191.5 59.5t102.5 108.5q14 31 15 68q0 100 -99 139q-37 16 -77 16q-39 0 -86 -18t-67.5 -35.5t-20.5 -38.5v-301z" />
<glyph unicode="s" horiz-adv-x="782" d="M43 238l20 8l9 4l51 18l18 6q37 12 95 62l-11 -17q-14 -29 -20 -56t-6 -56q0 -70 44 -118t122 -58q29 -4 41 -4q61 0 108 28.5t70 73.5q14 35 14 72q0 45 -23.5 83t-63.5 54t-90 29.5t-140 25.5q-20 4 -35 8q-4 2 -33 15q-49 23 -78 71t-29 101q0 84 60 143 q41 41 96 65.5t123 24.5q270 0 311 -188q-39 -10 -61.5 -26.5t-73.5 -76.5l-37 -32q20 29 28.5 56.5t8.5 57.5q0 68 -44 112t-116 44q-86 0 -131 -45q-47 -53 -47 -121q0 -47 22.5 -84t67.5 -54.5t75 -25.5t97 -24l62 -17q72 -10 125 -57t53 -125q0 -90 -70.5 -149.5 t-165.5 -77.5q-61 -12 -114 -13q-143 0 -232.5 73t-99.5 190z" />
<glyph unicode="t" horiz-adv-x="841" d="M-14 752l20 36q23 49 40 71t34 22q14 0 26 -13q51 -41 90.5 -53t120.5 -12h553l-26 -51h-246q-74 0 -150.5 -49.5t-140.5 -147.5q-68 -92 -67 -217q0 -129 78.5 -210t199.5 -81q55 0 123 23l86 36l27 15l12 8q-43 -74 -119 -109.5t-196 -35.5q-131 0 -222.5 65.5 t-122.5 177.5q-12 43 -12 86q0 96 61.5 192.5t188.5 188.5l49 33l19 12l24 13h-450z" />
<glyph unicode="u" horiz-adv-x="964" d="M57 346q0 119 70 225l33 50q2 6 2 20q0 20 -11.5 47t-37.5 64l-35 51h215l8 -6l6 -15q6 -10 6 -14q0 -10 -14 -39l-60 -108q-28 -51 -39.5 -119t-11.5 -129q0 -147 69 -226t202 -90q12 -2 24 -2h25q104 0 162.5 39t58.5 88v475q0 43 -31 88q-12 16 -27.5 31t-35.5 27h250 q-27 -41 -27 -96v-611q0 -35 19 -78l8 -18h-156v98l-14 -12l-15 -12q-123 -90 -272 -90h-25q-14 0 -43 4q-143 20 -223 113t-80 245z" />
<glyph unicode="v" horiz-adv-x="808" d="M-14 803h272q-29 -51 -29 -103q0 -55 30 -156.5t99 -248.5l25 -47l14 -31l23 -41l10 -20l6 -9l13 29l8 19l53 116l27 64l38 84l19 37l41 102q37 84 37 119q0 33 -35 74l-10 12h196l-14 -25l-6 -10l-12 -23l-121 -243l-54 -107l-65 -125q-76 -154 -158 -303l-33 70 q-10 23 -38 94l-58 152l-26 69q-14 33 -54 115q-47 104 -96 185t-102 151z" />
<glyph unicode="w" horiz-adv-x="1396" d="M57 346q0 117 70 225q37 53 37 80q0 29 -51 101l-35 51h225q4 -4 4 -8q4 -14 4 -39l-73 -140q-47 -86 -48 -274q0 -41 6.5 -69.5t26.5 -79.5q51 -125 193 -125q66 0 137 36q35 14 65 50l-8 24q-16 72 -16 135q0 96 35 201l16 45l25 59q1 5 0 11q0 49 -49 123l-35 51h229 q4 -4 4 -6q6 -14 6 -35l-59 -141q-8 -16 -16.5 -48t-12.5 -59q-10 -78 -10 -97v-34q0 -57 9 -103.5t30 -89.5q29 -59 84 -95t117 -36q86 0 153 62q14 12 26.5 28.5t22.5 32.5v475q0 66 -59 121l-35 25h250q-27 -41 -27 -96v-611q0 -27 11 -57l16 -39h-156v98l-22 -10l-12 -6 l-99 -62q-27 -18 -62.5 -27t-92.5 -9q-145 0 -230 122l-10 17q-16 -14 -23 -21q-35 -33 -43 -39q-109 -84 -225 -83q-86 0 -155.5 47t-102.5 129q-18 43 -26.5 90t-8.5 100z" />
<glyph unicode="x" horiz-adv-x="964" d="M-244 -465q123 76 232 221q123 166 282 484q31 59 49 100l46 102l-17 27l-14 25l-21 38q-72 115 -119 157t-104 42q-27 0 -57 -6l-19 -4l-10 -4l193 96q135 -55 211 -168l41 -72l10 19l12 18q68 106 154 160.5t172 54.5q78 0 147 -41q-45 -86 -127 -127q-47 61 -106 62 q-86 0 -166 -119l-60 -86l74 -127l68 -137l10 -21l53 -98q31 -51 68 -72q20 -10 37 -10q51 0 69 51q8 18 8 47q0 14 -3 35t-15 43l78 -61l24 -23l21 -20q-45 -127 -176 -127q-66 0 -123 40t-96 80t-93 119l-38 62l-19 29l-18 32l-21 -63q-18 -57 -41 -109 q-74 -172 -152.5 -300t-150.5 -195q-90 -86 -155.5 -120t-137.5 -34z" />
<glyph unicode="y" horiz-adv-x="956" d="M57 319q0 125 70 238l33 51q2 6 2 23q0 23 -10.5 49.5t-38.5 67.5l-35 55h217l8 -4q4 -10 10 -21q2 -4 2 -10t-16 -39l-61 -121q-27 -51 -38.5 -122.5t-11.5 -137.5q0 -158 68 -239.5t201 -94.5q18 -2 51 -2q102 0 161.5 42t59.5 96v501q0 39 -22 78q-14 27 -35 46.5 t-37 27.5h250q-27 -45 -27 -103v-643q0 -184 -86 -327.5t-233 -210.5q-123 -57 -220 -58q-133 0 -204 113l32 43l31 45l33 41l35 45q-8 -25 -8 -53q0 -59 43 -113q53 -61 133 -61q53 0 107 30.5t101.5 91t77 158t29.5 215.5v41l-29 -26q-29 -27 -78 -49.5t-106 -36.5 q-20 -4 -47 -6t-51 -2q-39 0 -58 4q-143 20 -223 117t-80 261z" />
<glyph unicode="z" horiz-adv-x="917" d="M14 0l682 723h-383q-61 0 -103 -8t-124 -35l-25 -2l52 59l45 51l4 5q14 18 22 32l21 43q43 -39 118.5 -53t231.5 -14l76 4l133 12q43 8 63 8q10 0 19 -4q14 -14 0 -30l-584 -592l19 10l24 10l45 19q82 29 137 28q90 0 220 -98q35 -27 71 -27q35 0 84 15l29 8l-10 -25 q-74 -129 -148 -180q-61 25 -107 60.5t-110 105.5q-37 41 -119 41q-55 0 -115.5 -19.5t-131.5 -64.5q-55 -37 -101 -82h-35z" />
<glyph unicode="{" horiz-adv-x="397" d="M31 676v8q12 -4 20 0q49 27 49 215v256q0 258 150 309q25 8 69 9v-9q-51 -8 -71 -57q-35 -84 -35 -258v-256q0 -119 -29 -172q-16 -33 -63 -37v-8q45 -4 61 -41q31 -63 31 -197v-307q0 -137 33 -197q20 -37 73 -43v-10q-109 2 -149 41q-70 63 -70 209v259v52 q0 137 -20 193q-12 37 -49 41z" />
<glyph unicode="|" horiz-adv-x="352" d="M113 -113q25 209 32 374t7 388v43v37v35v29v26v23q0 37 -1 74.5t-1 78.5v23q0 127 -11 244l-26 239h125q-16 -188 -23.5 -374.5t-7.5 -372.5v-193q0 -98 2 -203q0 -92 14.5 -235t14.5 -236h-125z" />
<glyph unicode="}" horiz-adv-x="397" d="M35 -109q20 -2 33 3q76 33 75 237v307q0 135 29 195q16 37 64 43v8q-45 2 -62 33q-31 55 -31 176v256q0 178 -32 256q-20 49 -76 59v9q74 -2 110 -25q113 -70 113 -293v-256q0 -125 21 -178q12 -33 47 -37v-8q-33 -4 -45 -39q-23 -63 -23 -195v-91v-220q0 -152 -80 -213 q-49 -39 -121 -39h-20q-2 2 -2 12z" />
<glyph unicode="~" horiz-adv-x="659" d="M80 1022l113 70l14 2l26 12q20 8 47 12t52 4q70 0 139 -32q27 -10 47 -11q20 0 47 8l17 3l-7 -13q-20 -37 -38 -53q-10 -10 -41 -29q-29 10 -52 23l-94 47q-25 12 -65 12q-29 0 -59.5 -9t-67.5 -32q-10 -6 -27.5 -21.5l-28.5 -25.5z" />
<glyph unicode="&#xa1;" horiz-adv-x="405" d="M47 698q0 45 33 78t80 33t78.5 -33t31.5 -78t-31.5 -77.5t-78.5 -32.5t-80 32.5t-33 77.5zM53 -680l6 21l7 18l8 29q12 49 18 98t6 72v788l-6 47l-24 45h92h94q-12 -14 -22.5 -40.5t-8.5 -51.5l37 -711q0 -94 100 -151l21 -10q-72 -8 -115 -27.5t-147 -85.5z" />
<glyph unicode="&#xa2;" horiz-adv-x="907" d="M70 428q0 115 65.5 207t186.5 143q43 20 86 29l26 6q0 41 -14 75t-66 101l-22 29h180v-201l25 -2q150 -16 241 -133q-20 -16 -37.5 -28.5t-35.5 -20.5q-35 -20 -82 -27q6 18 6 37q0 47 -34 81t-83 34v-707q31 -6 59 -6q109 0 228 119l24 24l13 17q-23 -80 -84.5 -135.5 t-143.5 -71.5q-35 -6 -67 -6q-18 0 -29 2q0 -72 18 -144h-57h-57q18 72 18 144q-98 12 -177 66.5t-130 150.5q-29 53 -43 109.5t-14 107.5zM209 442q0 -68 24 -141q55 -164 201 -225v680l-31 -11q-194 -96 -194 -303z" />
<glyph unicode="&#xa3;" horiz-adv-x="1120" d="M43 651l6 15q6 14 17 24q45 61 116 68v368q0 31 -6 59.5t-22 59.5l-48 70l-4 10l-18 33l33 -8l76 -16q35 -7 57 -7q37 0 87 30l87 50l37 20q12 10 45 17.5t78 7.5q49 0 71.5 -2t73.5 -16q123 -29 182 -117l-30 -2q-61 0 -101.5 -27.5t-62.5 -79.5l8 45l6 66 q0 35 -36 63.5t-89 28.5q-104 0 -178 -78q-45 -45 -67.5 -96t-22.5 -107v-352l14 2l23 2q16 2 45 2h39l96 -18l16 -4l129 -17l27 -6q-27 -27 -63 -47q-37 -14 -80 -14q-39 0 -72 8t-64.5 13.5t-52.5 5.5q-27 0 -57 -7v-598q0 -20 30.5 -34.5t112.5 -22.5q14 -2 41 -2 q29 0 69 4t77 6q270 31 440 139l-23 -65l-41 -123l-20 -65q-104 29 -172 39t-201 10l-215 8l-55 2l-135 2l-86 2h-39h-53l38 27q76 63 76 151v502l-16 2q-68 0 -123 -31z" />
<glyph unicode="&#xa4;" horiz-adv-x="1183" d="M76 268l112 99q-51 74 -73.5 146.5t-22.5 160.5q0 96 19.5 165.5t72.5 147.5l-108 90l63 74l105 -92q94 82 162 115q86 41 188 40q100 0 188 -43q70 -35 160 -114l96 98l76 -78l-110 -92q47 -78 67.5 -148.5t20.5 -162.5t-20.5 -161t-72.5 -148l115 -84l-76 -86l-98 98 q-90 -80 -160 -115q-86 -43 -186 -43q-98 0 -182 43q-68 35 -160 117l-100 -94zM221 674q0 -199 94 -340q104 -156 279 -156q174 0 276 156q92 139 93 340q0 199 -93 342q-102 160 -276 160t-279 -158q-94 -141 -94 -344z" />
<glyph unicode="&#xa5;" horiz-adv-x="1476" d="M57 607v36q0 217 152 447q45 70 65 92q45 55 45 78q0 31 -86 108q-18 20 -40 29l-5 6q0 18 7 27q2 2 6 4h272q14 -4 19 -9q14 -10 14 -18t-57 -78q-76 -78 -144 -260q-43 -111 -55 -240q-6 -41 -8 -81.5t-2 -92.5q0 -297 135 -458q129 -156 352 -156q29 0 58.5 2t62.5 9 t50 12.5t60 21.5q115 51 167.5 107.5t52.5 115.5v244h-390v117h390v159h-390v117h390v244q0 72 -29 115t-109 94l-16 26l23 9h286v-488h115v-117h-115v-159h115v-117h-115v-317q0 -332 -174 -510.5t-512 -178.5q-51 0 -118.5 6.5t-135.5 16.5q-117 23 -219 70q59 23 100 45 t95 65l18 12l14 13q43 -76 127 -120t201 -44h33q25 4 37 4q160 16 239.5 120.5t126.5 362.5l9 58q-74 -76 -172.5 -120t-229.5 -59q-16 0 -39.5 -2t-50.5 -2q-256 0 -422 155t-199 435q-4 20 -4 44z" />
<glyph unicode="&#xa7;" horiz-adv-x="933" d="M72 657q0 78 49 146q63 90 188 123l-55 22q-129 61 -129 197q0 98 76 182q55 61 138 96t183 35q80 0 156 -20l100 -37l-8 -21l-29 -65q-10 -18 -10 -58q0 -23 2 -36l-8 20q-41 94 -102.5 135t-159.5 41q-119 0 -185.5 -64.5t-66.5 -162.5q8 -82 68.5 -124t250.5 -95 l88 -23q49 -12 95 -35q129 -66 129 -208q0 -78 -49 -146q-63 -90 -189 -123l55 -22q129 -61 129 -197q0 -98 -75 -182q-55 -61 -138 -96t-184 -35q-80 0 -155 20l-101 37l8 21l29 65q10 18 10 57q0 23 -2 37l8 -20q41 -94 102.5 -135t160.5 -41q119 0 185 64.5t66 162.5 q-8 82 -68.5 124t-250.5 95l-88 23q-49 12 -94 35q-129 65 -129 208zM147 709q0 -80 68 -140q35 -31 102.5 -55.5t223.5 -60.5q43 6 92 24l37 17q96 55 96 159q0 80 -68 140q-35 31 -102.5 55t-222.5 61q-43 -6 -92 -24l-37 -17q-97 -55 -97 -159z" />
<glyph unicode="&#xa8;" d="M256 1077q0 35 25.5 58.5t58.5 23.5t57.5 -22.5t24.5 -59.5t-23 -57q-25 -27 -59 -27q-35 0 -59.5 24.5t-24.5 59.5zM539 1077q0 35 25.5 58.5t58.5 23.5t57.5 -22.5t24.5 -59.5t-23 -57q-25 -27 -59 -27q-35 0 -59.5 24.5t-24.5 59.5z" />
<glyph unicode="&#xa9;" horiz-adv-x="1572" d="M102 657q0 287 200 486.5t486 199.5q287 0 487 -199.5t200 -486.5t-199 -487.5t-488 -200.5q-285 0 -485.5 200.5t-200.5 487.5zM180 657q0 -252 178.5 -430t429.5 -178q250 0 429.5 177t179.5 431q0 250 -178.5 428.5t-430.5 178.5q-250 0 -429 -177.5t-179 -429.5z M416 641q0 100 38 183t117 141q53 37 110.5 54t106.5 17q61 0 130 -18l55 -17q8 -2 24 -2q41 0 47 33h39l9 -256h-41q-8 49 -37 96q-39 63 -99 91q-20 8 -50.5 14t-51.5 6q-115 0 -188 -92q-39 -49 -59.5 -116.5t-20.5 -135.5q0 -127 61.5 -217t171.5 -90q98 0 151.5 15 t119.5 71l24 20l23 -37q-66 -66 -105 -90q-86 -55 -190 -55q-41 0 -61.5 2t-65.5 14q-123 33 -190.5 136.5t-67.5 232.5z" />
<glyph unicode="&#xaa;" horiz-adv-x="548" d="M27 940q0 72 46 126t144 89q29 12 47.5 17.5t38.5 5.5l-35 73q-23 51 -78 52q-18 0 -34 -9q25 25 59 47l14 9q18 10 25 57l12 -10l6 -8q27 -29 62 -97l14 -26l219 -473h-86l-69 149l-15 -18q-57 -70 -105 -100.5t-99 -37.5q-68 -8 -117 38t-49 116zM100 977q0 -59 33 -94 t88 -35q39 0 65.5 13t65.5 46q31 25 51 54l-92 198q-33 0 -67 -12q-72 -29 -106 -71t-38 -99z" />
<glyph unicode="&#xad;" horiz-adv-x="677" d="M43 393l80 139h510l-80 -139h-510z" />
<glyph unicode="&#xae;" horiz-adv-x="1572" d="M100 647q0 287 200 486.5t486 199.5q285 0 486 -200.5t201 -485.5t-201 -485.5t-486 -200.5q-287 0 -486.5 199.5t-199.5 486.5zM178 645q0 -250 178.5 -428t429.5 -178q250 0 429.5 177t179.5 431q0 252 -179.5 429t-431.5 177q-250 0 -428 -178t-178 -430zM459 301v35 q43 0 69.5 12t26.5 41v574q0 43 -12.5 51t-75.5 8v35h334q55 0 86 -3t63.5 -15.5t57.5 -28.5q35 -25 47 -46.5t18 -47t6 -46.5q0 -45 -17.5 -81.5t-45 -61.5t-49.5 -35q-41 -20 -88 -20l237 -307q10 -14 25.5 -21.5t46.5 -7.5v-35h-189l-264 352h-53v-260q0 -31 28.5 -44 t65.5 -13v-35h-317zM680 975l2 -277h33q35 0 57.5 2t52.5 15q121 41 121 141q0 16 -2 25q-6 70 -49 102q-31 25 -68 25l-104 8q-16 0 -29.5 -11.5t-13.5 -29.5z" />
<glyph unicode="&#xaf;" d="M168 995l68 90h509l-67 -90h-510z" />
<glyph unicode="&#xb2;" horiz-adv-x="1021" d="M37 0l78 61l82 70q313 272 462 496q135 203 136 364q0 86 -41 163t-114 122t-157 45q-68 0 -135 -31l39 -229l-20 4l-33 8q-66 12 -105 12h-39q-2 0 -45 -8l-34 -4l-15 -2q53 143 190.5 223t336.5 80q143 0 230 -85t87 -224q0 -84 -33 -170q-43 -115 -100 -209t-164 -217 q-63 -72 -131 -137.5t-170 -151.5l-47 -37l-35 -28h477q63 0 108.5 12t104.5 49l39 21l17 10l-29 -51q-45 -80 -63.5 -128t-30.5 -114l-25 14q-78 39 -144.5 55.5t-156.5 16.5h-520z" />
<glyph unicode="&#xb3;" horiz-adv-x="1093" d="M55 135l58 15q102 27 159 55l19 10l20 12q-2 -8 -2 -26q0 -78 51.5 -131.5t131.5 -53.5q82 0 153.5 36t125.5 114t54 196q0 47 -3 68t-13 57q-35 139 -156 226q-51 33 -103 52t-106 19l25 4l20 5q18 4 42 13l63 25q16 6 35 17l28 16q72 43 107 100.5t35 118.5 q0 96 -78 156q-70 51 -142.5 76.5t-138.5 25.5q-57 0 -94 -43t-29 -100q10 -74 70 -113l-20 9l-37 14q-66 20 -108 28.5t-103 8.5l-47 2h-9q76 111 197 169t287 58q74 0 142.5 -11t119.5 -30q82 -33 126 -93t44 -130q0 -80 -57 -143q-37 -39 -88.5 -71t-128.5 -65l-60 -18 l19 -6l16 -6q63 -25 139 -78l51 -41q82 -70 121 -148.5t39 -164.5q0 -96 -52 -180.5t-151 -137.5q-135 -74 -299 -74q-25 0 -54.5 3.5l-45.5 5.5q-180 29 -255 60.5t-118 88.5z" />
<glyph unicode="&#xb4;" d="M207 1030q113 31 182.5 74t104.5 98q29 -49 65.5 -83t89.5 -50l-426 -74z" />
<glyph unicode="&#xb5;" horiz-adv-x="964" d="M37 -332l18 45q8 25 8 51v486q-8 41 -9 59.5t-1 28.5q0 61 17.5 117.5t56.5 115.5l33 50q2 6 2 20q0 20 -11.5 47t-37.5 64l-35 51h215l8 -6l6 -15q6 -10 6 -14q0 -10 -14 -39l-60 -108q-28 -51 -39.5 -119t-11.5 -129q0 -147 69 -226t202 -90q12 -2 24 -2h25 q104 0 162.5 39t58.5 88v475q0 43 -31 88q-12 16 -27.5 31t-35.5 27h250q-27 -41 -27 -96v-611q0 -35 19 -78l8 -18h-156v98l-14 -12l-15 -12q-123 -90 -272 -90h-25q-14 0 -43 4q-92 12 -167 67v-291l6 -49q2 -8 6 -16q6 -16 16 -31h-184z" />
<glyph unicode="&#xb7;" horiz-adv-x="409" d="M102 694q0 45 35 78t76 33q43 0 78 -33t35 -78q0 -47 -33 -78q-35 -35 -80 -34q-43 0 -77 33.5t-34 78.5z" />
<glyph unicode="&#x2219;" horiz-adv-x="409" d="M102 694q0 45 35 78t76 33q43 0 78 -33t35 -78q0 -47 -33 -78q-35 -35 -80 -34q-43 0 -77 33.5t-34 78.5z" />
<glyph unicode="&#xb8;" d="M195 -322l77 105q-6 -16 -6 -35q0 -37 27 -63q45 -51 90 -52q45 0 92 60q6 10 6 22q0 29 -28 82q-18 33 -56 90l92 127h29l-49 -75q61 -86 61 -162q0 -109 -106 -158q-59 -27 -102 -27t-72.5 22.5t-54.5 63.5z" />
<glyph unicode="&#xb9;" horiz-adv-x="581" d="M80 1208l125 97l86 57q8 4 27.5 1t29.5 -19.5t14.5 -36t4.5 -37.5v-1092q0 -70 6 -101.5t30 -76.5h-227q23 39 31 76t8 102v998q0 14 -25.5 25t-80.5 11z" />
<glyph unicode="&#xba;" horiz-adv-x="563" d="M27 1096q0 207 178 266q41 12 78 12q39 0 75 -12q86 -29 132.5 -97.5t46.5 -168.5t-47.5 -170t-131.5 -97q-41 -12 -79 -12q-106 0 -179 79t-73 200zM115 1092l6 -70q37 -176 160 -176q72 0 120 65.5t48 184.5t-49.5 185.5t-118.5 66.5q-72 0 -119 -65.5t-47 -190.5z" />
<glyph unicode="&#xbf;" horiz-adv-x="860" d="M35 -266q0 133 59.5 223t186.5 161.5t127 151.5q0 57 -60 123l-33 35l-4 6l51 -2l25 -2l88 -8l10 -2l66 8l39 -4q-10 -84 -52 -143.5t-196 -203t-154 -360.5q0 -150 54.5 -232.5t148.5 -102.5q29 -6 55 -7q106 0 183.5 79t77.5 208q0 63 -13.5 109.5t-48.5 93.5 q61 -23 105 -68q78 -90 77 -178q0 -123 -143 -223q-94 -61 -213 -62q-74 0 -154 25q-166 51 -237 197q-45 82 -45 178zM336 696q0 45 32.5 78t77.5 33q47 0 80 -33t33 -78t-32.5 -77.5t-80.5 -32.5q-45 0 -77.5 32.5t-32.5 77.5z" />
<glyph unicode="&#xc0;" horiz-adv-x="1370" d="M55 195q0 180 75 359t218 333q129 133 295 223l-10 25q-61 141 -127 207.5t-166 95.5l66 -2l26 -2l152 -4h24q53 4 68 4q31 0 59 -56l127 -282l154 -359l26 -63l123 -277q66 -154 119 -237q47 -74 127 -160h-252q-31 90 -61.5 164t-96.5 217l-63 137l-43 88 q-23 53 -43.5 91t-40.5 81l-16 33l-21 37l-41 -53l-31 -39l-170 -215l-208 -258l-170 -215l-72 -93q-27 105 -27 220zM223 303q0 -49 19 -67l516 645l-90 182q-70 -10 -129.5 -58.5t-163.5 -181.5q-45 -59 -79 -132t-49.5 -140.5t-18.5 -84.5t-3 -50q0 -35 -1 -62.5 t-1 -50.5zM279 1610q55 16 89.5 47t65.5 86q37 -55 103.5 -97t183.5 -75l-16 -35z" />
<glyph unicode="&#xc1;" horiz-adv-x="1370" d="M55 195q0 180 75 359t218 333q129 133 295 223l-10 25q-61 141 -127 207.5t-166 95.5l66 -2l26 -2l152 -4h24q53 4 68 4q31 0 59 -56l127 -282l154 -359l26 -63l123 -277q66 -154 119 -237q47 -74 127 -160h-252q-31 90 -61.5 164t-96.5 217l-63 137l-43 88 q-23 53 -43.5 91t-40.5 81l-16 33l-21 37l-41 -53l-31 -39l-170 -215l-208 -258l-170 -215l-72 -93q-27 105 -27 220zM223 303q0 -49 19 -67l516 645l-90 182q-70 -10 -129.5 -58.5t-163.5 -181.5q-45 -59 -79 -132t-49.5 -140.5t-18.5 -84.5t-3 -50q0 -35 -1 -62.5 t-1 -50.5zM336 1571q113 31 182.5 74t104.5 98q29 -49 65.5 -83t89.5 -50l-426 -74z" />
<glyph unicode="&#xc2;" horiz-adv-x="1370" d="M55 195q0 180 75 359t218 333q129 133 295 223l-10 25q-61 141 -127 207.5t-166 95.5l66 -2l26 -2l152 -4h24q53 4 68 4q31 0 59 -56l127 -282l154 -359l26 -63l123 -277q66 -154 119 -237q47 -74 127 -160h-252q-31 90 -61.5 164t-96.5 217l-63 137l-43 88 q-23 53 -43.5 91t-40.5 81l-16 33l-21 37l-41 -53l-31 -39l-170 -215l-208 -258l-170 -215l-72 -93q-27 105 -27 220zM223 303q0 -49 19 -67l516 645l-90 182q-70 -10 -129.5 -58.5t-163.5 -181.5q-45 -59 -79 -132t-49.5 -140.5t-18.5 -84.5t-3 -50q0 -35 -1 -62.5 t-1 -50.5zM299 1569q86 35 130 68.5t103 107.5q45 -61 100.5 -101t137.5 -71l-29 -37l-209 82q-37 -18 -129 -53q-31 -10 -88 -33z" />
<glyph unicode="&#xc3;" horiz-adv-x="1370" d="M55 195q0 180 75 359t218 333q129 133 295 223l-10 25q-61 141 -127 207.5t-166 95.5l66 -2l26 -2l152 -4h24q53 4 68 4q31 0 59 -56l127 -282l154 -359l26 -63l123 -277q66 -154 119 -237q47 -74 127 -160h-252q-31 90 -61.5 164t-96.5 217l-63 137l-43 88 q-23 53 -43.5 91t-40.5 81l-16 33l-21 37l-41 -53l-31 -39l-170 -215l-208 -258l-170 -215l-72 -93q-27 105 -27 220zM223 303q0 -49 19 -67l516 645l-90 182q-70 -10 -129.5 -58.5t-163.5 -181.5q-45 -59 -79 -132t-49.5 -140.5t-18.5 -84.5t-3 -50q0 -35 -1 -62.5 t-1 -50.5zM288 1563l113 70l14 2l27 12q20 8 47 12t51 4q70 0 140 -32q27 -10 47 -11q20 0 47 8l16 3l-6 -13q-20 -37 -39 -53q-10 -10 -41 -29q-29 10 -51 23l-94 47q-25 12 -66 12q-29 0 -59.5 -9t-67.5 -32q-10 -6 -27.5 -21.5t-27.5 -25.5z" />
<glyph unicode="&#xc4;" horiz-adv-x="1370" d="M55 195q0 180 75 359t218 333q129 133 295 223l-10 25q-61 141 -127 207.5t-166 95.5l66 -2l26 -2l152 -4h24q53 4 68 4q31 0 59 -56l127 -282l154 -359l26 -63l123 -277q66 -154 119 -237q47 -74 127 -160h-252q-31 90 -61.5 164t-96.5 217l-63 137l-43 88 q-23 53 -43.5 91t-40.5 81l-16 33l-21 37l-41 -53l-31 -39l-170 -215l-208 -258l-170 -215l-72 -93q-27 105 -27 220zM223 303q0 -49 19 -67l516 645l-90 182q-70 -10 -129.5 -58.5t-163.5 -181.5q-45 -59 -79 -132t-49.5 -140.5t-18.5 -84.5t-3 -50q0 -35 -1 -62.5 t-1 -50.5zM305 1618q0 35 25.5 58.5t58.5 23.5t57.5 -22.5t24.5 -59.5t-23 -57q-25 -27 -59 -27q-35 0 -59.5 24.5t-24.5 59.5zM588 1618q0 35 25.5 58.5t58.5 23.5t57.5 -22.5t24.5 -59.5t-23 -57q-25 -27 -59 -27q-35 0 -59.5 24.5t-24.5 59.5z" />
<glyph unicode="&#xc5;" horiz-adv-x="1370" d="M55 195q0 180 75 359t218 333q129 133 295 223l-10 25q-61 141 -127 207.5t-166 95.5l66 -2l26 -2l152 -4h24q53 4 68 4q31 0 59 -56l127 -282l154 -359l26 -63l123 -277q66 -154 119 -237q47 -74 127 -160h-252q-31 90 -61.5 164t-96.5 217l-63 137l-43 88 q-23 53 -43.5 91t-40.5 81l-16 33l-21 37l-41 -53l-31 -39l-170 -215l-208 -258l-170 -215l-72 -93q-27 105 -27 220zM223 303q0 -49 19 -67l516 645l-90 182q-70 -10 -129.5 -58.5t-163.5 -181.5q-45 -59 -79 -132t-49.5 -140.5t-18.5 -84.5t-3 -50q0 -35 -1 -62.5 t-1 -50.5zM448 1630q0 49 36 84t85 35q27 0 47.5 -7t40.5 -26q35 -39 35 -84q0 -49 -35 -84q-43 -39 -90 -39t-83 36t-36 85zM487 1630q0 -35 24.5 -59.5t59.5 -24.5t59 27q23 20 23 57t-24.5 59.5t-57.5 22.5t-58.5 -23.5t-25.5 -58.5z" />
<glyph unicode="&#xc6;" horiz-adv-x="2428" d="M55 195q0 180 75 359t218 333q129 133 295 223l-10 25q-61 141 -127 207.5t-166 95.5l66 -2l26 -2l152 -4h24q53 4 68 4q31 0 59 -56l127 -282l99 -228q61 256 239 404q193 158 486 158l75 4h94h527l-12 -11l-11 -10q-37 -35 -58.5 -80t-21.5 -98v-25q-78 80 -175 121 t-238 41q-43 0 -82 -1t-88 -9q-211 -35 -329 -125t-169 -217h780l52 4q156 20 249 96v-61v-115v-61l-43 28q-63 39 -119.5 54.5t-138.5 15.5h-796l-11 -25l-8 -22l-16 -53q-14 -59 -21.5 -112.5t-7.5 -115.5q0 -186 86 -326.5t219 -216t293 -75.5q29 0 61.5 3t73.5 11 q154 33 259.5 105.5t168.5 187.5v-76v-73q-150 -143 -376 -191q-106 -23 -224 -22q-156 0 -297 51l29 -31h-252q-31 90 -61.5 164t-96.5 217l-63 137l-43 88q-23 53 -43.5 91t-40.5 81l-16 33l-21 37l-41 -53l-31 -39l-170 -215l-208 -258l-170 -215l-72 -93 q-27 105 -27 220zM223 303q0 -49 19 -67l516 645l-90 182q-70 -10 -129.5 -58.5t-163.5 -181.5q-45 -59 -79 -132t-49.5 -140.5t-18.5 -84.5t-3 -50q0 -35 -1 -62.5t-1 -50.5z" />
<glyph unicode="&#xc7;" horiz-adv-x="1529" d="M57 739q0 309 220.5 501t586.5 192l76 2h561l-10 -9l-14 -14q-39 -37 -56.5 -76t-17.5 -102v-23q-76 80 -176.5 121t-243.5 41q-319 0 -516 -159.5t-227 -452.5q-4 -23 -4 -49v-41q0 -274 176 -454.5t434 -180.5h33q25 4 36 4q242 25 412 205q14 14 40 46t36 46l-2 -35 l-2 -39v-37v-39q-109 -98 -242 -150t-297 -52h-18l-29 -45q61 -86 61 -162q0 -109 -106 -158q-59 -27 -102 -27t-73 23t-54 63l77 105q-6 -16 -6 -35q0 -37 27 -63q45 -51 90 -52q45 0 92 60q6 10 6 22q0 29 -28 82q-18 33 -56 90l70 97q-258 0 -433 107.5t-267 316.5 q-31 74 -42.5 150.5t-11.5 180.5z" />
<glyph unicode="&#xc8;" horiz-adv-x="1558" d="M55 684q0 82 19 160q55 264 237 420q195 166 494 166l76 4h94h526l-12 -11l-10 -10q-37 -35 -58.5 -80t-21.5 -98v-25q-78 80 -175.5 121t-238.5 41q-43 0 -82 -1t-88 -9q-211 -35 -328.5 -125t-169.5 -217h781l51 4q156 20 250 96v-61v-115v-61l-43 28 q-63 39 -119.5 54.5t-138.5 15.5h-797l-10 -25l-8 -22l-17 -53q-14 -59 -21 -112.5t-7 -115.5q0 -186 86 -326.5t219 -216t293 -75.5q29 0 61.5 3t73.5 11q154 33 259 105.5t169 187.5v-76v-73q-150 -143 -377 -191q-123 -23 -221 -22q-309 0 -511 176t-231 460q-2 16 -3 32 t-1 36zM555 1610q55 16 89.5 47t65.5 86q37 -55 103.5 -97t183.5 -75l-16 -35z" />
<glyph unicode="&#xc9;" horiz-adv-x="1558" d="M55 684q0 82 19 160q55 264 237 420q195 166 494 166l76 4h94h526l-12 -11l-10 -10q-37 -35 -58.5 -80t-21.5 -98v-25q-78 80 -175.5 121t-238.5 41q-43 0 -82 -1t-88 -9q-211 -35 -328.5 -125t-169.5 -217h781l51 4q156 20 250 96v-61v-115v-61l-43 28 q-63 39 -119.5 54.5t-138.5 15.5h-797l-10 -25l-8 -22l-17 -53q-14 -59 -21 -112.5t-7 -115.5q0 -186 86 -326.5t219 -216t293 -75.5q29 0 61.5 3t73.5 11q154 33 259 105.5t169 187.5v-76v-73q-150 -143 -377 -191q-123 -23 -221 -22q-309 0 -511 176t-231 460q-2 16 -3 32 t-1 36zM594 1571q113 31 182.5 74t104.5 98q29 -49 65.5 -83t89.5 -50l-426 -74z" />
<glyph unicode="&#xca;" horiz-adv-x="1558" d="M55 684q0 82 19 160q55 264 237 420q195 166 494 166l76 4h94h526l-12 -11l-10 -10q-37 -35 -58.5 -80t-21.5 -98v-25q-78 80 -175.5 121t-238.5 41q-43 0 -82 -1t-88 -9q-211 -35 -328.5 -125t-169.5 -217h781l51 4q156 20 250 96v-61v-115v-61l-43 28 q-63 39 -119.5 54.5t-138.5 15.5h-797l-10 -25l-8 -22l-17 -53q-14 -59 -21 -112.5t-7 -115.5q0 -186 86 -326.5t219 -216t293 -75.5q29 0 61.5 3t73.5 11q154 33 259 105.5t169 187.5v-76v-73q-150 -143 -377 -191q-123 -23 -221 -22q-309 0 -511 176t-231 460q-2 16 -3 32 t-1 36zM564 1569q86 35 130 68.5t103 107.5q45 -61 100.5 -101t137.5 -71l-29 -37l-209 82q-37 -18 -129 -53q-31 -10 -88 -33z" />
<glyph unicode="&#xcb;" horiz-adv-x="1558" d="M55 684q0 82 19 160q55 264 237 420q195 166 494 166l76 4h94h526l-12 -11l-10 -10q-37 -35 -58.5 -80t-21.5 -98v-25q-78 80 -175.5 121t-238.5 41q-43 0 -82 -1t-88 -9q-211 -35 -328.5 -125t-169.5 -217h781l51 4q156 20 250 96v-61v-115v-61l-43 28 q-63 39 -119.5 54.5t-138.5 15.5h-797l-10 -25l-8 -22l-17 -53q-14 -59 -21 -112.5t-7 -115.5q0 -186 86 -326.5t219 -216t293 -75.5q29 0 61.5 3t73.5 11q154 33 259 105.5t169 187.5v-76v-73q-150 -143 -377 -191q-123 -23 -221 -22q-309 0 -511 176t-231 460q-2 16 -3 32 t-1 36zM594 1618q0 35 25.5 58.5t58.5 23.5t57.5 -22.5t24.5 -59.5t-23 -57q-25 -27 -59 -27q-35 0 -59.5 24.5t-24.5 59.5zM877 1618q0 35 25.5 58.5t58.5 23.5t57.5 -22.5t24.5 -59.5t-23 -57q-25 -27 -59 -27q-35 0 -59.5 24.5t-24.5 59.5z" />
<glyph unicode="&#xcc;" horiz-adv-x="450" d="M-100 1434h403v-1256q0 -61 6 -100t25 -78h-228q20 39 28.5 76t8.5 102v981q0 88 -33.5 136t-138.5 110q-24 17 -71 29zM-96 1610q55 16 89.5 47t65.5 86q37 -55 103.5 -97t183.5 -75l-16 -35z" />
<glyph unicode="&#xcd;" horiz-adv-x="450" d="M-100 1434h403v-1256q0 -61 6 -100t25 -78h-228q20 39 28.5 76t8.5 102v981q0 88 -33.5 136t-138.5 110q-24 17 -71 29zM-82 1571q113 31 182.5 74t104.5 98q29 -49 65.5 -83t89.5 -50l-426 -74z" />
<glyph unicode="&#xce;" horiz-adv-x="450" d="M-100 1434h403v-1256q0 -61 6 -100t25 -78h-228q20 39 28.5 76t8.5 102v981q0 88 -33.5 136t-138.5 110q-24 17 -71 29zM-57 1569q86 35 130 68.5t103 107.5q45 -61 100.5 -101t137.5 -71l-29 -37l-209 82q-37 -18 -129 -53q-31 -10 -88 -33z" />
<glyph unicode="&#xcf;" horiz-adv-x="450" d="M-100 1434h403v-1256q0 -61 6 -100t25 -78h-228q20 39 28.5 76t8.5 102v981q0 88 -33.5 136t-138.5 110q-24 17 -71 29zM-125 1618q0 35 25.5 58.5t58.5 23.5t57.5 -22.5t24.5 -59.5t-23 -57q-25 -27 -59 -27q-35 0 -59.5 24.5t-24.5 59.5zM158 1618q0 35 25.5 58.5 t58.5 23.5t57.5 -22.5t24.5 -59.5t-23 -57q-25 -27 -59 -27q-35 0 -59.5 24.5t-24.5 59.5z" />
<glyph unicode="&#xd1;" horiz-adv-x="1425" d="M-49 1434h299l979 -1190v907q0 76 -33 133t-111 117l-34 24l-13 9h244v-1485q-27 18 -33 24q-12 10 -28 29l-37 45l-991 1206v-909q0 -70 33.5 -154t90.5 -151l39 -39h-71h-129h-84q20 29 30.5 57.5t22.5 83.5l16 78v1096l-41 37q-51 45 -78.5 60.5t-70.5 21.5zM399 1563 l113 70l14 2l27 12q20 8 47 12t51 4q70 0 140 -32q27 -10 47 -11q20 0 47 8l16 3l-6 -13q-20 -37 -39 -53q-10 -10 -41 -29q-29 10 -51 23l-94 47q-25 12 -66 12q-29 0 -59.5 -9t-67.5 -32q-10 -6 -27.5 -21.5t-27.5 -25.5z" />
<glyph unicode="&#xd2;" horiz-adv-x="1695" d="M57 717q0 328 218.5 539.5t572.5 211.5q350 0 572 -212t222 -527q0 -74 -10 -139.5t-37 -143.5q-76 -215 -276.5 -348t-470.5 -133q-352 0 -571.5 211t-219.5 541zM250 717q0 -256 113.5 -432t308.5 -240q90 -29 176 -29q88 0 178 29q195 63 308.5 239.5t113.5 432.5 t-113.5 431t-308.5 241q-82 27 -178 26q-94 0 -176 -26q-195 -63 -305 -236q-117 -180 -117 -436zM555 1610q55 16 89.5 47t65.5 86q37 -55 103.5 -97t183.5 -75l-16 -35z" />
<glyph unicode="&#xd3;" horiz-adv-x="1695" d="M57 717q0 328 218.5 539.5t572.5 211.5q350 0 572 -212t222 -527q0 -74 -10 -139.5t-37 -143.5q-76 -215 -276.5 -348t-470.5 -133q-352 0 -571.5 211t-219.5 541zM250 717q0 -256 113.5 -432t308.5 -240q90 -29 176 -29q88 0 178 29q195 63 308.5 239.5t113.5 432.5 t-113.5 431t-308.5 241q-82 27 -178 26q-94 0 -176 -26q-195 -63 -305 -236q-117 -180 -117 -436zM613 1571q113 31 182.5 74t104.5 98q29 -49 65.5 -83t89.5 -50l-426 -74z" />
<glyph unicode="&#xd4;" horiz-adv-x="1695" d="M57 717q0 328 218.5 539.5t572.5 211.5q350 0 572 -212t222 -527q0 -74 -10 -139.5t-37 -143.5q-76 -215 -276.5 -348t-470.5 -133q-352 0 -571.5 211t-219.5 541zM250 717q0 -256 113.5 -432t308.5 -240q90 -29 176 -29q88 0 178 29q195 63 308.5 239.5t113.5 432.5 t-113.5 431t-308.5 241q-82 27 -178 26q-94 0 -176 -26q-195 -63 -305 -236q-117 -180 -117 -436zM619 1569q86 35 130 68.5t103 107.5q45 -61 100.5 -101t137.5 -71l-29 -37l-209 82q-37 -18 -129 -53q-31 -10 -88 -33z" />
<glyph unicode="&#xd5;" horiz-adv-x="1695" d="M57 717q0 328 218.5 539.5t572.5 211.5q350 0 572 -212t222 -527q0 -74 -10 -139.5t-37 -143.5q-76 -215 -276.5 -348t-470.5 -133q-352 0 -571.5 211t-219.5 541zM250 717q0 -256 113.5 -432t308.5 -240q90 -29 176 -29q88 0 178 29q195 63 308.5 239.5t113.5 432.5 t-113.5 431t-308.5 241q-82 27 -178 26q-94 0 -176 -26q-195 -63 -305 -236q-117 -180 -117 -436zM583 1563l113 70l14 2l27 12q20 8 47 12t51 4q70 0 140 -32q27 -10 47 -11q20 0 47 8l16 3l-6 -13q-20 -37 -39 -53q-10 -10 -41 -29q-29 10 -51 23l-94 47q-25 12 -66 12 q-29 0 -59.5 -9t-67.5 -32q-10 -6 -27.5 -21.5t-27.5 -25.5z" />
<glyph unicode="&#xd6;" horiz-adv-x="1695" d="M57 717q0 328 218.5 539.5t572.5 211.5q350 0 572 -212t222 -527q0 -74 -10 -139.5t-37 -143.5q-76 -215 -276.5 -348t-470.5 -133q-352 0 -571.5 211t-219.5 541zM250 717q0 -256 113.5 -432t308.5 -240q90 -29 176 -29q88 0 178 29q195 63 308.5 239.5t113.5 432.5 t-113.5 431t-308.5 241q-82 27 -178 26q-94 0 -176 -26q-195 -63 -305 -236q-117 -180 -117 -436zM612 1618q0 35 25.5 58.5t58.5 23.5t57.5 -22.5t24.5 -59.5t-23 -57q-25 -27 -59 -27q-35 0 -59.5 24.5t-24.5 59.5zM895 1618q0 35 25.5 58.5t58.5 23.5t57.5 -22.5 t24.5 -59.5t-23 -57q-25 -27 -59 -27q-35 0 -59.5 24.5t-24.5 59.5z" />
<glyph unicode="&#xd7;" />
<glyph unicode="&#x141;" />
<glyph unicode="&#xfd;" />
<glyph unicode="&#xd8;" horiz-adv-x="1695" d="M57 717q0 328 218.5 539.5t572.5 211.5q106 0 205.5 -22.5t183.5 -63.5q18 37 27.5 70t9.5 64l-6 75h198l-163 -245q160 -100 249.5 -263t89.5 -358q0 -72 -10 -137.5t-37 -141.5q-76 -215 -276.5 -348t-470.5 -133q-117 0 -213 22.5t-189 67.5l-18 -28 q-39 -63 -52.5 -87t-33.5 -73h-57h-58l25 33l29 37l36 47l31 41l14 22l19 29l8 12q-156 98 -244 263t-88 366zM250 717q0 -176 51 -310.5t148 -228.5l725 1086l14 26l6 10q-70 55 -160 85t-186 30q-94 0 -176 -26q-195 -63 -305 -236q-117 -180 -117 -436zM498 135 q84 -61 174 -90t176 -29q88 0 178 29q195 63 308.5 239.5t113.5 432.5q0 174 -52.5 310t-150.5 230z" />
<glyph unicode="&#xd9;" horiz-adv-x="1476" d="M57 607v36q0 217 152 447q45 70 65 92q45 55 45 78q0 31 -86 110q-23 18 -40 27q-10 8 -15 24l12 13h302q23 0 12 -25q-2 -8 -21 -33q-33 -45 -34 -47q-78 -84 -142 -258q-45 -111 -57 -242q-6 -43 -8 -107.5t-2 -68.5q0 -295 133 -454q127 -154 350 -154 q57 0 116.5 10.5t118.5 36.5q115 49 167.5 103.5t52.5 113.5v881q0 66 -22.5 105.5t-90.5 101.5l-41 37h309v-1434h-155v166l-50 -31l-22 -16l-76 -49l-20 -15q-45 -31 -140.5 -56.5t-193.5 -25.5q-250 0 -416 156t-199 434q-4 20 -4 44zM506 1610q55 16 89.5 47t65.5 86 q37 -55 103.5 -97t183.5 -75l-16 -35z" />
<glyph unicode="&#xda;" horiz-adv-x="1476" d="M57 607v36q0 217 152 447q45 70 65 92q45 55 45 78q0 31 -86 110q-23 18 -40 27q-10 8 -15 24l12 13h302q23 0 12 -25q-2 -8 -21 -33q-33 -45 -34 -47q-78 -84 -142 -258q-45 -111 -57 -242q-6 -43 -8 -107.5t-2 -68.5q0 -295 133 -454q127 -154 350 -154 q57 0 116.5 10.5t118.5 36.5q115 49 167.5 103.5t52.5 113.5v881q0 66 -22.5 105.5t-90.5 101.5l-41 37h309v-1434h-155v166l-50 -31l-22 -16l-76 -49l-20 -15q-45 -31 -140.5 -56.5t-193.5 -25.5q-250 0 -416 156t-199 434q-4 20 -4 44zM496 1571q113 31 182.5 74t104.5 98 q29 -49 65.5 -83t89.5 -50l-426 -74z" />
<glyph unicode="&#xdb;" horiz-adv-x="1476" d="M57 607v36q0 217 152 447q45 70 65 92q45 55 45 78q0 31 -86 110q-23 18 -40 27q-10 8 -15 24l12 13h302q23 0 12 -25q-2 -8 -21 -33q-33 -45 -34 -47q-78 -84 -142 -258q-45 -111 -57 -242q-6 -43 -8 -107.5t-2 -68.5q0 -295 133 -454q127 -154 350 -154 q57 0 116.5 10.5t118.5 36.5q115 49 167.5 103.5t52.5 113.5v881q0 66 -22.5 105.5t-90.5 101.5l-41 37h309v-1434h-155v166l-50 -31l-22 -16l-76 -49l-20 -15q-45 -31 -140.5 -56.5t-193.5 -25.5q-250 0 -416 156t-199 434q-4 20 -4 44zM465 1569q86 35 130 68.5t103 107.5 q45 -61 100.5 -101t137.5 -71l-29 -37l-209 82q-37 -18 -129 -53q-31 -10 -88 -33z" />
<glyph unicode="&#xdc;" horiz-adv-x="1476" d="M57 607v36q0 217 152 447q45 70 65 92q45 55 45 78q0 31 -86 110q-23 18 -40 27q-10 8 -15 24l12 13h302q23 0 12 -25q-2 -8 -21 -33q-33 -45 -34 -47q-78 -84 -142 -258q-45 -111 -57 -242q-6 -43 -8 -107.5t-2 -68.5q0 -295 133 -454q127 -154 350 -154 q57 0 116.5 10.5t118.5 36.5q115 49 167.5 103.5t52.5 113.5v881q0 66 -22.5 105.5t-90.5 101.5l-41 37h309v-1434h-155v166l-50 -31l-22 -16l-76 -49l-20 -15q-45 -31 -140.5 -56.5t-193.5 -25.5q-250 0 -416 156t-199 434q-4 20 -4 44zM477 1618q0 35 25.5 58.5t58.5 23.5 t57.5 -22.5t24.5 -59.5t-23 -57q-25 -27 -59 -27q-35 0 -59.5 24.5t-24.5 59.5zM760 1618q0 35 25.5 58.5t58.5 23.5t57.5 -22.5t24.5 -59.5t-23 -57q-25 -27 -59 -27q-35 0 -59.5 24.5t-24.5 59.5z" />
<glyph unicode="&#xdd;" horiz-adv-x="1476" d="M752 1626q113 31 182.5 74t104.5 98q29 -49 65.5 -83t89.5 -50l-426 -74zM57 607v36q0 217 152 447q45 70 65 92q45 55 45 78q0 31 -86 108q-18 20 -40 29l-5 6q0 18 7 27q2 2 6 4h272q14 -4 19 -9q14 -10 14 -18t-57 -78q-76 -78 -144 -260q-43 -111 -55 -240 q-6 -41 -8 -81.5t-2 -92.5q0 -297 135 -458q129 -156 352 -156q29 0 58.5 2t62.5 9t50 12.5t60 21.5q115 51 167.5 107.5t52.5 115.5v881q0 72 -29 115t-109 94l-16 26l23 9h286v-1198q0 -332 -174 -510.5t-512 -178.5q-51 0 -118.5 6.5t-135.5 16.5q-117 23 -219 70 q59 23 100 45t95 65l18 12l14 13q43 -76 127 -120t201 -44h33q25 4 37 4q160 16 239.5 120.5t126.5 362.5l9 58q-74 -76 -172.5 -120t-229.5 -59q-16 0 -39.5 -2t-50.5 -2q-256 0 -422 155t-199 435q-4 20 -4 44z" />
<glyph unicode="&#xdf;" horiz-adv-x="1050" d="M-33 1120l111 -12q31 -6 41 -6q14 -2 31 -2q33 0 79 30q68 43 110 60.5t77 17.5q25 0 58.5 -5t95 -13t128.5 -41q104 -49 105 -125q0 -66 -105 -125q-139 -80 -166 -111q-47 -53 -47 -104q0 -68 86 -121q41 -25 81 -43t96 -41q2 -2 29.5 -8t31.5 -8l57 -21q43 -16 70 -39 q51 -45 51 -153q0 -125 -70.5 -184.5t-164.5 -77.5q-61 -12 -115 -13q-143 0 -232.5 73t-99.5 190l21 8l8 4l51 18l18 6q37 12 95 62l-11 -17q-14 -29 -20 -56t-6 -56q0 -70 44 -118t122 -58q29 -4 41 -4q61 0 108 28.5t70 73.5q14 35 14 84q0 63 -23.5 118.5t-53.5 66.5 l-95 35q-66 24 -145 59q-6 4 -28.5 10t-39.5 12q-106 51 -106 152q0 72 59 131q4 4 135 84q100 61 101 110q0 109 -80 150q-51 27 -144 26h-32q-49 0 -95.5 -42t-68.5 -126q-14 -51 -15 -94v-1347l-127 -101v1444q0 49 -22.5 91t-77.5 93z" />
<glyph unicode="&#xe0;" horiz-adv-x="915" d="M43 227q0 106 80 192.5t239 139.5q27 10 67 20.5t77 14.5l-57 113q-43 80 -130 79q-33 0 -61 -14q27 25 45.5 38t54.5 34l23 12q35 16 43 90l18 -16l13 -15q47 -51 102 -145l25 -43l362 -727h-143l-115 229l-22 -26q-96 -104 -176 -153.5t-169 -59.5q-10 -2 -32 -2 q-102 0 -173 70.5t-71 168.5zM168 283q0 -86 50 -142.5t134 -56.5q18 2 27 2q55 6 103 26.5t106 63.5q27 20 41 33.5t45 48.5l-154 305q-66 0 -114 -18q-238 -94 -238 -262zM218 1069q55 16 89.5 47t65.5 86q37 -55 103.5 -97t183.5 -75l-16 -35z" />
<glyph unicode="&#xe1;" horiz-adv-x="915" d="M43 227q0 106 80 192.5t239 139.5q27 10 67 20.5t77 14.5l-57 113q-43 80 -130 79q-33 0 -61 -14q27 25 45.5 38t54.5 34l23 12q35 16 43 90l18 -16l13 -15q47 -51 102 -145l25 -43l362 -727h-143l-115 229l-22 -26q-96 -104 -176 -153.5t-169 -59.5q-10 -2 -32 -2 q-102 0 -173 70.5t-71 168.5zM168 283q0 -86 50 -142.5t134 -56.5q18 2 27 2q55 6 103 26.5t106 63.5q27 20 41 33.5t45 48.5l-154 305q-66 0 -114 -18q-238 -94 -238 -262zM207 1030q113 31 182.5 74t104.5 98q29 -49 65.5 -83t89.5 -50l-426 -74z" />
<glyph unicode="&#xe2;" horiz-adv-x="915" d="M43 227q0 106 80 192.5t239 139.5q27 10 67 20.5t77 14.5l-57 113q-43 80 -130 79q-33 0 -61 -14q27 25 45.5 38t54.5 34l23 12q35 16 43 90l18 -16l13 -15q47 -51 102 -145l25 -43l362 -727h-143l-115 229l-22 -26q-96 -104 -176 -153.5t-169 -59.5q-10 -2 -32 -2 q-102 0 -173 70.5t-71 168.5zM168 283q0 -86 50 -142.5t134 -56.5q18 2 27 2q55 6 103 26.5t106 63.5q27 20 41 33.5t45 48.5l-154 305q-66 0 -114 -18q-238 -94 -238 -262zM201 1028q86 35 130 68.5t103 107.5q45 -61 100.5 -101t137.5 -71l-29 -37l-209 82 q-37 -18 -129 -53q-31 -10 -88 -33z" />
<glyph unicode="&#xe3;" horiz-adv-x="915" d="M43 227q0 106 80 192.5t239 139.5q27 10 67 20.5t77 14.5l-57 113q-43 80 -130 79q-33 0 -61 -14q27 25 45.5 38t54.5 34l23 12q35 16 43 90l18 -16l13 -15q47 -51 102 -145l25 -43l362 -727h-143l-115 229l-22 -26q-96 -104 -176 -153.5t-169 -59.5q-10 -2 -32 -2 q-102 0 -173 70.5t-71 168.5zM168 283q0 -86 50 -142.5t134 -56.5q18 2 27 2q55 6 103 26.5t106 63.5q27 20 41 33.5t45 48.5l-154 305q-66 0 -114 -18q-238 -94 -238 -262zM190 1022l113 70l14 2l27 12q20 8 47 12t51 4q70 0 140 -32q27 -10 47 -11q20 0 47 8l16 3l-6 -13 q-20 -37 -39 -53q-10 -10 -41 -29q-29 10 -51 23l-94 47q-25 12 -66 12q-29 0 -59.5 -9t-67.5 -32q-10 -6 -27.5 -21.5t-27.5 -25.5z" />
<glyph unicode="&#xe4;" horiz-adv-x="915" d="M43 227q0 106 80 192.5t239 139.5q27 10 67 20.5t77 14.5l-57 113q-43 80 -130 79q-33 0 -61 -14q27 25 45.5 38t54.5 34l23 12q35 16 43 90l18 -16l13 -15q47 -51 102 -145l25 -43l362 -727h-143l-115 229l-22 -26q-96 -104 -176 -153.5t-169 -59.5q-10 -2 -32 -2 q-102 0 -173 70.5t-71 168.5zM168 283q0 -86 50 -142.5t134 -56.5q18 2 27 2q55 6 103 26.5t106 63.5q27 20 41 33.5t45 48.5l-154 305q-66 0 -114 -18q-238 -94 -238 -262zM225 1077q0 35 25.5 58.5t58.5 23.5t57.5 -22.5t24.5 -59.5t-23 -57q-25 -27 -59 -27 q-35 0 -59.5 24.5t-24.5 59.5zM508 1077q0 35 25.5 58.5t58.5 23.5t57.5 -22.5t24.5 -59.5t-23 -57q-25 -27 -59 -27q-35 0 -59.5 24.5t-24.5 59.5z" />
<glyph unicode="&#xe5;" horiz-adv-x="915" d="M43 227q0 106 80 192.5t239 139.5q27 10 67 20.5t77 14.5l-57 113q-43 80 -130 79q-33 0 -61 -14q27 25 45.5 38t54.5 34l23 12q35 16 43 90l18 -16l13 -15q47 -51 102 -145l25 -43l362 -727h-143l-115 229l-22 -26q-96 -104 -176 -153.5t-169 -59.5q-10 -2 -32 -2 q-102 0 -173 70.5t-71 168.5zM168 283q0 -86 50 -142.5t134 -56.5q18 2 27 2q55 6 103 26.5t106 63.5q27 20 41 33.5t45 48.5l-154 305q-66 0 -114 -18q-238 -94 -238 -262zM305 1077q0 49 36 84t85 35q27 0 47.5 -7t40.5 -26q35 -39 35 -84q0 -49 -35 -84q-43 -39 -90 -39 t-83 36t-36 85zM344 1077q0 -35 24.5 -59.5t59.5 -24.5t59 27q23 20 23 57t-24.5 59.5t-57.5 22.5t-58.5 -23.5t-25.5 -58.5z" />
<glyph unicode="&#xe6;" horiz-adv-x="1425" d="M43 227q0 106 80 192.5t239 139.5q27 10 67 20.5t77 14.5l-57 113q-43 80 -130 79q-33 0 -61 -14q27 25 45.5 38t54.5 34l23 12q35 16 43 90l18 -16l13 -15q47 -51 102 -145l25 -43l84 -182q31 102 90 166q92 98 213 114q41 6 80 6q135 0 220 -67.5t85 -161.5h-549 l-6 -33q-12 -92 -13 -151q0 -57 9 -99q27 -117 116.5 -187.5t208.5 -70.5q88 0 164 41l14 7l56 34q8 8 45 23l-23 -29q-68 -84 -144.5 -118.5t-178.5 -34.5q-150 0 -277 129q-55 55 -86 120l-4 -4l-22 -26q-96 -104 -176 -153.5t-169 -59.5q-10 -2 -32 -2q-102 0 -173 70.5 t-71 168.5zM168 283q0 -86 50 -142.5t134 -56.5q18 2 27 2q55 6 103 26.5t106 63.5q27 20 41 33.5t45 48.5l-154 305q-66 0 -114 -18q-238 -94 -238 -262zM819 641h393q-8 66 -65 111t-127 45q-35 0 -72 -13.5t-67.5 -44t-53.5 -80.5z" />
<glyph unicode="&#xe7;" horiz-adv-x="837" d="M43 430q0 115 64.5 210t181.5 146q55 25 100 32t82 7q113 0 197 -55q53 -33 84 -82q-49 -47 -113 -67l-41 -11q6 18 6 39q0 47 -31.5 83t-83.5 36q-18 2 -26 2q-111 0 -196 -97.5t-85 -232.5q0 -45 13 -92q43 -166 149 -246l47 -28q76 -41 146 -41q98 0 198 82l60 61 l16 21l-4 -19q-16 -68 -69.5 -110.5t-168.5 -75.5l-73 -15l-27 -38q61 -86 61 -162q0 -109 -106 -158q-59 -27 -102 -27t-73 23t-54 63l77 105q-6 -16 -6 -35q0 -37 27 -63q45 -51 90 -52q45 0 92 60q6 10 6 22q0 29 -28 82q-18 33 -56 90l66 90q-215 0 -332 177 q-88 139 -88 276z" />
<glyph unicode="&#xe8;" horiz-adv-x="823" d="M43 422q0 12 2 28.5t2 24.5q20 145 105 236q92 98 213 114q41 6 79 6q135 0 220.5 -67.5t85.5 -161.5h-549l-6 -33q-12 -92 -13 -151q0 -57 8 -99q27 -117 117 -187.5t209 -70.5q88 0 164 41l14 7l56 34q8 8 45 23l-23 -29q-68 -84 -144.5 -118.5t-178.5 -34.5 q-150 0 -277 129q-63 63 -96 143t-33 166zM215 641h393q-8 66 -65.5 111t-126.5 45q-35 0 -72 -13.5t-67.5 -44t-53.5 -80.5zM205 1069q55 16 89.5 47t65.5 86q37 -55 103.5 -97t183.5 -75l-16 -35z" />
<glyph unicode="&#xe9;" horiz-adv-x="823" d="M43 422q0 12 2 28.5t2 24.5q20 145 105 236q92 98 213 114q41 6 79 6q135 0 220.5 -67.5t85.5 -161.5h-549l-6 -33q-12 -92 -13 -151q0 -57 8 -99q27 -117 117 -187.5t209 -70.5q88 0 164 41l14 7l56 34q8 8 45 23l-23 -29q-68 -84 -144.5 -118.5t-178.5 -34.5 q-150 0 -277 129q-63 63 -96 143t-33 166zM215 641h393q-8 66 -65.5 111t-126.5 45q-35 0 -72 -13.5t-67.5 -44t-53.5 -80.5zM207 1030q113 31 182.5 74t104.5 98q29 -49 65.5 -83t89.5 -50l-426 -74z" />
<glyph unicode="&#xea;" horiz-adv-x="823" d="M43 422q0 12 2 28.5t2 24.5q20 145 105 236q92 98 213 114q41 6 79 6q135 0 220.5 -67.5t85.5 -161.5h-549l-6 -33q-12 -92 -13 -151q0 -57 8 -99q27 -117 117 -187.5t209 -70.5q88 0 164 41l14 7l56 34q8 8 45 23l-23 -29q-68 -84 -144.5 -118.5t-178.5 -34.5 q-150 0 -277 129q-63 63 -96 143t-33 166zM215 641h393q-8 66 -65.5 111t-126.5 45q-35 0 -72 -13.5t-67.5 -44t-53.5 -80.5zM189 1028q86 35 130 68.5t103 107.5q45 -61 100.5 -101t137.5 -71l-29 -37l-209 82q-37 -18 -129 -53q-31 -10 -88 -33z" />
<glyph unicode="&#xeb;" horiz-adv-x="823" d="M43 422q0 12 2 28.5t2 24.5q20 145 105 236q92 98 213 114q41 6 79 6q135 0 220.5 -67.5t85.5 -161.5h-549l-6 -33q-12 -92 -13 -151q0 -57 8 -99q27 -117 117 -187.5t209 -70.5q88 0 164 41l14 7l56 34q8 8 45 23l-23 -29q-68 -84 -144.5 -118.5t-178.5 -34.5 q-150 0 -277 129q-63 63 -96 143t-33 166zM215 641h393q-8 66 -65.5 111t-126.5 45q-35 0 -72 -13.5t-67.5 -44t-53.5 -80.5zM201 1077q0 35 25.5 58.5t58.5 23.5t57.5 -22.5t24.5 -59.5t-23 -57q-25 -27 -59 -27q-35 0 -59.5 24.5t-24.5 59.5zM484 1077q0 35 25.5 58.5 t58.5 23.5t57.5 -22.5t24.5 -59.5t-23 -57q-25 -27 -59 -27q-35 0 -59.5 24.5t-24.5 59.5z" />
<glyph unicode="&#xec;" horiz-adv-x="333" d="M-29 803h262v-707l7 -49q2 -8 6 -16q6 -16 16 -31h-184l18 45q8 25 8 51v537q0 55 -12 78.5t-53 52.5zM-59 1069q55 16 89.5 47t65.5 86q37 -55 103.5 -97t183.5 -75l-16 -35z" />
<glyph unicode="&#xed;" horiz-adv-x="333" d="M-29 803h262v-707l7 -49q2 -8 6 -16q6 -16 16 -31h-184l18 45q8 25 8 51v537q0 55 -12 78.5t-53 52.5zM-69 1030q113 31 182.5 74t104.5 98q29 -49 65.5 -83t89.5 -50l-426 -74z" />
<glyph unicode="&#xee;" horiz-adv-x="333" d="M-29 803h262v-707l7 -49q2 -8 6 -16q6 -16 16 -31h-184l18 45q8 25 8 51v537q0 55 -12 78.5t-53 52.5zM-69 1028q86 35 130 68.5t103 107.5q45 -61 100.5 -101t137.5 -71l-29 -37l-209 82q-37 -18 -129 -53q-31 -10 -88 -33z" />
<glyph unicode="&#xef;" horiz-adv-x="333" d="M-29 803h262v-707l7 -49q2 -8 6 -16q6 -16 16 -31h-184l18 45q8 25 8 51v537q0 55 -12 78.5t-53 52.5zM-63 1077q0 35 25.5 58.5t58.5 23.5t57.5 -22.5t24.5 -59.5t-23 -57q-25 -27 -59 -27q-35 0 -59.5 24.5t-24.5 59.5zM220 1077q0 35 25.5 58.5t58.5 23.5t57.5 -22.5 t24.5 -59.5t-23 -57q-25 -27 -59 -27q-35 0 -59.5 24.5t-24.5 59.5z" />
<glyph unicode="&#xf1;" horiz-adv-x="925" d="M-43 799l68 2q49 0 90 5t86 17l18 2l21 6v-112l14 8l22 14l56 29q111 51 209 51q125 0 209 -84t108 -235q10 -66 10 -146q0 -74 -4 -128t-20 -136l-21 -92h-131q45 98 53 201q0 291 -71.5 423t-210.5 132q-37 0 -74 -11q-74 -27 -111.5 -66.5t-37.5 -78.5v-504 q0 -23 8 -49q2 -14 18 -47h-186q31 39 31 96v486q0 66 -36 122t-100 87zM190 1022l113 70l14 2l27 12q20 8 47 12t51 4q70 0 140 -32q27 -10 47 -11q20 0 47 8l16 3l-6 -13q-20 -37 -39 -53q-10 -10 -41 -29q-29 10 -51 23l-94 47q-25 12 -66 12q-29 0 -59.5 -9t-67.5 -32 q-10 -6 -27.5 -21.5t-27.5 -25.5z" />
<glyph unicode="&#xf2;" horiz-adv-x="937" d="M43 401q0 152 79 259.5t220 150.5q70 16 127 16q61 0 127 -16q141 -43 220 -150.5t79 -259.5q0 -154 -80 -262t-219 -147q-72 -18 -137 -19q-176 0 -296 122t-120 306zM190 393q0 -49 11 -106q31 -135 99.5 -204t168.5 -69q119 0 195 97q84 106 84 290q0 182 -81 284.5 t-198 102.5q-119 0 -195 -98q-84 -109 -84 -297zM236 1069q55 16 89.5 47t65.5 86q37 -55 103.5 -97t183.5 -75l-16 -35z" />
<glyph unicode="&#xf3;" horiz-adv-x="937" d="M43 401q0 152 79 259.5t220 150.5q70 16 127 16q61 0 127 -16q141 -43 220 -150.5t79 -259.5q0 -154 -80 -262t-219 -147q-72 -18 -137 -19q-176 0 -296 122t-120 306zM190 393q0 -49 11 -106q31 -135 99.5 -204t168.5 -69q119 0 195 97q84 106 84 290q0 182 -81 284.5 t-198 102.5q-119 0 -195 -98q-84 -109 -84 -297zM219 1030q113 31 182.5 74t104.5 98q29 -49 65.5 -83t89.5 -50l-426 -74z" />
<glyph unicode="&#xf4;" horiz-adv-x="937" d="M43 401q0 152 79 259.5t220 150.5q70 16 127 16q61 0 127 -16q141 -43 220 -150.5t79 -259.5q0 -154 -80 -262t-219 -147q-72 -18 -137 -19q-176 0 -296 122t-120 306zM190 393q0 -49 11 -106q31 -135 99.5 -204t168.5 -69q119 0 195 97q84 106 84 290q0 182 -81 284.5 t-198 102.5q-119 0 -195 -98q-84 -109 -84 -297zM238 1028q86 35 130 68.5t103 107.5q45 -61 100.5 -101t137.5 -71l-29 -37l-209 82q-37 -18 -129 -53q-31 -10 -88 -33z" />
<glyph unicode="&#xf5;" horiz-adv-x="937" d="M43 401q0 152 79 259.5t220 150.5q70 16 127 16q61 0 127 -16q141 -43 220 -150.5t79 -259.5q0 -154 -80 -262t-219 -147q-72 -18 -137 -19q-176 0 -296 122t-120 306zM190 393q0 -49 11 -106q31 -135 99.5 -204t168.5 -69q119 0 195 97q84 106 84 290q0 182 -81 284.5 t-198 102.5q-119 0 -195 -98q-84 -109 -84 -297zM208 1022l113 70l14 2l27 12q20 8 47 12t51 4q70 0 140 -32q27 -10 47 -11q20 0 47 8l16 3l-6 -13q-20 -37 -39 -53q-10 -10 -41 -29q-29 10 -51 23l-94 47q-25 12 -66 12q-29 0 -59.5 -9t-67.5 -32q-10 -6 -27.5 -21.5 t-27.5 -25.5z" />
<glyph unicode="&#xf6;" horiz-adv-x="937" d="M43 401q0 152 79 259.5t220 150.5q70 16 127 16q61 0 127 -16q141 -43 220 -150.5t79 -259.5q0 -154 -80 -262t-219 -147q-72 -18 -137 -19q-176 0 -296 122t-120 306zM190 393q0 -49 11 -106q31 -135 99.5 -204t168.5 -69q119 0 195 97q84 106 84 290q0 182 -81 284.5 t-198 102.5q-119 0 -195 -98q-84 -109 -84 -297zM238 1077q0 35 25.5 58.5t58.5 23.5t57.5 -22.5t24.5 -59.5t-23 -57q-25 -27 -59 -27q-35 0 -59.5 24.5t-24.5 59.5zM521 1077q0 35 25.5 58.5t58.5 23.5t57.5 -22.5t24.5 -59.5t-23 -57q-25 -27 -59 -27q-35 0 -59.5 24.5 t-24.5 59.5z" />
<glyph unicode="&#xf8;" horiz-adv-x="937" d="M25 -193l22 33l25 37l32 47l27 41l12 23l17 28l35 50q-72 59 -112 145t-40 190q0 152 79 259.5t220 150.5q70 16 127 16q61 0 127 -16l72 -29q16 37 21 64.5t5 68.5l-14 76h199l-158 -239q84 -55 129 -145.5t45 -205.5q0 -154 -80 -262t-219 -147q-72 -18 -135 -19 q-119 0 -215 58l-8 -15l-27 -49l-41 -85q-18 -40 -31 -75h-57h-57zM190 393q0 -49 11 -106q20 -84 51 -140l362 517l13 26l12 27q-72 72 -170 71q-119 0 -195 -98q-84 -109 -84 -297zM289 96q74 -82 180 -82q119 0 195 97q84 106 84 290q0 86 -19.5 157t-56.5 120z" />
<glyph unicode="&#xf9;" horiz-adv-x="964" d="M57 346q0 119 70 225l33 50q2 6 2 20q0 20 -11.5 47t-37.5 64l-35 51h215l8 -6l6 -15q6 -10 6 -14q0 -10 -14 -39l-60 -108q-28 -51 -39.5 -119t-11.5 -129q0 -147 69 -226t202 -90q12 -2 24 -2h25q104 0 162.5 39t58.5 88v475q0 43 -31 88q-12 16 -27.5 31t-35.5 27h250 q-27 -41 -27 -96v-611q0 -35 19 -78l8 -18h-156v98l-14 -12l-15 -12q-123 -90 -272 -90h-25q-14 0 -43 4q-143 20 -223 113t-80 245zM236 1069q55 16 89.5 47t65.5 86q37 -55 103.5 -97t183.5 -75l-16 -35z" />
<glyph unicode="&#xfa;" horiz-adv-x="964" d="M57 346q0 119 70 225l33 50q2 6 2 20q0 20 -11.5 47t-37.5 64l-35 51h215l8 -6l6 -15q6 -10 6 -14q0 -10 -14 -39l-60 -108q-28 -51 -39.5 -119t-11.5 -129q0 -147 69 -226t202 -90q12 -2 24 -2h25q104 0 162.5 39t58.5 88v475q0 43 -31 88q-12 16 -27.5 31t-35.5 27h250 q-27 -41 -27 -96v-611q0 -35 19 -78l8 -18h-156v98l-14 -12l-15 -12q-123 -90 -272 -90h-25q-14 0 -43 4q-143 20 -223 113t-80 245zM256 1030q113 31 182.5 74t104.5 98q29 -49 65.5 -83t89.5 -50l-426 -74z" />
<glyph unicode="&#xfb;" horiz-adv-x="964" d="M57 346q0 119 70 225l33 50q2 6 2 20q0 20 -11.5 47t-37.5 64l-35 51h215l8 -6l6 -15q6 -10 6 -14q0 -10 -14 -39l-60 -108q-28 -51 -39.5 -119t-11.5 -129q0 -147 69 -226t202 -90q12 -2 24 -2h25q104 0 162.5 39t58.5 88v475q0 43 -31 88q-12 16 -27.5 31t-35.5 27h250 q-27 -41 -27 -96v-611q0 -35 19 -78l8 -18h-156v98l-14 -12l-15 -12q-123 -90 -272 -90h-25q-14 0 -43 4q-143 20 -223 113t-80 245zM238 1028q86 35 130 68.5t103 107.5q45 -61 100.5 -101t137.5 -71l-29 -37l-209 82q-37 -18 -129 -53q-31 -10 -88 -33z" />
<glyph unicode="&#xfc;" horiz-adv-x="964" d="M57 346q0 119 70 225l33 50q2 6 2 20q0 20 -11.5 47t-37.5 64l-35 51h215l8 -6l6 -15q6 -10 6 -14q0 -10 -14 -39l-60 -108q-28 -51 -39.5 -119t-11.5 -129q0 -147 69 -226t202 -90q12 -2 24 -2h25q104 0 162.5 39t58.5 88v475q0 43 -31 88q-12 16 -27.5 31t-35.5 27h250 q-27 -41 -27 -96v-611q0 -35 19 -78l8 -18h-156v98l-14 -12l-15 -12q-123 -90 -272 -90h-25q-14 0 -43 4q-143 20 -223 113t-80 245zM256 1077q0 35 25.5 58.5t58.5 23.5t57.5 -22.5t24.5 -59.5t-23 -57q-25 -27 -59 -27q-35 0 -59.5 24.5t-24.5 59.5zM539 1077 q0 35 25.5 58.5t58.5 23.5t57.5 -22.5t24.5 -59.5t-23 -57q-25 -27 -59 -27q-35 0 -59.5 24.5t-24.5 59.5z" />
<glyph unicode="&#xff;" horiz-adv-x="956" d="M57 319q0 125 70 238l33 51q2 6 2 23q0 23 -10.5 49.5t-38.5 67.5l-35 55h217l8 -4q4 -10 10 -21q2 -4 2 -10t-16 -39l-61 -121q-27 -51 -38.5 -122.5t-11.5 -137.5q0 -158 68 -239.5t201 -94.5q18 -2 51 -2q102 0 161.5 42t59.5 96v501q0 39 -22 78q-14 27 -35 46.5 t-37 27.5h250q-27 -45 -27 -103v-643q0 -184 -86 -327.5t-233 -210.5q-123 -57 -220 -58q-133 0 -204 113l32 43l31 45l33 41l35 45q-8 -25 -8 -53q0 -59 43 -113q53 -61 133 -61q53 0 107 30.5t101.5 91t77 158t29.5 215.5v41l-29 -26q-29 -27 -78 -49.5t-106 -36.5 q-20 -4 -47 -6t-51 -2q-39 0 -58 4q-143 20 -223 117t-80 261zM256 1077q0 35 25.5 58.5t58.5 23.5t57.5 -22.5t24.5 -59.5t-23 -57q-25 -27 -59 -27q-35 0 -59.5 24.5t-24.5 59.5zM539 1077q0 35 25.5 58.5t58.5 23.5t57.5 -22.5t24.5 -59.5t-23 -57q-25 -27 -59 -27 q-35 0 -59.5 24.5t-24.5 59.5z" />
<glyph unicode="&#x131;" horiz-adv-x="333" d="M-29 803h262v-707l7 -49q2 -8 6 -16q6 -16 16 -31h-184l18 45q8 25 8 51v537q0 55 -12 78.5t-53 52.5z" />
<glyph unicode="&#x152;" horiz-adv-x="2940" d="M57 717q0 328 218.5 539.5t572.5 211.5q236 0 424 -120q174 -111 272 -301q90 174 252 274q176 109 408 109l75 4h95h526l-12 -11l-11 -10q-37 -35 -58 -80t-21 -98v-25q-78 80 -175.5 121t-238.5 41q-43 0 -82 -1t-88 -9q-211 -35 -329 -125t-169 -217h781l51 4 q156 20 250 96v-61v-115v-61l-43 28q-63 39 -120 54.5t-138 15.5h-797l-10 -25l-9 -22l-16 -53q-14 -59 -21.5 -112.5t-7.5 -115.5q0 -186 86 -326.5t219.5 -216t292.5 -75.5q29 0 62 3t74 11q154 33 259 105.5t169 187.5v-76v-73q-150 -143 -377 -191q-106 -23 -223 -22 q-225 0 -393.5 93t-260.5 261q-96 -170 -279.5 -269.5t-416.5 -99.5q-352 0 -571.5 211t-219.5 541zM250 717q0 -256 113.5 -432t308.5 -240q90 -29 176 -29q88 0 178 29q195 63 308.5 239.5t113.5 432.5t-113.5 431t-308.5 241q-82 27 -178 26q-94 0 -176 -26 q-195 -63 -305 -236q-117 -180 -117 -436z" />
<glyph unicode="&#x153;" horiz-adv-x="1525" d="M43 401q0 152 79 259.5t220 150.5q70 16 127 16q61 0 127 -16q74 -23 129 -62.5t96 -97.5l45 60q92 98 213 114q41 6 80 6q135 0 220 -67.5t85 -161.5h-549l-6 -33q-12 -92 -12 -151q0 -57 8 -99q27 -117 117 -187.5t209 -70.5q88 0 164 41l14 7l55 34q8 8 45 23l-22 -29 q-68 -84 -144.5 -118.5t-179.5 -34.5q-150 0 -276 129l-49 59q-80 -137 -242 -180q-72 -18 -137 -19q-176 0 -296 122t-120 306zM190 393q0 -49 11 -106q31 -135 99.5 -204t168.5 -69q117 0 199 97q90 106 90 288t-90 291q-82 98 -199 98q-119 0 -195 -98q-84 -109 -84 -297 zM930 641h393q-8 66 -65.5 111t-127.5 45q-35 0 -71.5 -13.5t-67 -44t-53.5 -80.5z" />
<glyph unicode="&#x178;" horiz-adv-x="1476" d="M57 607v36q0 217 152 447q45 70 65 92q45 55 45 78q0 31 -86 108q-18 20 -40 29l-5 6q0 18 7 27q2 2 6 4h272q14 -4 19 -9q14 -10 14 -18t-57 -78q-76 -78 -144 -260q-43 -111 -55 -240q-6 -41 -8 -81.5t-2 -92.5q0 -297 135 -458q129 -156 352 -156q29 0 58.5 2t62.5 9 t50 12.5t60 21.5q115 51 167.5 107.5t52.5 115.5v881q0 72 -29 115t-109 94l-16 26l23 9h286v-1198q0 -332 -174 -510.5t-512 -178.5q-51 0 -118.5 6.5t-135.5 16.5q-117 23 -219 70q59 23 100 45t95 65l18 12l14 13q43 -76 127 -120t201 -44h33q25 4 37 4 q160 16 239.5 120.5t126.5 362.5l9 58q-74 -76 -172.5 -120t-229.5 -59q-16 0 -39.5 -2t-50.5 -2q-256 0 -422 155t-199 435q-4 20 -4 44zM508 1618q0 35 25.5 58.5t58.5 23.5t57.5 -22.5t24.5 -59.5t-23 -57q-25 -27 -59 -27q-35 0 -59.5 24.5t-24.5 59.5zM791 1618 q0 35 25.5 58.5t58.5 23.5t57.5 -22.5t24.5 -59.5t-23 -57q-25 -27 -59 -27q-35 0 -59.5 24.5t-24.5 59.5z" />
<glyph unicode="&#x2c6;" d="M238 1028q86 35 130 68.5t103 107.5q45 -61 100.5 -101t137.5 -71l-29 -37l-209 82q-37 -18 -129 -53q-31 -10 -88 -33z" />
<glyph unicode="&#x2da;" d="M305 1077q0 49 36 84t85 35q27 0 47.5 -7t40.5 -26q35 -39 35 -84q0 -49 -35 -84q-43 -39 -90 -39t-83 36t-36 85zM344 1077q0 -35 24.5 -59.5t59.5 -24.5t59 27q23 20 23 57t-24.5 59.5t-57.5 22.5t-58.5 -23.5t-25.5 -58.5z" />
<glyph unicode="&#x2dc;" d="M190 1022l113 70l14 2l27 12q20 8 47 12t51 4q70 0 140 -32q27 -10 47 -11q20 0 47 8l16 3l-6 -13q-20 -37 -39 -53q-10 -10 -41 -29q-29 10 -51 23l-94 47q-25 12 -66 12q-29 0 -59.5 -9t-67.5 -32q-10 -6 -27.5 -21.5t-27.5 -25.5z" />
<glyph unicode="&#x2013;" horiz-adv-x="819" d="M0 379v160h819v-160h-819z" />
<glyph unicode="&#x2014;" horiz-adv-x="1638" d="M0 379v160h1638v-160h-1638z" />
<glyph unicode="&#x2018;" horiz-adv-x="321" d="M39 1110q0 51 15.5 98t65.5 115t122 104q-66 -49 -66 -124q0 -25 10 -60q4 -16 21 -45q31 -47 41 -106q6 -39 -20.5 -74t-67.5 -35q-47 0 -84 35t-37 92z" />
<glyph unicode="&#x2019;" horiz-adv-x="321" d="M51 1360q-6 41 21.5 74.5t68.5 33.5q45 0 82 -34.5t37 -92.5q0 -53 -16.5 -99t-63.5 -111.5t-123 -106.5q63 51 64 125q0 25 -7.5 49.5t-9.5 32.5q-4 10 -10 22q-16 23 -26.5 48.5t-16.5 58.5z" />
<glyph unicode="&#x201c;" horiz-adv-x="581" d="M57 1110q0 51 15.5 98t65.5 115t122 104q-66 -49 -65 -124q0 -25 10 -60q4 -16 20 -45q31 -47 41 -106q6 -39 -20.5 -74t-67.5 -35q-47 0 -84 35t-37 92zM311 1110q0 51 15.5 98t65.5 115t122 104q-66 -49 -65 -124q0 -25 10 -60q4 -16 20 -45q31 -47 41 -106 q6 -39 -20.5 -74t-67.5 -35q-47 0 -84 35t-37 92z" />
<glyph unicode="&#x201d;" horiz-adv-x="569" d="M51 1360q-6 41 21.5 74.5t68.5 33.5q45 0 82 -34.5t37 -92.5q0 -53 -16.5 -99t-63.5 -111.5t-123 -106.5q63 51 64 125q0 25 -7.5 49.5t-9.5 32.5q-4 10 -10 22q-16 23 -26.5 48.5t-16.5 58.5zM305 1360q-6 41 21.5 74.5t68.5 33.5q45 0 82 -34.5t37 -92.5 q0 -53 -16.5 -99t-63.5 -111.5t-123 -106.5q63 51 64 125q0 25 -7.5 49.5t-9.5 32.5q-4 10 -10 22q-16 23 -26.5 48.5t-16.5 58.5z" />
<glyph unicode="&#x2022;" horiz-adv-x="589" d="M92 614q0 82 58.5 140.5t140.5 58.5t141.5 -57.5t59.5 -141.5q0 -80 -59.5 -139t-141.5 -59t-140.5 58t-58.5 140z" />
<glyph unicode="&#x2026;" horiz-adv-x="1228" d="M102 90q0 45 35 78t76 33q43 0 78 -33t35 -78q0 -47 -33 -78q-35 -35 -80 -35q-43 0 -77 34t-34 79zM512 90q0 45 35 78t76 33q43 0 77.5 -33t34.5 -78q0 -47 -33 -78q-35 -35 -79 -35q-43 0 -77 34t-34 79zM922 90q0 45 34.5 78t75.5 33q43 0 78 -33t35 -78 q0 -47 -33 -78q-35 -35 -80 -35q-43 0 -76.5 34t-33.5 79z" />
<glyph unicode="&#x2039;" horiz-adv-x="1228" d="M170 367v155l889 383v-117l-797 -344l797 -335v-125z" />
<glyph unicode="&#x203a;" horiz-adv-x="1228" d="M219 -16v125l797 335l-797 344v117l889 -383v-155z" />
<glyph unicode="&#x2122;" horiz-adv-x="1771" d="M35 1147l6 192h633l6 -192l-37 -2q0 72 -35 110.5t-119 38.5l-73 2v-620q0 -33 25.5 -45.5t74.5 -12.5v-34h-319v34q51 0 76.5 11.5t25.5 46.5v620l-74 -2q-82 0 -117.5 -38.5t-35.5 -110.5zM737 1305v34h228l262 -573l250 573h223v-34q-49 0 -72.5 -7.5t-23.5 -44.5 v-577q0 -33 24.5 -45.5t73.5 -12.5v-34h-318v34q51 0 76 11.5t25 46.5v551l-266 -643h-37l-287 610v-518q0 -33 25.5 -45.5t76.5 -12.5v-34h-256v34q51 0 76 11.5t25 46.5v559q0 43 -18.5 56.5t-57.5 13.5h-29z" />
<glyph unicode="&#xe000;" horiz-adv-x="825" d="M0 825h825v-825h-825v825z" />
<glyph unicode="&#xfb01;" horiz-adv-x="1003" d="M630 803h263v-707l6 -49q2 -8 6 -16q6 -16 16 -31h-184l18 45q8 25 9 51v537q0 55 -12.5 78.5t-53.5 52.5zM710 1124q0 43 31 73t72 30t69.5 -30t28.5 -73t-29 -71q-33 -29 -71 -29q-37 0 -70 29q-31 34 -31 71zM-25 748l111 -13q31 -6 41 -6q14 -2 31 -2q33 0 80 31 q150 92 217 92q45 0 105.5 -33t101.5 -100l-33 -4q-121 0 -160 -105l4 43l6 62q0 37 -22.5 59.5t-57.5 22.5q-47 0 -85 -41t-62 -127q-14 -51 -14 -95v-540q8 -2 14 -2h8q18 0 96 30q18 6 43 7q43 0 144 -15l55 -10l10 -2l15 -6q-10 -12 -26.5 -23.5t-43.5 -25t-72 -13.5 q-31 0 -65.5 9.5t-73.5 16.5t-51 7q-18 0 -53 -10v-397l-127 -101v1071q0 49 -22.5 91.5t-78.5 93.5z" />
<glyph unicode="&#xfb02;" horiz-adv-x="1171" d="M706 473q0 66 16.5 140.5t55.5 183.5l25 53l43 100q4 20 4 31q0 55 -56 113l-35 30l-2 11q4 23 47.5 28.5l98.5 12.5l123 41l10 2l41 10q-84 -125 -143 -271q-51 -129 -75 -246.5t-24 -224.5q0 -78 13 -139q41 -190 115.5 -263t226.5 -73h20q-23 -20 -51.5 -30.5 t-77.5 -10.5h-25q-18 4 -28 4q-135 14 -225 144q-97 137 -97 354zM-25 748l111 -13q31 -6 41 -6q14 -2 31 -2q33 0 80 31q150 92 217 92q45 0 105.5 -33t101.5 -100l-33 -4q-121 0 -160 -105l4 43l6 62q0 37 -22.5 59.5t-57.5 22.5q-47 0 -85 -41t-62 -127q-14 -51 -14 -95 v-540q8 -2 14 -2h8q18 0 96 30q18 6 43 7q43 0 144 -15l55 -10l10 -2l15 -6q-10 -12 -26.5 -23.5t-43.5 -25t-72 -13.5q-31 0 -65.5 9.5t-73.5 16.5t-51 7q-18 0 -53 -10v-397l-127 -101v1071q0 49 -22.5 91.5t-78.5 93.5z" />
<glyph unicode="&#xfb03;" horiz-adv-x="1656" d="M1284 803h263v-707l6 -49q2 -8 6 -16q6 -16 16 -31h-184l18 45q8 25 9 51v537q0 55 -12.5 78.5t-53.5 52.5zM1364 1124q0 43 31 73t72 30t69.5 -30t28.5 -73t-29 -71q-33 -29 -71 -29q-37 0 -70 29q-31 34 -31 71zM628 748l111 -13q31 -6 41 -6q14 -2 31 -2q33 0 80 31 q150 92 217 92q45 0 105.5 -33t101.5 -100l-33 -4q-121 0 -160 -105l4 43l6 62q0 37 -22.5 59.5t-57.5 22.5q-47 0 -85 -41t-62 -127q-14 -51 -14 -95v-540q8 -2 14 -2h8q18 0 96 30q18 6 43 7q43 0 144 -15l55 -10l10 -2l15 -6q-10 -12 -26.5 -23.5t-43.5 -25t-72 -13.5 q-31 0 -65.5 9.5t-73.5 16.5t-51 7q-18 0 -53 -10v-397l-127 -101v1071q0 49 -22.5 91.5t-78.5 93.5zM-25 748l111 -13q31 -6 41 -6q14 -2 31 -2q33 0 80 31q150 92 217 92q45 0 105.5 -33t101.5 -100l-33 -4q-121 0 -160 -105l4 43l6 62q0 37 -22.5 59.5t-57.5 22.5 q-47 0 -85 -41t-62 -127q-14 -51 -14 -95v-540q8 -2 14 -2h8q18 0 96 30q18 6 43 7q43 0 144 -15l55 -10l10 -2l15 -6q-10 -12 -26.5 -23.5t-43.5 -25t-72 -13.5q-31 0 -65.5 9.5t-73.5 16.5t-51 7q-18 0 -53 -10v-397l-127 -101v1071q0 49 -22.5 91.5t-78.5 93.5z" />
<glyph unicode="&#xfb04;" horiz-adv-x="1824" d="M1360 473q0 66 16.5 140.5t55.5 183.5l25 53l43 100q4 20 4 31q0 55 -56 113l-35 30l-2 11q4 23 47.5 28.5l98.5 12.5l123 41l10 2l41 10q-84 -125 -143 -271q-51 -129 -75 -246.5t-24 -224.5q0 -78 13 -139q41 -190 115.5 -263t226.5 -73h20q-23 -20 -51.5 -30.5 t-77.5 -10.5h-25q-18 4 -28 4q-135 14 -225 144q-97 137 -97 354zM628 748l111 -13q31 -6 41 -6q14 -2 31 -2q33 0 80 31q150 92 217 92q45 0 105.5 -33t101.5 -100l-33 -4q-121 0 -160 -105l4 43l6 62q0 37 -22.5 59.5t-57.5 22.5q-47 0 -85 -41t-62 -127q-14 -51 -14 -95 v-540q8 -2 14 -2h8q18 0 96 30q18 6 43 7q43 0 144 -15l55 -10l10 -2l15 -6q-10 -12 -26.5 -23.5t-43.5 -25t-72 -13.5q-31 0 -65.5 9.5t-73.5 16.5t-51 7q-18 0 -53 -10v-397l-127 -101v1071q0 49 -22.5 91.5t-78.5 93.5zM-25 748l111 -13q31 -6 41 -6q14 -2 31 -2 q33 0 80 31q150 92 217 92q45 0 105.5 -33t101.5 -100l-33 -4q-121 0 -160 -105l4 43l6 62q0 37 -22.5 59.5t-57.5 22.5q-47 0 -85 -41t-62 -127q-14 -51 -14 -95v-540q8 -2 14 -2h8q18 0 96 30q18 6 43 7q43 0 144 -15l55 -10l10 -2l15 -6q-10 -12 -26.5 -23.5t-43.5 -25 t-72 -13.5q-31 0 -65.5 9.5t-73.5 16.5t-51 7q-18 0 -53 -10v-397l-127 -101v1071q0 49 -22.5 91.5t-78.5 93.5z" />
</font>
</defs>
</svg>
